<svg width="639" height="159" viewBox="0 0 639 159" fill="none" xmlns="http://www.w3.org/2000/svg">
    <path fill-rule="evenodd" clip-rule="evenodd"
        d="M84.2956 2.15692L114.946 32.807C117.823 35.6847 117.823 40.3486 114.946 43.2248C112.068 46.1025 107.404 46.1025 104.528 43.2248L84.2956 22.9941C81.4179 20.1163 76.754 20.1163 73.8778 22.9941L22.9954 73.8765C20.1177 76.7542 20.1177 81.4181 22.9954 84.2943L73.8778 135.177C76.7556 138.054 81.4195 138.054 84.2956 135.177L104.528 114.944C107.406 112.067 112.07 112.067 114.946 114.944C117.823 117.822 117.823 122.486 114.946 125.362L84.2956 156.012C81.4179 158.89 76.754 158.89 73.8778 156.012L2.1583 84.2943C-0.719432 81.4165 -0.719432 76.7526 2.1583 73.8765L73.8763 2.15849C76.754 -0.719235 81.4195 -0.719235 84.2956 2.15692Z"
        fill="url(#paint0_linear_2_67)" />
    <path fill-rule="evenodd" clip-rule="evenodd"
        d="M125.365 53.6442C128.243 50.7664 132.907 50.7664 135.783 53.6442L156.015 73.8765C158.893 76.7542 158.893 81.4181 156.015 84.2943L135.783 104.527C132.905 107.404 128.241 107.404 125.365 104.527C122.487 101.649 122.487 96.9849 125.365 94.1088L135.178 84.2958C138.056 81.4181 138.056 76.7542 135.178 73.878L125.365 64.0651C122.487 61.1858 122.487 56.5219 125.365 53.6442Z"
        fill="url(#paint1_linear_2_67)" />
    <path fill-rule="evenodd" clip-rule="evenodd"
        d="M79.0868 102.417C91.9728 102.417 102.419 91.9713 102.419 79.0854C102.419 66.1994 91.9728 55.7532 79.0868 55.7532C66.2008 55.7532 55.7546 66.1994 55.7546 79.0854C55.7546 91.9713 66.2008 102.417 79.0868 102.417ZM79.0868 91.2121C72.3894 91.2121 66.96 85.7827 66.96 79.0854C66.96 72.388 72.3894 66.9586 79.0868 66.9586C85.7841 66.9586 91.2135 72.388 91.2135 79.0854C91.2135 85.7827 85.7841 91.2121 79.0868 91.2121Z"
        fill="url(#paint2_linear_2_67)" />
    <path
        d="M199 104L220.984 38.72H230.392L252.376 104H244.408L238.072 84.8H213.304L206.968 104H199ZM215.512 77.888H235.768L225.688 47.168L215.512 77.888Z"
        fill="#68B1E0" />
    <path
        d="M260.504 104V65.6L259.544 56L265.88 55.52L267.8 65.504C269.656 62.176 271.992 59.552 274.808 57.632C277.624 55.648 280.696 54.656 284.024 54.656C294.52 54.656 299.768 61.376 299.768 74.816V104H292.472V74.816C292.472 65.728 289.24 61.184 282.776 61.184C280.024 61.184 277.496 62.144 275.192 64.064C272.952 65.984 271.16 68.576 269.816 71.84C268.472 75.104 267.8 78.784 267.8 82.88V104H260.504Z"
        fill="black" />
    <path
        d="M327.064 105.344C323.608 105.344 321.08 104.416 319.48 102.56C317.88 100.64 317.08 97.632 317.08 93.536V62.24H309.784V56H317.08L319.384 41.6H324.376V56H335.608V62.24H324.376V93.536C324.376 97.056 325.816 98.816 328.696 98.816C330.872 98.816 333.24 97.888 335.8 96.032L338.488 100.928C334.776 103.872 330.968 105.344 327.064 105.344Z"
        fill="black" />
    <path
        d="M371.421 104V38.72H394.749C400.509 38.72 405.437 40.032 409.533 42.656C413.693 45.216 416.861 48.928 419.037 53.792C421.277 58.656 422.397 64.512 422.397 71.36C422.397 78.144 421.277 84 419.037 88.928C416.861 93.792 413.693 97.536 409.533 100.16C405.437 102.72 400.509 104 394.749 104H371.421ZM379.101 97.088H394.749C401.021 97.088 405.917 94.816 409.437 90.272C412.957 85.728 414.717 79.424 414.717 71.36C414.717 63.296 412.957 56.992 409.437 52.448C405.917 47.904 401.021 45.632 394.749 45.632H379.101V97.088Z"
        fill="#F07770" />
    <path
        d="M449.504 105.344C443.424 105.344 438.593 103.232 435.009 99.008C431.425 94.72 429.633 88.96 429.633 81.728C429.633 76.416 430.624 71.744 432.608 67.712C434.656 63.616 437.472 60.416 441.056 58.112C444.64 55.808 448.768 54.656 453.44 54.656C456.32 54.656 458.881 55.264 461.121 56.48C463.361 57.696 465.121 59.328 466.401 61.376C467.745 63.424 468.417 65.76 468.417 68.384C468.417 71.648 467.361 74.56 465.249 77.12C463.201 79.616 460.32 81.6 456.608 83.072C452.896 84.48 448.641 85.184 443.841 85.184C441.601 85.184 439.361 85.088 437.121 84.896C437.633 89.184 438.976 92.576 441.152 95.072C443.392 97.568 446.273 98.816 449.793 98.816C452.353 98.816 454.88 98.368 457.376 97.472C459.872 96.512 461.984 95.232 463.712 93.632L467.168 98.336C462.304 103.008 456.416 105.344 449.504 105.344ZM444.033 78.848C449.025 78.848 453.12 77.888 456.32 75.968C459.52 74.048 461.121 71.616 461.121 68.672C461.121 66.496 460.352 64.704 458.816 63.296C457.344 61.888 455.456 61.184 453.152 61.184C448.736 61.184 445.056 62.784 442.112 65.984C439.232 69.12 437.537 73.248 437.025 78.368C438.305 78.56 439.521 78.688 440.673 78.752C441.825 78.816 442.945 78.848 444.033 78.848Z"
        fill="black" />
    <path
        d="M492.548 105.344C489.412 105.344 486.372 104.768 483.428 103.616C480.484 102.464 477.892 100.896 475.652 98.912L479.589 93.632C481.189 95.168 483.172 96.416 485.54 97.376C487.908 98.272 490.244 98.72 492.548 98.72C495.556 98.72 497.957 98.016 499.749 96.608C501.605 95.2 502.533 93.344 502.533 91.04C502.533 89.056 501.765 87.424 500.229 86.144C498.693 84.864 496.069 83.712 492.357 82.688C488.709 81.6 485.797 80.448 483.621 79.232C481.509 78.016 480.004 76.576 479.108 74.912C478.212 73.184 477.764 71.136 477.764 68.768C477.764 64.608 479.205 61.216 482.085 58.592C485.029 55.968 488.837 54.656 493.509 54.656C494.981 54.656 496.581 54.816 498.309 55.136C500.101 55.392 501.797 55.776 503.397 56.288C505.061 56.736 506.404 57.28 507.428 57.92L504.741 63.776C503.461 63.072 501.732 62.496 499.556 62.048C497.38 61.536 495.365 61.28 493.509 61.28C491.077 61.28 489.061 61.92 487.461 63.2C485.861 64.48 485.061 66.112 485.061 68.096C485.061 69.888 485.733 71.328 487.077 72.416C488.485 73.504 490.949 74.56 494.469 75.584C500.165 77.248 504.132 79.2 506.372 81.44C508.676 83.68 509.828 86.784 509.828 90.752C509.828 95.168 508.261 98.72 505.125 101.408C501.989 104.032 497.796 105.344 492.548 105.344Z"
        fill="black" />
    <path
        d="M521.796 104V56H529.092V104H521.796ZM525.444 47.744C523.716 47.744 522.34 47.264 521.316 46.304C520.356 45.28 519.876 43.904 519.876 42.176C519.876 40.512 520.356 39.168 521.316 38.144C522.34 37.12 523.716 36.608 525.444 36.608C527.108 36.608 528.452 37.12 529.476 38.144C530.5 39.168 531.012 40.512 531.012 42.176C531.012 43.776 530.5 45.12 529.476 46.208C528.452 47.232 527.108 47.744 525.444 47.744Z"
        fill="black" />
    <path
        d="M559.607 126.944C556.663 126.944 553.591 126.432 550.391 125.408C547.255 124.384 544.471 123.04 542.039 121.376L545.687 115.712C547.351 116.992 549.463 118.048 552.023 118.88C554.583 119.712 557.111 120.128 559.607 120.128C562.807 120.128 565.623 119.296 568.055 117.632C570.487 115.968 572.407 113.664 573.815 110.72C575.223 107.776 575.927 104.416 575.927 100.64V96.032C574.199 98.976 572.055 101.28 569.495 102.944C566.935 104.544 564.055 105.344 560.855 105.344C555.031 105.344 550.423 103.168 547.031 98.816C543.703 94.4 542.039 88.416 542.039 80.864C542.039 75.744 543.031 71.232 545.015 67.328C547.063 63.36 549.879 60.256 553.463 58.016C557.047 55.776 561.111 54.656 565.655 54.656C568.599 54.656 571.639 55.168 574.775 56.192C577.975 57.216 580.791 58.56 583.223 60.224V100.736C583.223 105.792 582.199 110.304 580.151 114.272C578.167 118.24 575.383 121.344 571.799 123.584C568.279 125.824 564.215 126.944 559.607 126.944ZM562.295 98.816C566.263 98.816 569.527 96.896 572.087 93.056C574.647 89.216 575.927 84.096 575.927 77.696V63.584C572.727 61.984 569.303 61.184 565.655 61.184C562.519 61.184 559.703 62.016 557.207 63.68C554.775 65.344 552.855 67.68 551.447 70.688C550.039 73.632 549.335 77.024 549.335 80.864C549.335 86.368 550.487 90.752 552.791 94.016C555.159 97.216 558.327 98.816 562.295 98.816Z"
        fill="black" />
    <path
        d="M599.504 104V65.6L598.544 56L604.88 55.52L606.8 65.504C608.656 62.176 610.992 59.552 613.808 57.632C616.624 55.648 619.696 54.656 623.024 54.656C633.52 54.656 638.768 61.376 638.768 74.816V104H631.472V74.816C631.472 65.728 628.24 61.184 621.776 61.184C619.024 61.184 616.496 62.144 614.192 64.064C611.952 65.984 610.16 68.576 608.816 71.84C607.472 75.104 606.8 78.784 606.8 82.88V104H599.504Z"
        fill="#F06070" />
    <defs>
        <linearGradient id="paint0_linear_2_67" x1="77847.1" y1="7908.54" x2="-5196.69" y2="7908.54"
            gradientUnits="userSpaceOnUse">
            <stop stop-color="#47B4E0" />
            <stop offset="0.1718" stop-color="#1588E0" />
            <stop offset="1" stop-color="#6EB4E0" />
        </linearGradient>
        <linearGradient id="paint1_linear_2_67" x1="31937.2" y1="15816.8" x2="31937.2" y2="0.248883"
            gradientUnits="userSpaceOnUse">
            <stop offset="0.0322" stop-color="#F0776F" />
            <stop offset="0.5032" stop-color="#F0656F" />
            <stop offset="1" stop-color="#F0606F" />
        </linearGradient>
        <linearGradient id="paint2_linear_2_67" x1="31938.4" y1="0.106801" x2="31938.4" y2="15817"
            gradientUnits="userSpaceOnUse">
            <stop offset="0.0322" stop-color="#F0776F" />
            <stop offset="0.5032" stop-color="#F0656F" />
            <stop offset="1" stop-color="#F0606F" />
        </linearGradient>
    </defs>
</svg>