<?xml version="1.0" encoding="utf-8"?>
<!-- Generator: Adobe Illustrator 22.1.0, SVG Export Plug-In . SVG Version: 6.00 Build 0)  -->
<svg version="1.1" id="图层_1" xmlns="http://www.w3.org/2000/svg" xmlns:xlink="http://www.w3.org/1999/xlink" x="0px" y="0px"
	 viewBox="0 0 283.5 283.5" style="enable-background:new 0 0 283.5 283.5;" xml:space="preserve">
<g>
	<path d="M93.4,159.9c0,3.2-0.8,6.6-2.3,10.3c-1.6,3.7-4,7.3-7.3,10.8c-3.3,3.5-7.6,6.4-12.8,8.6c-5.2,2.2-11.2,3.3-18.1,3.3
		c-5.2,0-10-0.5-14.3-1.5c-4.3-1-8.2-2.5-11.7-4.6c-3.5-2.1-6.7-4.9-9.6-8.3c-2.6-3.1-4.9-6.6-6.7-10.5c-1.9-3.9-3.2-8-4.2-12.4
		c-0.9-4.4-1.4-9-1.4-13.9c0-8,1.2-15.1,3.5-21.5c2.3-6.3,5.7-11.7,10-16.2c4.3-4.5,9.4-7.9,15.2-10.3c5.8-2.3,12-3.5,18.6-3.5
		c8,0,15.2,1.6,21.5,4.8c6.3,3.2,11.1,7.2,14.4,11.9c3.3,4.7,5,9.2,5,13.4c0,2.3-0.8,4.3-2.4,6.1c-1.6,1.8-3.6,2.6-5.9,2.6
		c-2.6,0-4.5-0.6-5.8-1.8c-1.3-1.2-2.7-3.3-4.3-6.3c-2.6-4.9-5.7-8.6-9.2-11c-3.5-2.4-7.9-3.7-13.1-3.7c-8.3,0-14.8,3.1-19.7,9.4
		c-4.9,6.3-7.3,15.2-7.3,26.7c0,7.7,1.1,14.1,3.2,19.3c2.2,5.1,5.2,8.9,9.2,11.5c4,2.5,8.6,3.8,13.9,3.8c5.8,0,10.7-1.4,14.7-4.3
		s7-7.1,9-12.6c0.9-2.6,1.9-4.7,3.2-6.4c1.3-1.6,3.3-2.5,6.1-2.5c2.4,0,4.4,0.8,6.2,2.5C92.5,155.3,93.4,157.4,93.4,159.9z"/>
	<path d="M150,152.6h-18.4v28.1c0,4-0.9,7.1-2.8,9.1c-1.9,2.1-4.3,3.1-7.2,3.1c-3,0-5.5-1-7.3-3.1c-1.9-2.1-2.8-5.1-2.8-9v-76.5
		c0-4.4,1-7.6,3-9.5c2-1.9,5.3-2.8,9.7-2.8H150c7.6,0,13.5,0.6,17.6,1.8c4.1,1.1,7.6,3,10.5,5.6c3,2.6,5.2,5.8,6.7,9.6
		c1.5,3.8,2.3,8.1,2.3,12.8c0,10.1-3.1,17.8-9.3,23C171.6,150,162.3,152.6,150,152.6z M145.1,107.1h-13.5v30.3h13.5
		c4.7,0,8.7-0.5,11.9-1.5c3.2-1,5.6-2.6,7.3-4.9c1.7-2.3,2.5-5.2,2.5-8.9c0-4.4-1.3-7.9-3.9-10.7C160,108.5,154.1,107.1,145.1,107.1
		z"/>
	<path d="M279.4,161.4c0,6-1.5,11.4-4.6,16.2c-3.1,4.8-7.6,8.5-13.6,11.2c-6,2.7-13,4.1-21.2,4.1c-9.8,0-17.9-1.9-24.2-5.6
		c-4.5-2.7-8.2-6.2-11-10.7c-2.8-4.4-4.2-8.8-4.2-13c0-2.4,0.8-4.5,2.5-6.3c1.7-1.7,3.8-2.6,6.5-2.6c2.1,0,3.9,0.7,5.4,2
		c1.5,1.4,2.7,3.4,3.8,6c1.3,3.2,2.6,5.8,4.1,7.9c1.5,2.1,3.5,3.9,6.2,5.2c2.7,1.4,6.2,2.1,10.5,2.1c6,0,10.8-1.4,14.5-4.2
		c3.7-2.8,5.6-6.2,5.6-10.4c0-3.3-1-6-3-8c-2-2.1-4.6-3.6-7.8-4.7c-3.2-1.1-7.4-2.2-12.8-3.5c-7.1-1.7-13.1-3.6-17.9-5.9
		c-4.8-2.2-8.6-5.3-11.4-9.1c-2.8-3.9-4.2-8.7-4.2-14.4c0-5.5,1.5-10.3,4.5-14.6c3-4.2,7.3-7.5,12.9-9.8c5.6-2.3,12.3-3.4,19.9-3.4
		c6.1,0,11.4,0.8,15.8,2.3c4.4,1.5,8.1,3.5,11.1,6c2.9,2.5,5.1,5.1,6.4,7.9c1.4,2.8,2,5.4,2,8.1c0,2.4-0.8,4.5-2.5,6.5
		c-1.7,1.9-3.8,2.9-6.3,2.9c-2.3,0-4.1-0.6-5.2-1.7c-1.2-1.2-2.5-3-3.9-5.7c-1.8-3.7-4-6.7-6.5-8.8c-2.5-2.1-6.6-3.1-12.2-3.1
		c-5.2,0-9.4,1.1-12.6,3.4c-3.2,2.3-4.8,5-4.8,8.2c0,2,0.5,3.7,1.6,5.1c1.1,1.4,2.6,2.7,4.5,3.7c1.9,1,3.8,1.9,5.8,2.4
		c1.9,0.6,5.1,1.4,9.6,2.6c5.6,1.3,10.7,2.8,15.2,4.3c4.5,1.6,8.4,3.5,11.6,5.8c3.2,2.3,5.7,5.1,7.4,8.6
		C278.5,152.2,279.4,156.4,279.4,161.4z"/>
</g>
</svg>
