<?xml version="1.0" encoding="utf-8"?>
<!-- Generator: Adobe Illustrator 22.1.0, SVG Export Plug-In . SVG Version: 6.00 Build 0)  -->
<svg version="1.1" id="图层_1" xmlns="http://www.w3.org/2000/svg" xmlns:xlink="http://www.w3.org/1999/xlink" x="0px" y="0px"
	 viewBox="0 0 566.9 566.9" style="enable-background:new 0 0 566.9 566.9;" xml:space="preserve">
<g>
	<path d="M187,320c0,6.3-1.6,13.1-4.7,20.4c-3.1,7.3-8,14.5-14.6,21.6c-6.7,7.1-15.1,12.8-25.5,17.2c-10.3,4.4-22.4,6.6-36.1,6.6
		c-10.4,0-19.9-1-28.4-3c-8.5-2-16.3-5.1-23.3-9.2c-7-4.2-13.4-9.7-19.2-16.5c-5.2-6.2-9.7-13.1-13.3-20.8
		c-3.7-7.7-6.5-15.9-8.3-24.6c-1.8-8.7-2.8-18-2.8-27.8c0-15.9,2.3-30.2,6.9-42.7c4.6-12.6,11.3-23.3,19.9-32.3
		c8.6-8.9,18.7-15.8,30.3-20.4c11.6-4.7,24-7,37.1-7c16,0,30.2,3.2,42.7,9.6c12.5,6.4,22.1,14.3,28.7,23.7c6.7,9.4,10,18.3,10,26.6
		c0,4.6-1.6,8.6-4.9,12.1c-3.2,3.5-7.1,5.3-11.7,5.3c-5.1,0-9-1.2-11.5-3.6c-2.6-2.4-5.4-6.6-8.6-12.5c-5.2-9.8-11.3-17.1-18.4-22
		c-7.1-4.9-15.8-7.3-26.1-7.3c-16.4,0-29.6,6.2-39.3,18.7c-9.8,12.5-14.6,30.2-14.6,53.3c0,15.4,2.2,28.2,6.5,38.4
		c4.3,10.2,10.4,17.8,18.3,22.9c7.9,5,17.2,7.6,27.8,7.6c11.5,0,21.2-2.9,29.2-8.6c8-5.7,14-14.1,18-25.1c1.7-5.2,3.8-9.5,6.3-12.7
		c2.5-3.3,6.6-4.9,12.1-4.9c4.8,0,8.9,1.7,12.3,5C185.3,310.9,187,315.1,187,320z"/>
	<path d="M299.8,305.5h-36.7v56c0,8-1.9,14.1-5.7,18.2c-3.8,4.1-8.5,6.2-14.3,6.2c-6,0-10.9-2-14.6-6.1c-3.7-4.1-5.5-10.1-5.5-18
		V209.3c0-8.8,2-15.1,6.1-18.9c4-3.8,10.5-5.7,19.3-5.7h51.4c15.2,0,26.9,1.2,35.1,3.5c8.1,2.2,15.1,6,21,11.2
		c5.9,5.2,10.4,11.6,13.4,19.1c3.1,7.6,4.6,16,4.6,25.5c0,20.1-6.2,35.4-18.6,45.8C342.8,300.3,324.3,305.5,299.8,305.5z
		 M290.1,214.8h-27v60.4h27c9.4,0,17.3-1,23.7-3c6.3-2,11.2-5.2,14.5-9.7c3.3-4.5,5-10.4,5-17.7c0-8.7-2.6-15.8-7.7-21.3
		C319.8,217.8,307.9,214.8,290.1,214.8z"/>
	<path d="M557.4,323.1c0,12-3.1,22.7-9.2,32.2c-6.2,9.5-15.2,17-27,22.4c-11.9,5.4-25.9,8.1-42.2,8.1c-19.5,0-35.6-3.7-48.3-11.1
		c-9-5.3-16.3-12.4-21.9-21.2c-5.6-8.9-8.4-17.5-8.4-25.8c0-4.9,1.7-9,5.1-12.5c3.4-3.5,7.7-5.2,12.9-5.2c4.2,0,7.8,1.3,10.7,4
		c2.9,2.7,5.4,6.7,7.5,12c2.5,6.3,5.2,11.5,8.2,15.8c2.9,4.2,7,7.7,12.3,10.5c5.3,2.7,12.3,4.1,20.9,4.1c11.9,0,21.5-2.8,28.9-8.3
		c7.4-5.5,11.1-12.4,11.1-20.7c0-6.6-2-11.9-6-16c-4-4.1-9.2-7.2-15.5-9.4c-6.3-2.2-14.8-4.4-25.4-6.9c-14.2-3.3-26.1-7.2-35.7-11.7
		c-9.6-4.4-17.2-10.5-22.8-18.2c-5.6-7.7-8.4-17.2-8.4-28.7c0-10.9,3-20.5,8.9-29c5.9-8.4,14.5-14.9,25.8-19.5
		c11.2-4.5,24.4-6.8,39.6-6.8c12.1,0,22.6,1.5,31.5,4.5c8.9,3,16.2,7,22,12c5.8,5,10.1,10.2,12.8,15.7c2.7,5.5,4,10.8,4,16
		c0,4.8-1.7,9.1-5.1,12.9c-3.4,3.8-7.6,5.7-12.6,5.7c-4.6,0-8.1-1.1-10.5-3.4c-2.4-2.3-5-6-7.8-11.3c-3.6-7.5-7.9-13.3-12.9-17.5
		c-5-4.2-13.1-6.3-24.3-6.3c-10.3,0-18.7,2.3-25,6.8c-6.3,4.5-9.5,10-9.5,16.4c0,4,1.1,7.4,3.2,10.2c2.2,2.9,5.1,5.3,8.9,7.4
		c3.8,2.1,7.6,3.7,11.5,4.9c3.9,1.2,10.2,2.9,19.1,5.1c11.1,2.6,21.2,5.5,30.3,8.6c9,3.1,16.7,7,23.1,11.5
		c6.3,4.5,11.3,10.2,14.8,17.1C555.6,304.7,557.4,313.1,557.4,323.1z"/>
</g>
</svg>
