<svg id="图层_1" data-name="图层 1" xmlns="http://www.w3.org/2000/svg" viewBox="0 0 893.79 195.25"><defs><style>.cls-1{fill:#082f40;fill-rule:evenodd;}.cls-2{fill:#e43c61;}</style></defs><path class="cls-1" d="M680.84,84.25c0-14.48-15.45-23.54-20.76-23.54H595V75.94h62.29c7.18,0,8.3,4.81,8.3,11.07s-3.45,8.31-6.92,8.31H618.55c-15.67,0-23.53,17.75-23.53,24.91v26.3h16.61V127.16c0-8.81,2.3-15.23,5.54-15.23h19.38l16.61,34.6h19.38l-18-36h9.69C668.5,110.54,680.84,98.72,680.84,84.25Zm11.07-8.31h34.61v70.59h16.61V75.94H772.2l5.53-16.61H691.91ZM848.33,95.32H808.19c-5.1,0-8.31-5.89-8.31-9.69s3.53-9.69,6.92-9.69h56.75l5.54-16.61H809.57c-13.32,0-26.3,12.94-26.3,27.68s14.81,23.53,18,23.53H840c8.51,0,12.46,5.21,12.46,9.69s-2.37,9.69-5.54,9.69H783.27v16.61h62.29c8.52,0,23.53-10.42,23.53-26.3S853.84,95.32,848.33,95.32Zm-314.21-36-30.45,87.2h18l5.54-18h24.91l5.54-16.61H534.12l12.46-36,24.91,70.59h19.38L559,59.33Zm-54,36v51.21h18V59.33h-18Zm-55.36-36h-18v87.2h18v-34.6h48.44l6.92-16.61H424.77Zm-87.21,18H395.7l5.54-18H340.33c-9.09,0-24.91,12.17-24.91,24.92V123c0,14.93,19.38,23.53,19.38,23.53h60.9l5.54-16.61H343.1c-6.32,0-11.07-5.09-11.07-9.69v-36A6.6,6.6,0,0,1,337.56,77.32Zm-119,0h80.29l6.92-18H218.52Zm81.67,36,5.54-16.61H218.52s1.39,18.22,1.39,29.07,15,20.76,18,20.76h60.91l6.92-16.61H243.44c-6.4,0-6.92-5.09-6.92-8.3v-8.31Z"/><path class="cls-2" d="M102.74,16.53a80.1,80.1,0,1,0,80.1,80.1A80.1,80.1,0,0,0,102.74,16.53Zm56.09,120.92c-1.35-12.42-9.16-12.5-12.42-10.16s-18.77,14.65-29.36,16.94-30.95-.37-42.91-9S51.55,108.72,51.55,92.28s11.83-44,41.79-44c20.82,0,41.78,19.92,41.78,40.66s-7.91,22.38-7.91,30.48,7,9,10.16,9,9-4.31,9-9-5.29-10-9-9c1.71-4.35,6.31-3.39,9-3.39s7.93,5.18,6.77,12.42c7.51-.55,7.57,2.22,9,4.52S163.92,135.34,158.83,137.45Z"/></svg>