<svg width="437" height="180" viewBox="0 0 437 180" fill="none" xmlns="http://www.w3.org/2000/svg">
<path fill-rule="evenodd" clip-rule="evenodd" d="M78.0365 134.539L78.0622 134.582H78.0108L52.3662 90.1998L52.3406 90.1571L52.3662 90.1143L52.3919 90.1571L78.0365 134.539Z" stroke="#CECECE"/>
<path fill-rule="evenodd" clip-rule="evenodd" d="M180.743 45.7239L180.717 45.7666L155.073 90.1571H155.022L129.377 45.7666L129.351 45.7239H78.0621L103.732 1.29922H155.073L180.743 45.7239Z" stroke="#F2F2F2"/>
<path d="M129.274 134.813L154.808 179.006H103.732" stroke="#F2F2F2"/>
<path fill-rule="evenodd" clip-rule="evenodd" d="M78.0621 134.283L52.3918 178.707L26.7216 134.283H26.6702L1.02563 89.9007L1.05131 89.8579H52.3918L78.0364 134.24L78.0621 134.283Z" stroke="#F2F2F2"/>
<path fill-rule="evenodd" clip-rule="evenodd" d="M155.022 1L129.377 45.3819L129.351 45.4246H78.0108L52.3662 1.04275L52.3919 1H155.022Z" stroke="#F2F2F2"/>
<path fill-rule="evenodd" clip-rule="evenodd" d="M206.362 89.8578L206.259 90.0459L206.148 89.8578H155.022L129.377 45.4674L129.351 45.4246H180.692L180.718 45.4674L206.362 89.8578Z" stroke="#F2F2F2"/>
<path fill-rule="evenodd" clip-rule="evenodd" d="M129.403 134.283L129.274 134.513L103.732 178.707L78.0621 134.283H129.137L129.249 134.095L129.274 134.052L129.377 134.24L129.403 134.283Z" stroke="#F2F2F2"/>
<path fill-rule="evenodd" clip-rule="evenodd" d="M103.732 178.707H52.3919L26.7217 134.282L52.3663 89.9006L52.3919 89.8578L78.0365 134.24L78.0622 134.282L103.732 178.707Z" stroke="#F2F2F2"/>
<path fill-rule="evenodd" clip-rule="evenodd" d="M129.403 45.4246L129.377 45.4674L129.351 45.4246H78.0109L52.3663 89.8151L26.7217 45.4246L52.3663 1.04275L52.3919 1H103.732L129.377 45.3819L129.403 45.4246Z" stroke="#F2F2F2"/>
<path fill-rule="evenodd" clip-rule="evenodd" d="M78.0364 134.24L78.0108 134.282H26.6703L1.02567 89.9006L1 89.8578L26.6703 45.4246H78.0108L52.3662 89.8151L52.3919 89.8578L78.0364 134.24Z" stroke="#F2F2F2"/>
<path d="M41.7879 125.552H83.1133L103.776 161.296H62.4513L41.7879 125.552L21.1254 89.8143L41.7881 54.0769L62.4508 89.8143L83.1134 54.0773H124.439L103.776 18.3399H145.101L165.764 54.077L186.427 89.8143H145.102L124.439 54.0773L103.776 18.3399H62.451L41.7876 54.0773L62.4508 89.8143L83.1133 125.552L41.7884 125.552L41.7879 125.552ZM124.439 125.552L145.101 161.296L103.776 161.296L83.1133 125.552L124.439 125.552Z" fill="url(#paint0_linear_7_224)"/>
<mask id="mask0_7_224" style="mask-type:luminance" maskUnits="userSpaceOnUse" x="21" y="18" width="166" height="144">
<path d="M41.7879 125.552H83.1133L103.776 161.296H62.4513L41.7879 125.552L21.1254 89.8143L41.7881 54.0769L62.4508 89.8143L83.1134 54.0773H124.439H124.439L103.776 18.3399H145.101L165.764 54.077H165.764L186.427 89.8143H145.102L124.439 54.0773L103.776 18.3399L95.5109 32.6348L103.776 18.3399H62.451L41.7876 54.0773L62.4508 89.8144L58.3183 96.9619L62.4508 89.8144L83.1135 125.552H41.7884L41.7879 125.552ZM114.746 142.319L124.439 125.552L145.101 161.296H103.776L83.1135 125.552H124.439L114.746 142.319Z" fill="white"/>
</mask>
<g mask="url(#mask0_7_224)">
<path d="M-49.0515 63.4765C-42.3072 66.7774 -0.765886 136.064 54.7075 116.429C110.181 96.794 101.552 -29.8649 217.076 28.0805C332.601 86.0258 112.72 237.778 112.72 237.778L-82.6617 163.918C-82.6617 163.918 -55.7959 60.1755 -49.0515 63.4765Z" fill="url(#paint1_linear_7_224)"/>
</g>
<path d="M94.087 110.622L83.7556 92.7529L94.087 74.8835H114.75L125.081 92.7529L114.75 110.622H94.087Z" fill="url(#paint2_linear_7_224)"/>
<path d="M217.82 123.892V27.5061H275.991V37.8601H229.492V70.428H272.979V80.782H229.492V113.538H276.744V123.892H217.82Z" fill="black"/>
<path d="M324.701 152.507C319.336 152.507 314.724 151.816 310.865 150.436C307.005 149.087 303.789 147.298 301.217 145.071C298.675 142.874 296.651 140.521 295.145 138.011L303.993 131.799C304.997 133.117 306.268 134.623 307.806 136.317C309.343 138.043 311.445 139.533 314.112 140.788C316.81 142.074 320.34 142.717 324.701 142.717C330.537 142.717 335.353 141.306 339.15 138.482C342.946 135.658 344.844 131.234 344.844 125.21V110.526H343.903C343.087 111.844 341.927 113.475 340.42 115.421C338.946 117.335 336.812 119.045 334.02 120.551C331.259 122.025 327.525 122.763 322.819 122.763C316.983 122.763 311.743 121.382 307.1 118.621C302.487 115.86 298.832 111.844 296.134 106.573C293.467 101.302 292.133 94.901 292.133 87.3709C292.133 79.9662 293.435 73.5185 296.04 68.0278C298.644 62.5057 302.268 58.2386 306.911 55.2265C311.555 52.1831 316.92 50.6614 323.007 50.6614C327.713 50.6614 331.447 51.4457 334.208 53.0145C337.001 54.5519 339.134 56.309 340.609 58.2856C342.115 60.2309 343.276 61.8311 344.091 63.0861H345.221V51.6026H355.951V125.963C355.951 132.175 354.54 137.227 351.716 141.117C348.923 145.039 345.158 147.91 340.42 149.73C335.714 151.581 330.474 152.507 324.701 152.507ZM324.325 112.785C328.78 112.785 332.545 111.765 335.62 109.726C338.695 107.687 341.032 104.753 342.632 100.925C344.233 97.0973 345.033 92.5165 345.033 87.1826C345.033 81.9742 344.248 77.3777 342.68 73.393C341.111 69.4083 338.789 66.2864 335.714 64.0274C332.639 61.7683 328.843 60.6388 324.325 60.6388C319.618 60.6388 315.696 61.8311 312.559 64.2156C309.453 66.6002 307.115 69.8005 305.546 73.8166C304.009 77.8327 303.24 82.288 303.24 87.1826C303.24 92.2027 304.025 96.6423 305.594 100.502C307.194 104.329 309.547 107.341 312.653 109.538C315.791 111.703 319.681 112.785 324.325 112.785Z" fill="black"/>
<path d="M405.462 152.507C400.097 152.507 395.485 151.816 391.626 150.436C387.766 149.087 384.55 147.298 381.978 145.071C379.436 142.874 377.412 140.521 375.906 138.011L384.754 131.799C385.758 133.117 387.029 134.623 388.566 136.317C390.104 138.043 392.206 139.533 394.873 140.788C397.571 142.074 401.101 142.717 405.462 142.717C411.298 142.717 416.114 141.306 419.911 138.482C423.707 135.658 425.605 131.234 425.605 125.21V110.526H424.664C423.848 111.844 422.687 113.475 421.181 115.421C419.707 117.335 417.573 119.045 414.781 120.551C412.02 122.025 408.286 122.763 403.58 122.763C397.744 122.763 392.504 121.382 387.86 118.621C383.248 115.86 379.593 111.844 376.895 106.573C374.228 101.302 372.894 94.901 372.894 87.3709C372.894 79.9662 374.196 73.5185 376.801 68.0278C379.405 62.5057 383.029 58.2386 387.672 55.2265C392.316 52.1831 397.681 50.6614 403.768 50.6614C408.474 50.6614 412.208 51.4457 414.969 53.0145C417.761 54.5519 419.895 56.309 421.37 58.2856C422.876 60.2309 424.037 61.8311 424.852 63.0861H425.982V51.6026H436.712V125.963C436.712 132.175 435.3 137.227 432.477 141.117C429.684 145.039 425.919 147.91 421.181 149.73C416.475 151.581 411.235 152.507 405.462 152.507ZM405.086 112.785C409.541 112.785 413.306 111.765 416.381 109.726C419.456 107.687 421.793 104.753 423.393 100.925C424.994 97.0973 425.794 92.5165 425.794 87.1826C425.794 81.9742 425.009 77.3777 423.44 73.393C421.872 69.4083 419.55 66.2864 416.475 64.0274C413.4 61.7683 409.604 60.6388 405.086 60.6388C400.379 60.6388 396.457 61.8311 393.32 64.2156C390.214 66.6002 387.876 69.8005 386.307 73.8166C384.77 77.8327 384.001 82.288 384.001 87.1826C384.001 92.2027 384.786 96.6423 386.354 100.502C387.955 104.329 390.308 107.341 393.414 109.538C396.552 111.703 400.442 112.785 405.086 112.785Z" fill="black"/>
<defs>
<linearGradient id="paint0_linear_7_224" x1="8286.21" y1="18.3399" x2="8286.21" y2="13957" gradientUnits="userSpaceOnUse">
<stop stop-color="#52D057"/>
<stop offset="1" stop-color="#5686DC"/>
</linearGradient>
<linearGradient id="paint1_linear_7_224" x1="16581.8" y1="13.0277" x2="16581.8" y2="22488.1" gradientUnits="userSpaceOnUse">
<stop stop-color="#33B64D"/>
<stop offset="1" stop-color="#30A7D8"/>
</linearGradient>
<linearGradient id="paint2_linear_7_224" x1="2150.03" y1="74.8835" x2="2150.03" y2="3648.76" gradientUnits="userSpaceOnUse">
<stop stop-color="#33B36C"/>
<stop offset="1" stop-color="#208B5D"/>
</linearGradient>
</defs>
</svg>
