<svg width="485" height="128" viewBox="0 0 485 128" fill="none" xmlns="http://www.w3.org/2000/svg">
	<g clip-path="url(#clip0_1_15)">
		<path
			d="M64 128C99.3462 128 128 99.3462 128 64C128 28.6538 99.3462 0 64 0C28.6538 0 0 28.6538 0 64C0 99.3462 28.6538 128 64 128Z"
			fill="#2F3242" />
		<path
			d="M51.3954 39.5028C52.3733 39.6812 53.3108 39.033 53.4892 38.055C53.6676 37.0771 53.0194 36.1396 52.0414 35.9612L51.3954 39.5028ZM28.9393 60.9358C29.4332 61.7985 30.5329 62.0976 31.3957 61.6037C32.2585 61.1098 32.5575 60.0101 32.0636 59.1473L28.9393 60.9358ZM37.6935 66.7457C37.025 66.01 35.8866 65.9554 35.1508 66.6239C34.415 67.2924 34.3605 68.4308 35.029 69.1666L37.6935 66.7457ZM96.9206 89.515C97.7416 88.9544 97.9526 87.8344 97.3919 87.0135C96.8313 86.1925 95.7113 85.9815 94.8904 86.5422L96.9206 89.515ZM52.0414 35.9612C46.4712 34.9451 41.2848 34.8966 36.9738 35.9376C32.6548 36.9806 29.0841 39.1576 27.0559 42.6762L30.1748 44.4741C31.5693 42.0549 34.1448 40.3243 37.8188 39.4371C41.5009 38.5479 46.1547 38.5468 51.3954 39.5028L52.0414 35.9612ZM27.0559 42.6762C24.043 47.9029 25.2781 54.5399 28.9393 60.9358L32.0636 59.1473C28.6579 53.1977 28.1088 48.0581 30.1748 44.4741L27.0559 42.6762ZM35.029 69.1666C39.6385 74.24 45.7158 79.1355 52.8478 83.2597L54.6499 80.1432C47.8081 76.1868 42.0298 71.5185 37.6935 66.7457L35.029 69.1666ZM52.8478 83.2597C61.344 88.1726 70.0465 91.2445 77.7351 92.3608C85.359 93.4677 92.2744 92.6881 96.9206 89.515L94.8904 86.5422C91.3255 88.9767 85.4902 89.849 78.2524 88.7982C71.0793 87.7567 62.809 84.8612 54.6499 80.1432L52.8478 83.2597ZM105.359 84.9077C105.359 81.4337 102.546 78.6127 99.071 78.6127V82.2127C100.553 82.2127 101.759 83.4166 101.759 84.9077H105.359ZM99.071 78.6127C95.5956 78.6127 92.7831 81.4337 92.7831 84.9077H96.3831C96.3831 83.4166 97.5892 82.2127 99.071 82.2127V78.6127ZM92.7831 84.9077C92.7831 88.3817 95.5956 91.2027 99.071 91.2027V87.6027C97.5892 87.6027 96.3831 86.3988 96.3831 84.9077H92.7831ZM99.071 91.2027C102.546 91.2027 105.359 88.3817 105.359 84.9077H101.759C101.759 86.3988 100.553 87.6027 99.071 87.6027V91.2027Z"
			fill="#A2ECFB" />
		<path
			d="M91.4873 65.382C90.8456 66.1412 90.9409 67.2769 91.7002 67.9186C92.4594 68.5603 93.5951 68.465 94.2368 67.7058L91.4873 65.382ZM84.507 35.2412C83.513 35.2282 82.6967 36.0236 82.6838 37.0176C82.6708 38.0116 83.4661 38.8279 84.4602 38.8409L84.507 35.2412ZM74.9407 39.8801C75.9127 39.6716 76.5315 38.7145 76.323 37.7425C76.1144 36.7706 75.1573 36.1517 74.1854 36.3603L74.9407 39.8801ZM25.5491 80.9047C25.6932 81.8883 26.6074 82.5688 27.5911 82.4247C28.5747 82.2806 29.2552 81.3664 29.1111 80.3828L25.5491 80.9047ZM94.2368 67.7058C97.8838 63.3907 100.505 58.927 101.752 54.678C103.001 50.4213 102.9 46.2472 100.876 42.7365L97.7574 44.5344C99.1494 46.9491 99.3603 50.0419 98.2974 53.6644C97.2323 57.2945 94.9184 61.3223 91.4873 65.382L94.2368 67.7058ZM100.876 42.7365C97.9119 37.5938 91.7082 35.335 84.507 35.2412L84.4602 38.8409C91.1328 38.9278 95.7262 41.0106 97.7574 44.5344L100.876 42.7365ZM74.1854 36.3603C67.4362 37.8086 60.0878 40.648 52.8826 44.8146L54.6847 47.931C61.5972 43.9338 68.5948 41.2419 74.9407 39.8801L74.1854 36.3603ZM52.8826 44.8146C44.1366 49.872 36.9669 56.0954 32.1491 62.3927C27.3774 68.63 24.7148 75.2115 25.5491 80.9047L29.1111 80.3828C28.4839 76.1026 30.4747 70.5062 35.0084 64.5802C39.496 58.7143 46.2839 52.7889 54.6847 47.931L52.8826 44.8146Z"
			fill="#A2ECFB" />
		<path
			d="M49.0825 87.2295C48.7478 86.2934 47.7176 85.8059 46.7816 86.1406C45.8455 86.4753 45.358 87.5055 45.6927 88.4416L49.0825 87.2295ZM78.5635 96.4256C79.075 95.5732 78.7988 94.4675 77.9464 93.9559C77.0941 93.4443 75.9884 93.7205 75.4768 94.5729L78.5635 96.4256ZM79.5703 85.1795C79.2738 86.1284 79.8027 87.1379 80.7516 87.4344C81.7004 87.7308 82.71 87.2019 83.0064 86.2531L79.5703 85.1795ZM69.156 22.5301C68.2477 22.1261 67.1838 22.535 66.7799 23.4433C66.3759 24.3517 66.7848 25.4155 67.6931 25.8194L69.156 22.5301ZM45.6927 88.4416C47.5994 93.7741 50.1496 98.2905 53.2032 101.505C56.2623 104.724 59.9279 106.731 63.9835 106.731V103.131C61.1984 103.131 58.4165 101.765 55.8131 99.0249C53.2042 96.279 50.8768 92.2477 49.0825 87.2295L45.6927 88.4416ZM63.9835 106.731C69.8694 106.731 74.8921 102.542 78.5635 96.4256L75.4768 94.5729C72.0781 100.235 68.0122 103.131 63.9835 103.131V106.731ZM83.0064 86.2531C85.0269 79.7864 86.1832 72.1831 86.1832 64.0673H82.5832C82.5832 71.8536 81.4723 79.0919 79.5703 85.1795L83.0064 86.2531ZM86.1832 64.0673C86.1832 54.1144 84.4439 44.922 81.4961 37.6502C78.5748 30.4436 74.3436 24.8371 69.156 22.5301L67.6931 25.8194C71.6364 27.5731 75.3846 32.1564 78.1598 39.0026C80.9086 45.7836 82.5832 54.507 82.5832 64.0673H86.1832Z"
			fill="#A2ECFB" />
		<path fill-rule="evenodd" clip-rule="evenodd"
			d="M103.559 84.9077C103.559 82.4252 101.55 80.4127 99.071 80.4127C96.5924 80.4127 94.5831 82.4252 94.5831 84.9077C94.5831 87.3902 96.5924 89.4027 99.071 89.4027C101.55 89.4027 103.559 87.3902 103.559 84.9077Z"
			stroke="#A2ECFB" stroke-width="3.6" stroke-linecap="round" />
		<path fill-rule="evenodd" clip-rule="evenodd"
			d="M28.8143 89.4027C31.2929 89.4027 33.3023 87.3902 33.3023 84.9077C33.3023 82.4252 31.2929 80.4127 28.8143 80.4127C26.3357 80.4127 24.3264 82.4252 24.3264 84.9077C24.3264 87.3902 26.3357 89.4027 28.8143 89.4027Z"
			stroke="#A2ECFB" stroke-width="3.6" stroke-linecap="round" />
		<path
			d="M63.9835 27.6986C66.4621 27.6986 68.4714 25.6861 68.4714 23.2036C68.4714 20.7211 66.4621 18.7086 63.9835 18.7086C61.5049 18.7086 59.4956 20.7211 59.4956 23.2036C59.4956 25.6861 61.5049 27.6986 63.9835 27.6986Z"
			stroke="#A2ECFB" stroke-width="3.6" stroke-linecap="round" />
		<path fill-rule="evenodd" clip-rule="evenodd"
			d="M64.8501 68.0857C62.6341 68.5652 60.451 67.1547 59.9713 64.9353C59.4934 62.7159 60.9007 60.5293 63.1167 60.0489C65.3326 59.5693 67.5157 60.9798 67.9954 63.1992C68.4742 65.4186 67.066 67.6052 64.8501 68.0857Z"
			fill="#A2ECFB" />
	</g>
	<path
		d="M193 83.224V91H156.52V25.72H192.04V33.592H164.872V54.04H189.16V61.912H164.872V83.224H193Z"
		fill="black" />
	<path
		d="M205.696 79.48V19.96H213.568V79.096C213.568 80.824 213.824 82.136 214.336 83.032C214.912 83.864 216.032 84.28 217.696 84.28H219.232V91.48H217.024C212.8 91.48 209.856 90.36 208.192 88.12C206.528 85.88 205.696 83 205.696 79.48Z"
		fill="black" />
	<path
		d="M265.568 88.216C262.688 89.624 259.808 90.584 256.928 91.096C254.048 91.672 251.392 91.96 248.96 91.96C242.112 91.96 236.992 90.008 233.6 86.104C230.272 82.2 228.608 76.856 228.608 70.072V64.312C228.608 57.72 230.272 52.44 233.6 48.472C236.992 44.504 241.76 42.52 247.904 42.52C251.168 42.52 254.144 43.192 256.832 44.536C259.584 45.816 261.76 47.8 263.36 50.488C265.024 53.112 265.856 56.504 265.856 60.664C265.856 63.352 265.472 66.424 264.704 69.88H236.384V70.072C236.384 74.936 237.376 78.616 239.36 81.112C241.408 83.608 244.672 84.856 249.152 84.856C251.2 84.856 253.44 84.6 255.872 84.088C258.368 83.576 260.8 82.776 263.168 81.688L265.568 88.216ZM247.904 49.432C244.192 49.432 241.376 50.648 239.456 53.08C237.6 55.448 236.576 58.808 236.384 63.16H257.888C258.08 62.008 258.176 60.92 258.176 59.896C258.176 56.312 257.152 53.688 255.104 52.024C253.12 50.296 250.72 49.432 247.904 49.432Z"
		fill="black" />
	<path
		d="M285.047 64.408V70.072C285.047 74.936 285.943 78.616 287.735 81.112C289.527 83.544 292.375 84.76 296.279 84.76C300.119 84.76 304.247 83.768 308.663 81.784L311.063 88.408C305.815 90.776 300.727 91.96 295.799 91.96C289.655 91.96 284.983 90.008 281.783 86.104C278.583 82.2 276.983 76.856 276.983 70.072V64.408C276.983 57.624 278.583 52.28 281.783 48.376C284.983 44.472 289.655 42.52 295.799 42.52C298.103 42.52 300.471 42.84 302.903 43.48C305.399 44.056 307.895 44.888 310.391 45.976L307.991 52.696C305.879 51.8 303.831 51.096 301.847 50.584C299.927 50.072 298.071 49.816 296.279 49.816C292.375 49.816 289.527 51.064 287.735 53.56C285.943 55.992 285.047 59.608 285.047 64.408Z"
		fill="black" />
	<path
		d="M348.716 89.272C345.132 91.064 341.324 91.96 337.292 91.96C333.836 91.96 331.116 91.256 329.132 89.848C327.212 88.44 325.836 86.552 325.004 84.184C324.236 81.816 323.852 79.192 323.852 76.312V50.392H315.596V43.48H323.852V30.232H331.724V43.48H347.276V50.392H331.724V76.024C331.724 79.352 332.268 81.656 333.356 82.936C334.508 84.152 336.268 84.76 338.636 84.76C339.788 84.76 340.972 84.632 342.188 84.376C343.468 84.056 344.844 83.544 346.316 82.84L348.716 89.272Z"
		fill="black" />
	<path
		d="M384.033 50.392C381.153 50.392 378.337 50.904 375.585 51.928C372.897 52.952 370.017 54.904 366.945 57.784V91H359.073V43.48H366.561V51.16C369.825 47.96 372.801 45.72 375.489 44.44C378.241 43.16 381.089 42.52 384.033 42.52V50.392Z"
		fill="black" />
	<path
		d="M431.955 64.312V70.072C431.955 76.856 430.195 82.2 426.675 86.104C423.219 90.008 418.259 91.96 411.795 91.96C405.395 91.96 400.435 90.008 396.915 86.104C393.395 82.2 391.635 76.856 391.635 70.072V64.312C391.635 57.656 393.363 52.376 396.819 48.472C400.339 44.504 405.331 42.52 411.795 42.52C418.259 42.52 423.219 44.504 426.675 48.472C430.195 52.376 431.955 57.656 431.955 64.312ZM423.795 64.312C423.795 59.768 422.771 56.216 420.723 53.656C418.675 51.032 415.699 49.72 411.795 49.72C407.955 49.72 404.979 51.032 402.867 53.656C400.819 56.216 399.795 59.768 399.795 64.312V70.072C399.795 74.808 400.819 78.456 402.867 81.016C404.979 83.576 407.955 84.856 411.795 84.856C415.699 84.856 418.675 83.576 420.723 81.016C422.771 78.456 423.795 74.808 423.795 70.072V64.312Z"
		fill="black" />
	<path
		d="M469.108 49.912C467.316 49.912 465.204 50.36 462.772 51.256C460.404 52.152 457.525 53.976 454.133 56.728V91H446.26V43.48H453.749V50.104C457.141 47.224 460.213 45.24 462.965 44.152C465.781 43.064 468.469 42.52 471.029 42.52C475.445 42.52 478.804 43.928 481.108 46.744C483.476 49.496 484.66 53.432 484.66 58.552V91H476.788V59.704C476.788 53.176 474.228 49.912 469.108 49.912Z"
		fill="black" />
	<defs>
		<clipPath id="clip0_1_15">
			<rect width="128" height="128" fill="white" />
		</clipPath>
	</defs>
</svg>