<svg width="615" height="115" viewBox="0 0 615 115" fill="none" xmlns="http://www.w3.org/2000/svg">
    <path
        d="M57.7195 6.33783e-08C50.1401 -0.000354051 42.6347 1.48345 35.632 4.36669C28.6294 7.24993 22.2665 11.4761 16.9068 16.804C11.547 22.1319 7.29533 28.4571 4.39446 35.4186C1.49359 42.38 0.000351135 49.8412 6.5037e-07 57.3764C-0.00113729 64.9124 1.491 72.3749 4.3912 79.3376C7.29141 86.3003 11.5429 92.6269 16.9028 97.956C22.2627 103.285 28.626 107.512 35.6294 110.396C42.6328 113.28 50.1391 114.764 57.7195 114.764C65.3 114.764 72.8062 113.28 79.8097 110.396C86.8131 107.512 93.1764 103.285 98.5363 97.956C103.896 92.6269 108.148 86.3003 111.048 79.3376C113.948 72.3749 115.44 64.9124 115.439 57.3764C115.439 49.8412 113.945 42.38 111.045 35.4186C108.144 28.4571 103.892 22.1319 98.5323 16.804C93.1726 11.4761 86.8097 7.24993 79.807 4.36669C72.8044 1.48345 65.299 -0.00035408 57.7195 6.33783e-08ZM53.7323 25.9788H90.047L53.5854 51.5407H78.5144L25.3921 88.774L36.9247 63.2233L42.1996 51.5407L53.7323 25.9788Z"
        fill="#05988A" />
    <path
        d="M149.868 105.323V7.4259H207.006V17.7914H162.566V51.1915H198.594V61.557H162.566V105.323H149.868Z"
        fill="#05988A" />
    <path
        d="M246.838 107.338C237.209 107.338 229.591 104.075 223.983 97.5484C218.48 90.926 215.729 81.9521 215.729 70.6268C215.729 62.9487 217.369 56.1823 220.65 50.3277C224.035 44.3771 228.691 39.7222 234.617 36.363C240.542 33.0038 247.261 31.3242 254.774 31.3242C259.641 31.3242 264.667 32.092 269.852 33.6277C275.142 35.1633 279.798 37.1788 283.819 39.6742V90.926L285.406 105.323L274.931 106.042L272.074 93.0855C269.323 97.5964 265.778 101.1 261.44 103.595C257.101 106.09 252.234 107.338 246.838 107.338ZM249.218 97.5484C255.99 97.5484 261.44 94.5731 265.566 88.6226C269.693 82.576 271.756 74.6099 271.756 64.7242V44.713C266.466 42.3136 260.805 41.1139 254.774 41.1139C249.589 41.1139 244.933 42.3616 240.807 44.857C236.786 47.3524 233.611 50.8556 231.284 55.3665C228.956 59.7814 227.792 64.8682 227.792 70.6268C227.792 78.8809 229.696 85.4553 233.506 90.3501C237.421 95.149 242.658 97.5484 249.218 97.5484Z"
        fill="#05988A" />
    <path
        d="M332.458 107.338C327.273 107.338 322.247 106.474 317.38 104.747C312.512 103.019 308.227 100.668 304.524 97.6924L311.031 89.7743C313.676 92.0777 316.956 93.9493 320.871 95.3889C324.786 96.7326 328.649 97.4045 332.458 97.4045C337.431 97.4045 341.399 96.3487 344.361 94.2372C347.43 92.1257 348.964 89.3424 348.964 85.8872C348.964 82.9119 347.694 80.4645 345.155 78.545C342.616 76.6254 338.277 74.8978 332.14 73.3622C326.109 71.7306 321.295 70.003 317.697 68.1794C314.205 66.3559 311.719 64.1964 310.237 61.701C308.756 59.1096 308.015 56.0383 308.015 52.4872C308.015 46.2487 310.396 41.1619 315.158 37.2268C320.025 33.2917 326.321 31.3242 334.045 31.3242C336.479 31.3242 339.124 31.5642 341.981 32.044C344.943 32.4279 347.747 33.0038 350.393 33.7716C353.144 34.4435 355.366 35.2593 357.059 36.219L352.615 45.0009C350.498 43.9452 347.642 43.0814 344.044 42.4096C340.446 41.6417 337.113 41.2578 334.045 41.2578C330.024 41.2578 326.691 42.2176 324.046 44.1372C321.4 46.0567 320.078 48.5041 320.078 51.4794C320.078 54.1668 321.189 56.3262 323.411 57.9579C325.739 59.5895 329.812 61.1731 335.632 62.7087C345.049 65.2041 351.609 68.1314 355.313 71.4906C359.122 74.8498 361.027 79.5047 361.027 85.4553C361.027 92.0777 358.434 97.4045 353.25 101.436C348.065 105.371 341.134 107.338 332.458 107.338Z"
        fill="#05988A" />
    <path
        d="M399.7 107.338C393.986 107.338 389.807 105.946 387.162 103.163C384.516 100.284 383.194 95.7728 383.194 89.6303V42.6975H371.131V33.3397H383.194L387.003 11.7449H395.256V33.3397H413.826V42.6975H395.256V89.6303C395.256 94.9091 397.637 97.5484 402.398 97.5484C405.996 97.5484 409.911 96.1568 414.143 93.3734L418.587 100.716C412.45 105.131 406.155 107.338 399.7 107.338Z"
        fill="#05988A" />
    <path
        d="M419.072 105.323L455.418 7.4259H470.972L507.318 105.323H494.145L483.67 76.5294H442.721L432.246 105.323H419.072ZM446.371 66.1639H479.861L463.195 20.0949L446.371 66.1639Z"
        fill="#05988A" />
    <path
        d="M521.55 105.323V7.4259H555.039C561.07 7.4259 566.519 8.72159 571.387 11.313C576.254 13.9044 580.116 17.4075 582.973 21.8225C585.83 26.2374 587.258 31.1802 587.258 36.6509C587.258 42.0257 585.83 46.9685 582.973 51.4794C580.116 55.8944 576.254 59.3975 571.387 61.9889C566.519 64.5803 561.07 65.876 555.039 65.876H534.247V105.323H521.55ZM534.247 55.3665H554.563C558.266 55.3665 561.599 54.5507 564.562 52.9191C567.63 51.1915 570.064 48.888 571.863 46.0087C573.767 43.1294 574.72 40.0101 574.72 36.6509C574.72 33.1958 573.767 30.0765 571.863 27.2932C570.064 24.4138 567.63 22.1584 564.562 20.5268C561.599 18.7992 558.266 17.9354 554.563 17.9354H534.247V55.3665Z"
        fill="#05988A" />
    <path d="M602.303 105.323V7.4259H615V105.323H602.303Z" fill="#05988A" />
</svg>