<svg width="440" height="152" viewBox="0 0 440 152" fill="none" xmlns="http://www.w3.org/2000/svg">
    <path
        d="M76.1488 15.8333C71.2247 15.8492 67.811 16.283 63.6848 16.9955C51.4995 19.1172 49.2797 23.5727 49.2797 31.7838V44.3333H77.7797V50.6667H48.1967H34.4217C26.0743 50.6667 18.7688 54.5997 16.454 64.0268C13.8383 74.8473 13.7212 81.624 16.454 92.9227C18.5282 101.349 23.0977 107.667 31.4482 107.667H42.9495V91.504C42.9495 82.1117 51.4552 72.8333 61.2022 72.8333H84.1162C92.1057 72.8333 99.9495 66.937 99.9495 58.9728V31.7838C99.9495 24.0603 94.3793 18.2843 86.5925 16.9892C86.7857 16.9702 81.0318 15.8143 76.1488 15.8333ZM60.3662 28.5C62.966 28.5 65.1162 30.6438 65.1162 33.2563C65.1162 35.8942 62.966 38 60.3662 38C57.7157 38 55.6162 35.8973 55.6162 33.2563C55.6162 30.6533 57.7157 28.5 60.3662 28.5Z"
        fill="url(#pathon_svg_paint0_linear_2_17)" />
    <path
        d="M73.0803 136.167C78.0045 136.151 81.4182 135.717 85.5443 135.005C97.7297 132.883 99.9495 128.427 99.9495 120.216V107.667H71.4495V101.333H101.036H114.811C123.158 101.333 130.463 97.4003 132.778 87.9732C135.394 77.1527 135.511 70.376 132.778 59.0773C130.701 50.6508 126.131 44.3333 117.781 44.3333H106.28V60.496C106.28 69.8883 97.774 79.1667 88.027 79.1667H65.113C57.1235 79.1667 49.2797 85.063 49.2797 93.0272V120.216C49.2797 127.94 54.8498 133.716 62.6367 135.011C62.4435 135.03 68.1973 136.186 73.0803 136.167ZM88.8662 123.5C86.2663 123.5 84.1162 121.356 84.1162 118.744C84.1162 116.106 86.2663 114 88.8662 114C91.5167 114 93.6162 116.103 93.6162 118.744C93.6162 121.347 91.5135 123.5 88.8662 123.5Z"
        fill="url(#pathon_svg_paint1_linear_2_17)" />
    <path
        d="M182.624 81.304C180.128 81.304 178.016 81.24 176.288 81.112C174.624 80.92 172.416 80.632 169.664 80.248L169.568 90.328C169.504 92.056 169.472 94.52 169.472 97.72C169.472 99.384 168.992 100.696 168.032 101.656C167.136 102.552 166.112 103 164.96 103C162.848 103 161.28 102.744 160.256 102.232C159.232 101.656 158.72 100.664 158.72 99.256C158.72 97.4 158.88 94.776 159.2 91.384C159.904 84.088 160.256 76.6 160.256 68.92C160.256 61.752 160.032 55 159.584 48.664C159.648 47.768 160.096 46.744 160.928 45.592C161.824 44.44 162.944 43.8 164.288 43.672C165.76 43.672 168.096 43.416 171.296 42.904C174.624 42.392 177.152 42.136 178.88 42.136C184.128 42.136 188.192 42.648 191.072 43.672C194.016 44.696 196.96 46.392 199.904 48.76C203.104 53.752 204.704 57.272 204.704 59.32C204.704 63.608 203.84 67.416 202.112 70.744C200.384 74.072 197.856 76.664 194.528 78.52C191.2 80.376 187.232 81.304 182.624 81.304ZM180.416 50.296C178.368 50.296 176.576 50.424 175.04 50.68C173.568 50.872 171.776 51.224 169.664 51.736C169.92 57.624 170.048 61.912 170.048 64.6C170.048 67.352 169.952 69.656 169.76 71.512C172.512 72.088 174.688 72.472 176.288 72.664C177.888 72.792 179.68 72.856 181.664 72.856C186.4 72.856 189.728 71.64 191.648 69.208C193.632 66.712 194.624 63.832 194.624 60.568C194.624 59.608 194.336 58.424 193.76 57.016C193.184 55.608 192.672 54.68 192.224 54.232C190.496 52.696 188.8 51.672 187.136 51.16C185.536 50.584 183.296 50.296 180.416 50.296Z"
        fill="black" />
    <path
        d="M221.552 122.584C219.12 122.584 217.072 122.168 215.408 121.336C213.808 120.568 212.592 119.608 211.76 118.456C210.992 117.368 210.608 116.408 210.608 115.576C210.608 114.488 210.992 113.624 211.76 112.984C212.528 112.408 213.456 112.12 214.544 112.12C215.184 112.12 215.792 112.312 216.368 112.696C216.944 113.08 217.264 113.304 217.328 113.368C217.776 113.688 218.224 113.944 218.672 114.136C219.12 114.392 219.6 114.52 220.112 114.52C221.52 114.52 222.672 113.592 223.568 111.736C224.464 109.88 225.36 106.872 226.256 102.712C223.376 98.488 220.976 94.264 219.056 90.04L216.848 84.952C216.528 84.184 215.632 82.2 214.16 79C212.752 75.736 211.344 72.856 209.936 70.36C209.04 68.568 208.592 67.352 208.592 66.712C208.592 65.112 209.136 63.928 210.224 63.16C211.376 62.392 212.688 62.008 214.16 62.008C215.184 62.008 215.952 62.232 216.464 62.68C217.04 63.064 217.68 63.8 218.384 64.888C220.24 67.96 222.256 72.568 224.432 78.712C225.712 82.232 226.736 84.92 227.504 86.776C228.272 88.568 229.2 90.392 230.288 92.248C231.376 89.752 232.752 85.496 234.416 79.48C235.44 76.024 236.272 73.272 236.912 71.224C237.616 69.112 238.384 67.192 239.216 65.464C239.792 64.312 240.496 63.384 241.328 62.68C242.224 61.976 243.216 61.624 244.304 61.624C245.392 61.624 246.544 62.04 247.76 62.872C249.04 63.64 249.68 64.568 249.68 65.656C249.68 66.296 249.456 67.064 249.008 67.96C246.512 73.72 244.304 79.16 242.384 84.28C240.528 89.336 238.736 94.904 237.008 100.984C235.984 104.376 234.896 107.608 233.744 110.68C232.656 113.752 231.888 115.64 231.44 116.344C230.16 118.136 228.72 119.608 227.12 120.76C225.52 121.976 223.664 122.584 221.552 122.584Z"
        fill="black" />
    <path
        d="M256.088 69.592C255.192 69.464 254.456 69.112 253.88 68.536C253.368 67.896 253.112 67.128 253.112 66.232C253.112 65.08 253.56 64.12 254.456 63.352C254.648 63.16 254.968 63 255.416 62.872C255.864 62.68 256.216 62.52 256.472 62.392C257.88 61.944 258.776 61.592 259.16 61.336C260.632 60.44 261.624 58.968 262.136 56.92C262.648 54.488 262.968 52.824 263.096 51.928C263.224 50.52 263.672 49.464 264.44 48.76C265.272 47.992 266.296 47.608 267.512 47.608C269.112 47.608 270.232 48.024 270.872 48.856C271.512 49.688 271.832 51.224 271.832 53.464C271.832 56.408 271.128 59.192 269.72 61.816C270.616 61.816 272.088 61.752 274.136 61.624C277.208 61.496 279.352 61.432 280.568 61.432C281.656 61.432 282.584 61.72 283.352 62.296C284.184 62.808 284.6 63.576 284.6 64.6C284.6 67.032 283.48 68.472 281.24 68.92C279.192 69.496 275.48 69.848 270.104 69.976C269.656 76.248 269.432 81.208 269.432 84.856C269.432 87.096 269.528 88.696 269.72 89.656C270.104 91.64 270.744 93.112 271.64 94.072C272.6 94.968 274.008 95.416 275.864 95.416C276.76 95.416 278.104 95.192 279.896 94.744C280.984 94.424 281.848 94.264 282.488 94.264C283.32 94.264 283.96 94.552 284.408 95.128C284.856 95.704 285.08 96.472 285.08 97.432C285.08 99.16 283.96 100.6 281.72 101.752C279.48 102.84 276.824 103.384 273.752 103.384C271.832 103.384 269.944 102.936 268.088 102.04C266.232 101.08 264.664 99.928 263.384 98.584C263.128 98.456 262.744 97.752 262.232 96.472C261.784 95.192 261.336 93.784 260.888 92.248C260.696 91.48 260.6 89.624 260.6 86.68C260.6 83.864 260.792 79 261.176 72.088L261.272 69.976C260.824 69.976 259.992 69.944 258.776 69.88C257.56 69.752 256.664 69.656 256.088 69.592Z"
        fill="black" />
    <path
        d="M303.61 42.136C303.61 43.8 303.578 45.752 303.514 47.992C303.45 50.168 303.386 51.832 303.322 52.984C303.13 56.248 303.034 59.512 303.034 62.776C303.034 67.064 303.13 70.52 303.322 73.144C304.794 69.496 306.874 66.744 309.562 64.888C312.25 62.968 315.322 62.008 318.778 62.008C321.146 62.008 323.354 63.064 325.402 65.176C327.45 67.288 328.762 69.752 329.338 72.568C329.402 72.888 329.434 73.368 329.434 74.008C329.434 74.776 329.37 75.992 329.242 77.656C329.05 79 328.954 80.344 328.954 81.688C328.954 85.144 329.082 87.832 329.338 89.752C329.594 91.608 330.138 93.144 330.97 94.36C331.802 95.512 333.114 96.44 334.906 97.144C335.61 97.4 336.09 97.752 336.346 98.2C336.666 98.584 336.826 99.192 336.826 100.024C336.826 101.176 336.218 102.04 335.002 102.616C333.85 103.192 332.73 103.48 331.642 103.48C329.402 103.48 327.386 102.872 325.594 101.656C323.802 100.44 322.458 98.84 321.562 96.856C320.922 95.512 320.506 93.912 320.314 92.056C320.122 90.2 320.026 88.024 320.026 85.528L320.122 77.176C320.122 72.632 318.65 70.36 315.706 70.36C313.594 70.36 311.546 72.088 309.562 75.544C307.578 79 305.978 83.064 304.762 87.736C303.546 92.408 302.938 96.248 302.938 99.256C302.938 100.664 302.49 101.72 301.594 102.424C300.762 103.064 299.898 103.384 299.002 103.384C297.594 103.384 296.314 102.968 295.162 102.136C294.01 101.24 293.434 100.248 293.434 99.16C293.882 94.36 294.106 86.328 294.106 75.064C294.106 73.016 293.946 65.432 293.626 52.312L293.338 43.48C293.338 42.072 293.978 40.856 295.258 39.832C296.538 38.744 297.978 38.2 299.578 38.2C300.986 38.2 302.01 38.52 302.65 39.16C303.29 39.8 303.61 40.792 303.61 42.136Z"
        fill="black" />
    <path
        d="M381.104 72.184C381.616 73.08 382.032 74.392 382.352 76.12C382.672 77.784 382.832 79.288 382.832 80.632C382.832 83.128 382.288 86.68 381.2 91.288C376.784 99.352 370.256 103.384 361.616 103.384C358.416 103.384 355.152 102.328 351.824 100.216C348.496 98.104 346.192 95.672 344.912 92.92C343.184 87.416 342.32 83.928 342.32 82.456C342.32 79.896 342.864 77.176 343.952 74.296C345.104 71.416 346.544 68.92 348.272 66.808C349.36 65.336 351.312 64.088 354.128 63.064C356.944 61.976 359.504 61.432 361.808 61.432C366.288 61.432 370.096 62.296 373.232 64.024C376.368 65.688 378.992 68.408 381.104 72.184ZM372.752 87.64C373.072 86.808 373.232 84.664 373.232 81.208C373.232 79.352 372.88 77.528 372.176 75.736C371.536 73.944 370.576 72.408 369.296 71.128C369.168 71 368.816 70.808 368.24 70.552C367.664 70.232 366.864 69.944 365.84 69.688C364.88 69.368 363.76 69.208 362.48 69.208C358.896 69.208 356.272 70.648 354.608 73.528C352.944 76.408 352.112 79.672 352.112 83.32C352.112 83.96 352.272 85.176 352.592 86.968C352.976 88.76 353.296 89.88 353.552 90.328C353.744 90.776 354.224 91.416 354.992 92.248C355.824 93.016 356.816 93.72 357.968 94.36C359.184 94.936 360.432 95.224 361.712 95.224C364.592 95.224 366.896 94.552 368.624 93.208C370.352 91.8 371.728 89.944 372.752 87.64Z"
        fill="black" />
    <path
        d="M435.989 95.608C436.309 95.736 436.821 95.896 437.525 96.088C438.229 96.28 438.741 96.472 439.061 96.664C439.381 96.856 439.541 97.144 439.541 97.528C439.605 99.064 439.029 100.344 437.813 101.368C436.661 102.328 435.285 102.808 433.685 102.808C431.189 102.808 429.237 102.136 427.829 100.792C426.421 99.448 425.397 97.4 424.757 94.648C424.501 93.56 424.373 92.056 424.373 90.136C424.373 89.048 424.437 87.288 424.565 84.856C424.693 82.296 424.757 80.248 424.757 78.712C424.757 76.472 424.117 74.52 422.837 72.856C421.621 71.128 419.893 70.264 417.653 70.264C416.309 70.264 414.901 70.68 413.429 71.512C411.957 72.28 410.933 73.24 410.357 74.392C409.397 76.248 408.725 78.264 408.341 80.44C407.637 84.28 407.285 88.28 407.285 92.44C407.285 94.424 407.317 95.96 407.381 97.048C407.381 97.304 407.381 97.816 407.381 98.584C407.445 99.288 407.381 99.96 407.189 100.6C407.061 101.176 406.805 101.72 406.421 102.232C406.101 102.552 405.589 102.808 404.885 103C404.245 103.256 403.637 103.384 403.061 103.384C402.165 103.384 401.045 103 399.701 102.232C398.357 101.464 397.589 100.6 397.397 99.64L397.301 98.008C397.301 97.432 397.365 96.76 397.493 95.992C398.261 91.512 398.645 87.608 398.645 84.28C398.645 82.808 398.613 81.656 398.549 80.824L398.453 76.312C398.453 74.776 398.069 73.304 397.301 71.896C396.533 70.424 395.637 69.688 394.613 69.688C394.293 69.688 393.845 69.816 393.269 70.072C392.693 70.264 392.213 70.36 391.829 70.36C391.189 70.36 390.485 70.04 389.717 69.4C389.013 68.76 388.661 68.088 388.661 67.384C388.661 66.04 389.109 64.952 390.005 64.12C390.965 63.352 391.893 62.744 392.789 62.296C393.749 61.848 394.837 61.624 396.053 61.624C397.077 61.624 397.909 61.72 398.549 61.912C399.189 62.104 400.053 62.52 401.141 63.16C401.717 63.48 402.389 64.184 403.157 65.272C403.925 66.36 404.565 67.896 405.077 69.88C406.741 66.808 408.789 64.664 411.221 63.448C413.717 62.168 416.885 61.528 420.725 61.528C422.197 61.528 423.765 62.008 425.429 62.968C427.157 63.928 428.629 65.048 429.845 66.328C430.997 67.736 431.957 69.496 432.725 71.608C433.493 73.656 433.877 75.512 433.877 77.176C433.877 78.136 433.813 79.704 433.685 81.88C433.493 83.608 433.397 85.432 433.397 87.352C433.397 91.832 434.261 94.584 435.989 95.608Z"
        fill="black" />
    <defs>
        <linearGradient id="pathon_svg_paint0_linear_2_17" x1="33.117" y1="41.078" x2="83.3277" y2="83.2105"
            gradientUnits="userSpaceOnUse">
            <stop stop-color="#26ABE7" />
            <stop offset="1" stop-color="#086DBF" />
        </linearGradient>
        <linearGradient id="pathon_svg_paint1_linear_2_17" x1="111.891" y1="120.052" x2="74.4705" y2="66.6077"
            gradientUnits="userSpaceOnUse">
            <stop stop-color="#FEB705" />
            <stop offset="1" stop-color="#FFDA1C" />
        </linearGradient>
    </defs>
</svg>
