<svg width="424" height="212" viewBox="0 0 424 212" fill="none" xmlns="http://www.w3.org/2000/svg">
<path fill-rule="evenodd" clip-rule="evenodd" d="M421.733 132.899H424.001V121.785H420.599L417.827 129.334L414.802 121.785H411.526V132.899H413.668V124.469H413.794L416.945 132.899H418.583L421.733 124.469V132.899ZM403.418 132.899H405.813V123.673H408.964V121.785H400.142V123.673H403.418V132.899ZM204.691 179.071C204.691 193.666 199.777 204.612 189.906 211.95L182.764 205.911C185.915 202.263 188.015 197.859 189.065 192.743C189.78 189.262 190.157 184.44 190.157 178.275V97.881H204.691V179.071ZM269.884 188.466H259.131L258.038 181.211C251.401 186.956 244.512 189.807 237.33 189.807C223.888 189.807 217.167 183.643 217.167 171.271C217.167 164.184 219.897 158.69 225.358 154.748C231.281 150.555 239.934 148.458 251.318 148.458H256.148V142.418C256.148 134.451 251.528 130.466 242.328 130.466C236.321 130.466 229.768 131.767 222.711 134.366L220.695 125.896C229.012 122.247 237.498 120.401 246.108 120.401C261.987 120.401 269.884 127.154 269.884 140.658V188.423V188.466ZM256.148 173.033V157.18H250.393C237.414 157.18 230.903 161.206 230.903 169.258C230.903 176.22 234.347 179.743 241.236 179.743C245.982 179.743 250.939 177.52 256.148 173.033ZM337.092 121.66C332.723 146.36 325.793 168.629 316.383 188.508H299.329L278.747 121.66H293.659L306.429 162.716L309.243 175.088C315.879 156.845 320.29 139.022 322.559 121.66H337.092ZM393.8 188.466H383.046L381.954 181.211C375.317 186.956 368.428 189.807 361.245 189.807C347.803 189.807 341.083 183.643 341.083 171.271C341.083 164.184 343.813 158.69 349.274 154.748C355.197 150.555 363.85 148.458 375.233 148.458H380.064V142.418C380.064 134.451 375.443 130.466 366.202 130.466C360.195 130.466 353.643 131.767 346.586 134.366L344.569 125.896C352.886 122.247 361.371 120.401 369.983 120.401C385.861 120.401 393.757 127.154 393.757 140.658V188.423L393.8 188.466ZM380.106 173.033V157.18H374.309C361.33 157.18 354.819 161.206 354.819 169.258C354.819 176.22 358.263 179.743 365.152 179.743C369.898 179.743 374.855 177.52 380.064 173.033H380.106Z" fill="black"/>
<path d="M19.9108 126.063C19.9108 120.192 42.2156 116.921 52.591 116.124L53.5991 116.711C49.6086 117.424 33.6046 120.234 33.6046 123.924C33.6046 127.908 58.1357 130.55 72.4176 130.55C96.6129 130.55 113.079 126.902 117.489 125.686L123.664 129.292C119.422 131.347 101.233 136.799 72.4176 136.799C40.3675 136.799 19.9528 130.55 19.9528 126.105L19.9108 126.063ZM68.7208 208.469C56.0354 208.595 40.5775 207.547 27.5558 205.366L26.3376 206.079C39.3173 209.896 57.3796 212.16 77.2062 211.993C116.187 211.657 147.775 202.011 148.405 190.395L147.943 190.143C145.339 193.331 128.453 208.008 68.7208 208.512V208.469ZM72.0393 201.005C103.922 200.711 139.626 194.504 139.542 184.02C139.542 182.133 138.282 180.833 137.232 180.036L136.727 180.33C133.787 188.423 108.836 194.42 72.0393 194.756C48.2644 194.966 15.3743 189.262 15.3323 182.72C15.2902 176.136 30.9163 172.529 30.9163 172.529L29.8241 171.901C19.2387 173.326 -0.0837378 178.317 0.000273049 185.572C0.0842837 196.056 44.4839 201.214 72.0393 201.005ZM143.91 128.873C143.28 141.16 131.897 148.793 120.513 155.294L121.564 155.881C133.703 152.483 155.336 142.544 153.53 127.321C152.648 119.73 145.675 114.279 136.602 114.279C133.787 114.279 131.267 114.782 129.209 115.411L128.789 116.501C136.896 114.908 144.331 120.821 143.91 128.873ZM50.1967 165.4C46.5002 166.155 38.4352 168 38.4352 171.901C38.4352 177.311 55.6994 181.462 72.3759 181.462C95.3104 181.462 104.678 175.591 105.14 175.255L95.6046 169.761C91.5302 170.726 84.7249 172.236 72.4176 172.236C58.6818 172.236 49.7346 169.887 49.7346 167.329C49.7346 166.784 50.0707 166.155 50.7007 165.652L50.2387 165.358L50.1967 165.4ZM106.526 147.116C101.233 148.625 89.3876 151.016 72.3759 151.016C55.3634 151.016 42.0896 148.164 42.0476 144.809C42.0476 142.586 44.736 141.621 44.736 141.621L44.2739 141.328C36.2929 142.754 28.858 144.935 28.9 148.164C28.984 154.077 51.6249 158.523 72.3759 158.523C90.0177 158.523 106.904 155.587 114.549 151.687L106.526 147.074V147.116Z" fill="#0589C4"/>
<path d="M101.989 15.1813C101.989 47.8084 57.2119 60.2637 57.2119 83.4549C57.2119 99.7267 68.0076 109.959 74.0139 116.375L73.5097 116.67C65.9491 111.972 46.0806 100.104 46.0806 80.5194C46.0806 53.0505 97.495 39.8823 97.495 8.68101C97.495 4.8228 96.9067 1.8872 96.5291 0.29359L97.0332 3.05176e-05C98.671 2.05495 101.948 7.1713 101.948 15.1813H101.989ZM116.692 44.0341L116.146 43.7405C106.4 47.0116 76.4082 58.8379 76.4082 80.8546C76.4082 93.3103 88.5903 100.23 88.5903 111.888C88.5903 116.04 86.2377 119.982 84.3052 122.289L85.2718 122.834C90.3539 119.521 99.3434 112.392 99.3434 103.207C99.3434 95.4072 88.5479 86.0553 88.5479 76.0322C88.5479 60.2637 109.382 47.8503 116.692 43.9921V44.0341Z" fill="#E0234E"/>
</svg>
