<svg width="685" height="135" viewBox="0 0 685 135" fill="none" xmlns="http://www.w3.org/2000/svg">
<g clip-path="url(#clip0_12_354)">
<path fill-rule="evenodd" clip-rule="evenodd" d="M34.0287 0H100.45C119.243 0 134.478 15.2943 134.478 34.1607V100.839C134.478 119.706 119.243 135 100.45 135H34.0287C15.2352 135 0 119.706 0 100.839V34.1607C0 15.2943 15.2352 0 34.0287 0ZM63.6235 60.1012C70.5178 46.7788 79.077 30.2392 102.222 30.2392C103.096 30.2383 103.961 30.4102 104.767 30.7454C105.574 31.0804 106.307 31.5719 106.925 32.1918C107.542 32.8118 108.032 33.5477 108.366 34.3577C108.699 35.1677 108.871 36.0359 108.87 36.9126C108.871 37.7892 108.699 38.6573 108.366 39.4675C108.032 40.2775 107.542 41.0134 106.925 41.6334C106.307 42.2531 105.574 42.7448 104.767 43.0798C103.961 43.4147 103.096 43.5869 102.222 43.5858C88.1637 43.5858 82.7091 52.1756 75.4002 66.3162L70.8937 74.8377L70.8752 74.8733C63.9853 88.2001 55.4232 104.761 32.2629 104.761C30.4997 104.761 28.8089 104.058 27.5622 102.807C26.3156 101.555 25.6152 99.858 25.6152 98.088C25.6152 96.3183 26.3156 94.6209 27.5622 93.3694C28.8089 92.1179 30.4997 91.4148 32.2629 91.4148C46.3216 91.4148 51.7759 82.825 59.0916 68.6844L63.5915 60.1632L63.6235 60.1012Z" fill="#00DDB3"/>
<path d="M534.403 47.5696H518.081V105.16H534.403V47.5696Z" fill="black"/>
<path d="M534.403 28.589H518.081V41.3231H534.403V28.589Z" fill="black"/>
<path d="M178.435 28.589H161.374V105.16H213.47V90.4797H178.435V28.589Z" fill="black"/>
<path d="M247.186 42.7779C229.025 42.7779 214.653 56.8466 214.653 74.5759C214.653 92.3052 229.025 106.411 247.186 106.411C265.345 106.411 279.839 92.3423 279.839 74.6037C279.839 56.8649 265.456 42.7779 247.186 42.7779ZM247.186 91.2117C238.046 91.2117 231.223 84.2421 231.223 74.5295C231.223 64.8169 238.046 57.903 247.186 57.903C256.324 57.903 263.147 64.9928 263.147 74.5295C263.147 84.0662 256.324 91.2117 247.186 91.2117Z" fill="black"/>
<path d="M348.295 92.1945C345.368 92.1945 342.811 90.4798 342.811 85.2249V60.7671H358.377V47.5698H342.811V30.9711H326.489V47.5698H305.052V30.9711H288.73V47.5698H279.839V60.7671H288.73V85.466C288.73 99.2843 295.313 106.383 307.489 106.383C312.988 106.394 318.367 104.783 322.963 101.75L318.346 89.6457C316.035 91.2142 313.333 92.1033 310.545 92.2128C307.618 92.2128 305.06 90.4983 305.06 85.2435V60.7671H326.499V85.466C326.499 99.2843 333.072 106.383 345.257 106.383C350.756 106.393 356.137 104.781 360.73 101.75L356.114 89.6457C353.796 91.2132 351.088 92.0964 348.295 92.1945Z" fill="black"/>
<path d="M451.491 70.2667C448.999 53.0748 434.069 40.9153 417.665 43.3158C413.538 43.8811 409.567 45.2678 405.982 47.3945C402.398 49.5212 399.271 52.3448 396.787 55.7002C394.306 59.0555 392.513 62.8748 391.52 66.9343C390.528 70.9936 390.351 75.2112 391.003 79.3397C393.892 99.3119 410.998 108.561 428.596 105.985C436.564 104.86 444.029 101.408 450.06 96.059L442.342 85.3175C437.936 89.1403 432.525 91.6053 426.759 92.4168C418.8 93.5753 411.349 90.5631 408.212 82.5188L451.972 76.124C451.919 74.1642 451.76 72.2086 451.491 70.2667ZM406.4 71.7772C406.863 63.9274 412.162 57.9589 419.151 56.9487C422.702 56.3944 426.333 57.1586 429.363 59.0984C432.393 61.0381 434.614 64.0204 435.612 67.4863L406.4 71.7772Z" fill="black"/>
<path d="M628.681 70.2667C626.189 53.0748 611.251 40.9153 594.855 43.3158C590.728 43.8799 586.757 45.2659 583.17 47.3922C579.586 49.5184 576.459 52.3422 573.975 55.6978C571.492 59.0534 569.701 62.8733 568.708 66.9332C567.716 70.9929 567.539 75.211 568.193 79.3397C571.082 99.3119 588.18 108.561 605.786 105.985C613.752 104.86 621.213 101.408 627.241 96.059L619.532 85.3175C615.124 89.1405 609.709 91.6055 603.939 92.4168C595.981 93.5753 588.531 90.5631 585.391 82.5188L629.162 76.124C629.103 74.1644 628.943 72.2092 628.681 70.2667ZM583.593 71.7772C584.053 63.9274 589.344 57.9589 596.341 56.9487C599.888 56.3918 603.514 57.1556 606.54 59.0965C609.566 61.0373 611.778 64.021 612.766 67.4863L583.593 71.7772Z" fill="black"/>
<path d="M561.204 28.589H544.882V105.151H561.204V28.589Z" fill="black"/>
<path d="M662.479 66.8744C656.875 65.6509 651.761 64.5482 651.761 61.1282C651.761 58.5611 655.297 56.8464 659.073 56.8464C664.971 56.9405 670.766 58.4061 676.005 61.1282L681.489 48.8947C674.677 44.7114 666.808 42.5877 658.823 42.7779C647.375 42.7779 635.19 49.3858 635.19 61.8604C635.19 73.6026 645.058 77.6157 657.125 80.8131C662.359 82.2867 667.604 83.1393 667.604 86.8094C667.604 90.4793 661.391 91.9439 657.604 91.9439C650.71 92.0787 643.988 89.783 638.605 85.4563L632.753 98.0699C636.167 101.249 644.57 106.411 657.604 106.411C668.942 106.411 684.166 101.397 684.166 86.346C684.166 73.8437 672.876 69.3396 662.479 66.8744Z" fill="black"/>
<path d="M383.617 47.5696H367.294V105.16H383.617V47.5696Z" fill="black"/>
<path d="M383.617 28.589H367.294V41.3231H383.617V28.589Z" fill="black"/>
<path d="M458.441 105.16H475.466V73.8718H504.334V59.3489H475.466V43.2416H510.539V28.589H458.441V105.16Z" fill="black"/>
</g>
<defs>
<clipPath id="clip0_12_354">
<rect width="685" height="135" fill="white"/>
</clipPath>
</defs>
</svg>
