<svg width="453" height="141" viewBox="0 0 453 141" fill="none" xmlns="http://www.w3.org/2000/svg">
    <path
        d="M82.961 0.146431C81.9487 0.146431 81.0089 0.364008 80.1414 0.65485C81.9847 1.88871 82.997 3.5222 83.5029 5.37326C83.5393 5.62747 83.6118 5.80897 83.6483 6.06318C83.6842 6.28076 83.7201 6.49834 83.7201 6.71647C83.865 9.91018 82.8886 10.3098 82.202 12.197C81.1532 14.6292 81.4423 17.2423 82.7078 19.3476C82.8162 19.6018 82.961 19.8921 83.1418 20.1468C81.768 10.9631 89.3964 9.58437 90.8067 6.71647C90.9151 4.21212 88.8546 2.54255 87.2275 1.38085C85.6728 0.437273 84.2625 0.146431 82.961 0.146431ZM94.4584 2.21563C94.3136 3.05041 94.4219 2.83228 94.3866 3.26799C94.3501 3.55828 94.3501 3.92127 94.3141 4.21156C94.2417 4.5024 94.1693 4.79269 94.0609 5.08298C93.989 5.37326 93.8801 5.66355 93.7718 5.95439C93.6269 6.24468 93.5186 6.49834 93.3737 6.78918C93.2653 6.93404 93.1929 7.07946 93.0846 7.22433L92.8678 7.55125C92.687 7.80546 92.5063 8.05911 92.3255 8.27725C92.1082 8.49482 91.9274 8.74903 91.6747 8.93053V8.96661C91.4575 9.14811 91.2407 9.36624 90.9875 9.54774C90.2285 10.1283 89.3605 10.5635 88.5654 11.1085C88.3122 11.29 88.059 11.4349 87.8423 11.6525C87.5891 11.8345 87.3723 12.0155 87.1551 12.2336C86.9019 12.4512 86.7211 12.6693 86.5044 12.923C86.3236 13.1411 86.1063 13.3947 85.9625 13.6489C85.7812 13.9032 85.6004 14.1574 85.4561 14.4116C85.3113 14.7019 85.2029 14.9555 85.0581 15.2464C84.9497 15.5366 84.8413 15.7903 84.7689 16.0811C84.6725 16.3801 84.588 16.6829 84.5157 16.9886C84.4798 17.1335 84.4798 17.315 84.4438 17.4604C84.4073 17.6053 84.4073 17.7507 84.3714 17.8961C84.3714 18.1864 84.3349 18.5128 84.3349 18.8031C84.3349 19.0212 84.3349 19.2388 84.3714 19.4569C84.3714 19.7472 84.4073 20.0375 84.4798 20.3638C84.5163 20.6547 84.5881 20.945 84.6606 21.2353C84.7689 21.5256 84.8413 21.8158 84.9497 22.1067C85.0221 22.2876 85.1305 22.4691 85.2029 22.6145L76.8878 19.3842C75.4775 18.9846 74.1036 18.6216 72.6932 18.2952L70.4154 17.7507C68.2395 17.315 66.0434 16.9879 63.8352 16.7705C63.7634 16.7705 63.7269 16.7344 63.6545 16.7344C61.504 16.5169 59.344 16.4078 57.1826 16.4075C55.592 16.4075 54.0009 16.4797 52.4462 16.589C50.2408 16.7344 48.0355 17.0247 45.8301 17.3877C45.2883 17.4599 44.7454 17.5692 44.2036 17.678C43.0823 17.8956 41.9976 18.1498 40.9494 18.404L39.3223 18.8397C38.7805 19.0573 38.2741 19.3115 37.7677 19.5291L36.5746 20.0736C36.5027 20.1102 36.4297 20.1102 36.3938 20.1457C36.0322 20.3278 35.7071 20.4732 35.382 20.6541C35.2731 20.6908 35.2007 20.7268 35.1283 20.7635C34.7308 20.945 34.3332 21.1626 34.0076 21.3441C33.7544 21.4528 33.5012 21.5983 33.2845 21.7071C33.1761 21.7792 33.0313 21.8525 32.9594 21.8886C32.6337 22.0701 32.3081 22.2515 32.0195 22.4325C31.6933 22.6145 31.4047 22.796 31.1515 22.9775C30.8983 23.159 30.6451 23.3039 30.4284 23.4854C30.3919 23.522 30.3565 23.522 30.32 23.5576C30.1027 23.7035 29.8501 23.885 29.6328 24.066L29.5609 24.1387L29.0186 24.5744C28.9461 24.6105 28.8737 24.6832 28.8013 24.7198C28.6205 24.8647 28.4397 25.0462 28.2595 25.1916C28.223 25.2638 28.1506 25.3004 28.1146 25.3365C27.8973 25.5546 27.6806 25.7361 27.4634 25.9537C27.4274 25.9537 27.4274 25.9903 27.3915 26.0258C27.1742 26.2079 26.9575 26.4255 26.7408 26.643C26.7043 26.6797 26.7043 26.7158 26.6683 26.7158C26.4875 26.8973 26.3068 27.0788 26.126 27.2963C26.0541 27.369 25.9452 27.4418 25.8728 27.5145C25.692 27.732 25.4747 27.9502 25.2585 28.1677C25.222 28.2399 25.1496 28.2765 25.1137 28.3492C24.8245 28.6395 24.5713 28.9298 24.2822 29.2207L24.1738 29.3294C23.595 29.9461 22.9802 30.5633 22.3294 31.1078C21.6885 31.6821 21.0123 32.2154 20.3049 32.7047C19.6036 33.1983 18.8797 33.6586 18.1354 34.0839C17.3975 34.4903 16.637 34.8539 15.8576 35.1729C15.0888 35.5011 14.3046 35.7919 13.5079 36.0444C11.9892 36.3707 10.4346 36.9879 9.09662 37.0967C8.80747 37.0967 8.48239 37.1694 8.19324 37.2055C7.8676 37.2782 7.57845 37.3509 7.28931 37.4236L6.42131 37.75C6.13216 37.8593 5.84301 38.0042 5.55331 38.1496C5.30065 38.3311 5.0115 38.476 4.75829 38.6575C4.50508 38.839 4.25187 39.0571 4.03514 39.2747C3.78193 39.4562 3.52927 39.7104 3.312 39.928C3.09527 40.1822 2.878 40.3998 2.69721 40.654C2.51698 40.9443 2.2997 41.1985 2.1554 41.4888C1.97462 41.743 1.79383 42.0333 1.64898 42.3235C1.50413 42.6505 1.35983 42.9407 1.25092 43.2671C1.13697 43.5797 1.02859 43.8942 0.92583 44.2107C0.853958 44.5015 0.78098 44.7918 0.745044 45.0821C0.745044 45.1187 0.709107 45.1548 0.709107 45.1914C0.636682 45.5178 0.636682 45.9535 0.600193 46.1711C0.564257 46.4253 0.52832 46.6429 0.52832 46.8971C0.52832 47.0425 0.52832 47.224 0.564257 47.3689C0.600746 47.6231 0.636129 47.8407 0.709107 48.0588C0.78098 48.2764 0.853958 48.4945 0.96232 48.7121V48.7487C1.07068 48.9663 1.21498 49.1839 1.35983 49.402C1.50468 49.6196 1.64898 49.8372 1.82976 50.0553C2.01055 50.2368 2.22783 50.4549 2.44455 50.6359C2.66127 50.8534 2.87855 51.0355 3.13121 51.2164C3.99921 51.9791 4.21593 52.2327 5.33714 52.8138C5.51793 52.9226 5.69871 52.9953 5.91544 53.1041C5.95137 53.1041 5.98731 53.1402 6.0238 53.1402C6.0238 53.2129 6.0238 53.2496 6.06029 53.3217C6.09622 53.6126 6.16865 53.9028 6.24107 54.1931C6.31295 54.5195 6.42186 54.8103 6.53022 55.0645C6.63858 55.2821 6.71101 55.4997 6.81937 55.7178C6.85531 55.79 6.89124 55.8627 6.92773 55.8988C7.07258 56.1896 7.21688 56.4433 7.36173 56.698L7.90354 57.4601C8.08488 57.6777 8.3016 57.9319 8.51888 58.1495C8.7356 58.367 8.95232 58.5491 9.20554 58.7667C9.20554 58.7667 9.24203 58.8028 9.27741 58.8028C9.49469 58.9843 9.71141 59.1657 9.92868 59.3112C10.1819 59.4927 10.4346 59.6375 10.7243 59.783C10.9769 59.9284 11.2661 60.0732 11.5558 60.1826C11.7725 60.2908 12.0257 60.3635 12.2789 60.4362C12.3148 60.4729 12.3508 60.4729 12.4232 60.5084C12.5681 60.545 12.7488 60.5811 12.8931 60.6177C12.7848 62.5776 12.7488 64.4292 13.038 65.0825C13.3636 65.8085 14.9542 63.5939 16.5448 61.0529C16.3281 63.5578 16.1832 66.4979 16.5448 67.3693C16.9429 68.2768 19.1123 65.4455 20.9921 62.3239C46.6262 56.3711 70.0185 74.1569 72.4771 99.2748C72.0071 95.3545 67.1983 93.1771 64.9929 93.721C63.9082 96.4069 62.0644 99.8554 59.0994 101.997C59.3526 99.6011 59.2442 97.1329 58.7378 94.7367C57.9422 98.0764 56.3881 101.197 54.2546 103.884C50.8197 104.138 47.3853 102.468 45.5774 99.9641C45.4326 99.8554 45.3966 99.6372 45.2883 99.4924C45.1799 99.2381 45.0715 98.9839 44.9991 98.7297C44.8936 98.4864 44.8205 98.2302 44.7818 97.9677C44.7459 97.7134 44.7459 97.4598 44.7459 97.169V96.625C44.7818 96.3708 44.8543 96.1166 44.9267 95.8624C44.9986 95.6082 45.0715 95.3545 45.1799 95.1003C45.3242 94.8461 45.4326 94.5919 45.6134 94.3382C46.2281 92.5954 46.2281 91.18 45.1075 90.3453C44.8903 90.2028 44.6602 90.0813 44.4203 89.9823C44.276 89.9456 44.0952 89.8735 43.9503 89.8368C43.842 89.8008 43.7696 89.7647 43.6612 89.728C43.408 89.6559 43.1548 89.5826 42.9021 89.5465C42.6552 89.4749 42.3995 89.4383 42.1425 89.4378C41.8898 89.4011 41.6007 89.3656 41.3474 89.3656C41.1667 89.3656 40.9859 89.4017 40.8051 89.4017C40.5159 89.4017 40.2627 89.4378 40.0095 89.5105C39.7563 89.5466 39.5036 89.5826 39.2504 89.6559C38.9972 89.7281 38.744 89.8008 38.4914 89.9095C38.2381 90.0189 38.0214 90.1277 37.7682 90.2365C37.5509 90.3453 37.3342 90.4907 37.081 90.5995C28.657 96.1166 33.6825 109.038 39.4307 112.777C37.2618 113.177 35.0564 113.649 34.4416 114.12L34.3697 114.193C35.9244 115.136 37.5509 115.935 39.2504 116.625C41.5642 117.387 44.0228 118.076 45.1075 118.367V118.403C48.1031 119.02 51.1662 119.239 54.2187 119.056C70.2352 117.931 83.3597 105.699 85.7458 89.5837C85.8177 89.9101 85.8907 90.2004 85.9625 90.5273C86.0709 91.1806 86.2158 91.8705 86.2882 92.5599V92.596C86.3601 92.9229 86.3965 93.2492 86.433 93.5395V93.6849C86.469 94.0119 86.5049 94.3382 86.5049 94.6285C86.5414 95.0281 86.5768 95.4278 86.5768 95.8269V96.4074C86.5768 96.5889 86.6133 96.8071 86.6133 96.988C86.6133 97.2061 86.5773 97.4237 86.5773 97.6413V98.1497C86.5773 98.4039 86.5408 98.6215 86.5408 98.8757C86.5408 99.0211 86.5408 99.166 86.5049 99.3475C86.5049 99.6017 86.4684 99.8559 86.4684 100.146C86.4325 100.255 86.4325 100.364 86.4325 100.473C86.396 100.763 86.3606 101.017 86.3241 101.307C86.3241 101.417 86.3241 101.525 86.2876 101.634C86.2517 101.997 86.1793 102.324 86.1433 102.687V102.76C86.0709 103.086 85.9985 103.449 85.9261 103.776V103.885L85.7093 104.865C85.7093 104.901 85.6728 104.974 85.6728 105.01C85.601 105.337 85.5286 105.663 85.4202 105.99V106.099C85.3113 106.462 85.2029 106.789 85.1305 107.115C85.0945 107.152 85.0946 107.187 85.0946 107.187L84.7689 108.277C84.6246 108.64 84.5163 108.966 84.3714 109.329C84.2265 109.692 84.1182 110.055 83.9733 110.382C83.829 110.745 83.6842 111.072 83.5399 111.435H83.5034C83.3591 111.762 83.2143 112.125 83.0335 112.451C82.9975 112.56 82.9616 112.632 82.9251 112.705C82.8886 112.742 82.8886 112.777 82.8532 112.814C80.503 117.569 77.0316 121.743 72.6932 125.01C72.4041 125.191 72.1149 125.409 71.8252 125.627C71.7534 125.699 71.645 125.736 71.5726 125.809C71.3194 125.99 71.0662 126.172 70.777 126.353L70.8854 126.571H70.9219L72.4406 126.353H72.4765C73.4164 126.208 74.3563 126.026 75.2967 125.845C75.5499 125.809 75.8385 125.736 76.0923 125.663C76.273 125.627 76.4173 125.591 76.5981 125.554C76.8513 125.518 77.1045 125.446 77.3578 125.41C77.5745 125.337 77.7912 125.3 78.0085 125.228C81.6242 124.357 85.131 123.159 88.4936 121.743C82.7449 129.619 75.044 135.972 66.0412 140.146C70.1987 139.856 74.3563 139.166 78.3701 138.005C92.9408 133.685 105.197 123.849 112.537 110.6C111.047 119.004 107.726 126.974 102.811 133.939C106.315 131.619 109.552 128.916 112.464 125.881C120.564 117.387 125.878 106.607 127.686 95.0287C128.919 100.773 129.273 106.673 128.734 112.524C154.838 75.9724 130.904 38.0764 120.889 28.0967C120.853 28.0245 120.816 27.9879 120.816 27.9152C120.78 27.9518 120.78 27.9518 120.78 27.9879C120.78 27.9513 120.78 27.9513 120.744 27.9158C120.744 28.3509 120.708 28.7866 120.672 29.2218C120.564 30.0571 120.455 30.8553 120.31 31.654C120.13 32.4527 119.912 33.2508 119.696 34.0495C119.438 34.8354 119.149 35.6104 118.828 36.3724C118.495 37.1247 118.134 37.8635 117.743 38.587C117.345 39.2764 116.912 40.0024 116.441 40.6556C115.977 41.3308 115.482 41.9849 114.96 42.6161C114.417 43.2693 113.839 43.8499 113.26 44.431C112.92 44.7437 112.57 45.0462 112.211 45.338C111.922 45.5922 111.67 45.8098 111.38 46.064C110.729 46.5724 110.079 47.0442 109.355 47.4793C108.668 47.915 107.946 48.3507 107.222 48.7137C106.463 49.0767 105.704 49.4037 104.945 49.73C104.185 50.0203 103.39 50.2745 102.594 50.4927C101.795 50.7085 100.987 50.8899 100.172 51.0366C99.3402 51.182 98.5087 51.2547 97.7131 51.3274C97.1348 51.3635 96.5565 51.3996 95.9777 51.3996C95.1462 51.3996 94.3147 51.3274 93.5197 51.2547C92.6876 51.182 91.8561 51.0732 91.0611 50.8917C90.2296 50.7463 89.434 50.5287 88.6384 50.2745H88.6025C89.3975 50.2024 90.1931 50.1291 90.9886 49.9842C91.8041 49.8413 92.6124 49.6595 93.4107 49.4397C94.206 49.224 94.9903 48.9697 95.761 48.6777C96.5565 48.3868 97.3156 48.0238 98.0388 47.6608C98.7979 47.2978 99.4851 46.8988 100.208 46.463C100.895 45.9913 101.582 45.5195 102.233 45.0116C102.881 44.5061 103.496 43.9605 104.077 43.3781C104.691 42.8336 105.234 42.2164 105.776 41.5992C106.305 40.9637 106.811 40.31 107.294 39.6394C107.367 39.5306 107.439 39.3852 107.512 39.2764C107.873 38.6958 108.235 38.1147 108.56 37.5341C108.957 36.8142 109.319 36.0751 109.645 35.3195C109.971 34.56 110.261 33.785 110.513 32.9972C110.765 32.2345 110.946 31.4364 111.127 30.6377C111.272 29.8029 111.416 29.0042 111.488 28.2055C111.56 27.3707 111.633 26.5359 111.633 25.7378C111.633 25.1566 111.597 24.5761 111.561 23.9949C111.489 23.1602 111.38 22.362 111.272 21.5633C111.129 20.7446 110.949 19.9332 110.73 19.1317C110.476 18.369 110.223 17.5709 109.934 16.8082C109.645 16.0462 109.283 15.2841 108.922 14.5581C108.524 13.8321 108.126 13.1061 107.692 12.4162C107.222 11.7268 106.752 11.073 106.246 10.4203C105.704 9.80306 105.161 9.18585 104.583 8.56864C104.279 8.25714 103.965 7.95451 103.643 7.66115C102.023 6.3985 100.346 5.21166 98.6176 4.10444C98.3644 3.95902 98.1477 3.85023 97.8945 3.74144C96.7014 2.97881 95.5802 2.57974 94.4595 2.21674L94.4584 2.21563Z"
        fill="#E0234E" />
    <path
        d="M165.083 106.011C166.328 105.423 167.641 104.989 168.992 104.718C172.006 104.232 173.716 103.828 174.205 103.505C175.019 103.019 175.59 102.373 175.834 101.725C176.16 100.594 176.323 98.2499 176.323 94.5302V87.4976L176.404 81.758L176.16 73.1887V68.0957C176.16 64.7011 175.916 61.8715 175.345 59.77C175.184 58.9615 174.449 58.153 173.309 57.3445C171.762 56.2122 169.236 55.1615 165.571 54.1107L165.49 50.2291C166.141 50.0684 166.793 49.9077 167.363 49.8261C167.934 49.7445 170.133 49.1796 173.96 48.2091C176.975 47.1584 178.93 46.3499 179.743 45.9457C180.069 45.785 180.477 45.5415 181.128 45.2176C181.779 44.6526 182.513 44.1668 183.328 43.6007C184.955 42.4695 186.911 40.4484 189.191 37.6991L193.508 37.3765L193.346 46.5119C193.264 47.4007 193.264 48.1276 193.264 48.6937C193.264 49.1796 193.264 50.3922 193.345 52.4122C197.907 48.5318 201.978 45.8641 205.725 44.3275C210.531 42.3076 215.173 41.3372 219.491 41.3372C224.622 41.3372 229.183 42.6315 233.012 45.1372C236.921 47.643 239.446 50.553 240.585 53.7868C241.807 57.101 242.377 63.8123 242.377 73.7549L242.051 100.271C242.051 101.484 242.296 102.535 242.703 103.343C243.273 103.747 244.82 104.151 247.265 104.556L251.255 105.284C251.743 106.011 251.989 106.819 251.989 107.87C251.989 108.518 251.989 109.406 251.906 110.538L235.861 109.406L231.137 109.567H227.391L216.558 110.377H213.789C213.707 109.649 213.707 109.164 213.707 108.76C213.707 107.79 213.789 106.739 213.87 105.608C214.604 105.446 216.558 105.202 219.572 104.798C220.386 104.718 221.282 104.475 222.34 104.233C223.399 103.829 224.052 103.343 224.214 102.939C224.621 101.968 224.865 100.271 224.865 97.685C224.865 93.0765 224.784 89.6003 224.703 87.1749L224.784 77.7972C224.784 66.318 224.133 59.2038 222.667 56.4557C220.549 52.3331 217.454 50.3119 213.301 50.3119C210.287 50.3119 207.111 51.1204 203.853 52.6557C200.512 54.1923 197.173 56.5373 193.671 59.6896L193.509 61.0642L193.671 66.1573L193.59 71.573L193.915 84.5888L193.753 86.61C193.753 95.4215 194.078 100.434 194.812 101.565C195.544 102.696 198.232 103.909 202.957 105.284C203.119 106.174 203.201 106.901 203.201 107.305C203.201 107.951 202.956 108.922 202.631 110.297C200.92 110.377 199.455 110.377 198.314 110.377C197.173 110.377 195.381 110.216 192.939 109.892L184.223 109.732C179.825 109.732 173.553 109.892 165.327 110.297C165.101 109.759 164.99 109.181 165.001 108.599C165.001 108.195 165.001 107.305 165.083 106.012V106.011ZM261.27 67.1327C262.736 62.5242 263.958 59.4522 265.098 57.9973C268.112 53.5507 271.369 50.0745 274.791 47.5688C278.293 45.0631 281.388 43.4461 284.156 42.6377C287.822 41.5869 290.673 41.1023 292.953 41.1023C298.084 41.1023 302.238 41.5066 305.333 42.3138C308.509 43.0431 311.198 44.1742 313.315 45.6292C316.329 47.7307 318.773 49.9138 320.646 52.0154C322.519 54.1985 323.984 56.7846 325.125 59.6958C326.346 62.6058 326.999 66.1623 327.161 70.2862L318.039 70.1242C315.515 70.1242 310.057 69.8819 301.506 69.3961C298.33 69.2354 296.213 69.0735 294.989 69.0735C294.582 69.0735 291.652 69.1538 286.194 69.1538H279.107C279.026 69.9623 278.945 70.6088 278.945 71.0946C278.945 74.0046 279.351 76.9962 280.004 80.23C280.736 83.3823 281.795 86.1304 283.18 88.5558C284.646 90.9812 286.356 93.0023 288.473 94.6996C290.404 96.3354 292.61 97.6217 294.989 98.4996L299.714 100.035C303.949 100.035 306.718 99.8743 308.185 99.6307C310.791 99.0658 313.071 98.4193 315.026 97.6108C317.063 96.7208 319.424 95.2658 322.275 93.2446C324.23 94.6996 325.858 95.9123 327.244 97.1262C322.437 102.298 317.388 106.18 312.257 108.524C307.125 110.868 301.343 112 294.989 112C290.673 112 287.17 111.676 284.402 110.868C280.817 109.898 277.478 108.443 274.546 106.422C271.615 104.401 269.089 101.895 266.972 98.9842C264.854 95.9926 263.225 92.922 262.167 89.7684C260.863 85.6458 260.13 82.3316 260.13 79.9062C260.13 75.137 260.538 70.9315 261.27 67.1327ZM308.835 63.6565C308.753 60.5846 308.184 57.755 307.043 54.9253C305.903 52.1773 304.111 50.0758 301.668 48.5392C299.306 47.0026 296.863 46.1942 294.419 46.1942C290.754 46.1942 287.496 47.8111 284.483 50.9646C281.55 54.1985 279.922 58.4831 279.513 63.9804L298.167 64.0607C299.387 64.0607 301.098 63.9804 303.216 63.8185C304.845 63.6577 305.984 63.5762 306.637 63.5762C307.125 63.5762 307.858 63.5762 308.835 63.6577V63.6565ZM340.108 87.4185C341.737 87.0946 342.958 86.9339 343.691 86.9339C344.098 86.9339 344.668 86.9339 345.402 87.0142L346.134 87.8227C349.148 92.9961 351.022 96.068 351.999 97.2004C353.872 99.3835 355.746 101.161 357.619 102.536C358.841 103.344 360.795 104.315 363.484 105.203C365.275 105.85 367.23 106.174 369.266 106.174C372.686 106.174 375.618 105.123 378.062 102.94C380.505 100.677 381.727 98.3315 381.727 95.7454C381.727 94.0481 381.239 92.5931 380.343 91.3792C379.447 90.1677 377.574 88.955 374.805 87.7423C373.42 87.1762 369.999 86.2058 364.46 84.8311C359.004 83.4577 355.746 82.5689 354.606 82.1634C352.098 81.2381 349.779 79.8684 347.763 78.1211C345.727 76.3435 344.261 74.4027 343.203 72.2208C341.818 69.1489 341.085 66.48 341.085 64.2969C341.085 60.1754 341.737 56.86 342.876 54.1923C344.117 51.5667 345.859 49.2055 348.008 47.24C349.556 45.7046 351.918 44.33 355.094 43.1173C358.27 41.9058 361.772 41.2581 365.357 41.2581C370.569 41.2581 375.13 41.582 379.039 42.3088C382.949 43.037 386.288 44.0877 388.976 45.4611C389.383 46.6738 389.79 49.585 390.442 54.0303C391.012 58.5585 391.338 61.2249 391.338 62.0346C391.338 62.4389 391.256 62.8431 391.093 63.2461C389.627 63.6516 388.488 63.8939 387.51 63.8939C387.022 63.8939 386.207 63.8123 385.147 63.7332C384.659 63.0038 384.008 61.7924 383.193 60.3361C380.586 55.4866 377.9 52.0908 375.13 50.15C372.36 48.13 369.265 47.1584 365.6 47.1584C361.853 47.1584 358.677 48.2907 356.153 50.3935C354.278 52.0104 353.383 54.1119 353.383 56.86C353.383 58.6388 354.361 60.4177 356.315 62.2769C358.188 64.1362 361.528 65.5911 366.252 66.5615C373.419 68.0969 378.714 69.7138 382.053 71.2504C386.939 73.5126 390.442 76.2619 392.397 79.3351C394.352 82.407 395.411 85.9635 395.411 90.0058C395.411 96.3103 392.967 101.565 388.162 105.77C383.437 109.892 376.515 111.994 367.311 111.994C366.171 111.994 362.994 111.752 357.945 111.185C355.665 110.943 352.976 110.377 349.882 109.568C349.067 109.326 347.112 108.599 343.854 107.225C343.35 106.934 342.908 106.549 342.551 106.092C342.389 105.608 341.981 103.344 341.493 99.3019C340.678 92.6722 340.19 88.7115 340.108 87.4185ZM407.226 48.6146C413.66 45.9469 418.303 43.2792 421.154 40.6919C424.085 38.1058 427.099 33.8212 430.357 28H434.999C435.489 29.455 435.733 30.91 435.733 32.4466C435.733 35.2762 435.651 37.4593 435.651 39.075L435.407 43.8454C435.407 44.0877 435.407 44.7355 435.489 45.7046L437.362 45.785C437.606 45.785 440.213 45.7046 445.018 45.4623C445.425 45.4623 447.461 45.3808 451.127 45.3016C451.452 46.7554 451.696 48.0497 451.696 49.1808C451.696 50.4751 451.452 51.9301 451.045 53.547C449.254 53.7893 447.95 53.8696 446.972 53.8696C446.566 53.8696 445.669 53.8696 444.366 53.7089H440.132L438.665 53.6273L434.755 53.7881L434.593 84.8324C434.511 90.8143 434.593 94.6143 434.918 96.0693C435.245 97.6046 435.896 98.9793 436.874 100.354C438.094 100.92 439.479 101.244 441.027 101.244C442.493 101.244 443.552 101.081 444.286 100.838C445.018 100.515 446.241 99.7877 447.869 98.4947C448.195 98.1708 448.765 97.8469 449.417 97.3623C450.72 98.3327 451.859 99.3835 452.674 100.434L453 101.405C451.045 104.396 448.357 106.74 444.855 108.439C441.435 110.136 437.769 110.944 433.86 110.944C428.728 110.944 424.656 109.327 421.48 106.174C418.304 102.94 416.756 98.0089 416.756 91.2988L417.082 77.0704V53.8684L414.556 53.7881L408.61 53.8684L407.552 53.6261C407.227 53.1415 407.064 52.7361 407.064 52.2515C407.064 51.9288 407.145 50.7161 407.226 48.6146Z"
        fill="#EB2845" />
</svg>