<svg width="649" height="98" viewBox="0 0 649 98" fill="none" xmlns="http://www.w3.org/2000/svg">
<path d="M494.761 1.98912H574.827V16.7672H543.065V94.5127H527.183V16.7672H494.761V1.98912Z" fill="black"/>
<path d="M363.082 1.98912V16.7672H298.904V40.5406H350.516V55.3186H298.904V79.7346H363.082V94.5127H283.023V16.7672H283.017V1.98912H363.082Z" fill="black"/>
<path d="M403.062 2.02771H382.279L456.719 94.5513H477.563L440.338 48.3213L477.503 2.0983L456.719 2.13042L429.932 35.3985L403.062 2.02771Z" fill="black"/>
<path d="M424.388 68.1178L413.981 55.1773L382.219 94.6219H403.062L424.388 68.1178Z" fill="black"/>
<path fill-rule="evenodd" clip-rule="evenodd" d="M283.58 94.5127L209.039 1.95052H189.188V94.4741H205.069V21.7274L263.63 94.5127H283.58Z" fill="black"/>
<path d="M578.397 93.9476C577.233 93.9476 576.244 93.5447 575.416 92.7389C574.587 91.9331 574.178 90.9575 574.188 89.8018C574.178 88.6779 574.587 87.7129 575.416 86.9071C576.244 86.1013 577.233 85.6983 578.397 85.6983C579.515 85.6983 580.494 86.1013 581.323 86.9071C582.163 87.7129 582.581 88.6779 582.593 89.8018C582.581 90.5652 582.388 91.2649 582 91.8905C581.603 92.5268 581.097 93.0252 580.462 93.3857C579.837 93.7568 579.149 93.9476 578.397 93.9476Z" fill="black"/>
<path d="M605.502 54.9701H612.539V82.0826C612.529 84.5743 611.99 86.7056 610.936 88.4976C609.871 90.2895 608.396 91.6572 606.503 92.6221C604.62 93.5763 602.414 94.0642 599.906 94.0642C597.614 94.0642 595.559 93.6506 593.73 92.8448C591.901 92.039 590.448 90.8302 589.383 89.2397C588.306 87.6492 587.779 85.6665 587.779 83.2914H594.828C594.838 84.3305 595.075 85.2316 595.527 85.9845C595.978 86.7373 596.602 87.3098 597.399 87.7128C598.205 88.1157 599.132 88.3172 600.175 88.3172C601.305 88.3172 602.274 88.0839 603.059 87.6067C603.844 87.1402 604.447 86.4404 604.867 85.5073C605.275 84.585 605.491 83.4397 605.502 82.0826V54.9701Z" fill="black"/>
<path d="M641.495 65.5733C641.323 63.9298 640.57 62.6468 639.257 61.735C637.933 60.8125 636.222 60.3565 634.124 60.3565C632.65 60.3565 631.381 60.5793 630.326 61.014C629.272 61.4593 628.454 62.053 627.894 62.8058C627.335 63.5587 627.055 64.4176 627.033 65.3825C627.033 66.1884 627.226 66.8881 627.603 67.4713C627.98 68.0651 628.485 68.5635 629.142 68.9664C629.787 69.3799 630.508 69.7192 631.294 69.9948C632.09 70.2705 632.887 70.5039 633.683 70.6947L637.352 71.596C638.827 71.9352 640.258 72.3913 641.624 72.9744C642.99 73.547 644.228 74.2786 645.314 75.1586C646.402 76.0388 647.263 77.099 647.897 78.3397C648.532 79.5802 648.855 81.0328 648.855 82.7081C648.855 84.9666 648.274 86.9494 647.1 88.6671C645.928 90.3742 644.239 91.7102 642.022 92.6752C639.816 93.6295 637.148 94.1172 634.006 94.1172C630.971 94.1172 628.324 93.6508 626.097 92.7177C623.859 91.7952 622.115 90.4379 620.856 88.6565C619.597 86.8752 618.92 84.7015 618.823 82.1461H625.796C625.893 83.4821 626.323 84.5956 627.055 85.4968C627.797 86.3874 628.765 87.0449 629.949 87.4902C631.144 87.9249 632.478 88.1476 633.952 88.1476C635.491 88.1476 636.847 87.9143 638.019 87.4583C639.181 87.0024 640.096 86.3663 640.753 85.5393C641.42 84.7227 641.754 83.7579 641.764 82.6552C641.754 81.6479 641.451 80.8101 640.87 80.1527C640.279 79.4954 639.461 78.944 638.417 78.4987C637.363 78.0534 636.136 77.6504 634.737 77.3005L630.283 76.1765C627.065 75.3601 624.515 74.1196 622.653 72.4549C620.782 70.7902 619.855 68.5847 619.855 65.8172C619.855 63.5482 620.479 61.5548 621.739 59.8476C622.987 58.1406 624.698 56.8151 626.861 55.8714C629.035 54.9172 631.488 54.4505 634.22 54.4505C636.997 54.4505 639.428 54.9172 641.527 55.8714C643.625 56.8151 645.272 58.13 646.466 59.8052C647.66 61.4805 648.285 63.3997 648.317 65.5733H641.495Z" fill="black"/>
<path d="M56.5068 0L113.014 98H0L56.5068 0Z" fill="black"/>
<path d="M179.345 2.78906L128.631 92.513Z" fill="black"/>
<path d="M179.345 2.78906L128.631 92.513" stroke="black" stroke-linecap="round" stroke-linejoin="round"/>
</svg>
