<svg width="441" height="131" viewBox="0 0 441 131" fill="none" xmlns="http://www.w3.org/2000/svg">
    <mask id="mask0_0_1" style="mask-type:luminance" maskUnits="userSpaceOnUse" x="0" y="0"
        width="441" height="131">
        <path d="M441 0H0V130.974H441V0Z" fill="white" />
    </mask>
    <g mask="url(#mask0_0_1)">
        <path
            d="M388.118 129.945C386.977 129.945 385.913 129.64 384.925 129.105L374.815 123.069C373.294 122.228 374.056 121.922 374.511 121.77C376.563 121.082 376.943 120.929 379.072 119.707C379.3 119.554 379.604 119.63 379.831 119.783L387.585 124.444C387.888 124.597 388.268 124.597 388.496 124.444L418.826 106.794C419.128 106.641 419.284 106.335 419.284 105.954V70.7297C419.284 70.3479 419.128 70.0423 418.826 69.8895L388.496 52.3161C388.192 52.1631 387.812 52.1631 387.585 52.3161L357.256 69.8895C356.952 70.0423 356.8 70.4241 356.8 70.7297V105.954C356.8 106.259 356.952 106.641 357.256 106.794L365.541 111.608C370.025 113.9 372.838 111.226 372.838 108.551V73.7862C372.838 73.3278 373.218 72.8694 373.752 72.8694H377.628C378.084 72.8694 378.54 73.2513 378.54 73.7862V108.551C378.54 114.588 375.271 118.102 369.57 118.102C367.822 118.102 366.454 118.102 362.576 116.192L354.595 111.608C352.62 110.461 351.403 108.322 351.403 106.03V70.8065C351.403 68.5139 352.62 66.3747 354.595 65.2285L384.925 47.5787C386.825 46.509 389.41 46.509 391.309 47.5787L421.639 65.2285C423.614 66.3747 424.83 68.5139 424.83 70.8065V106.03C424.83 108.322 423.614 110.461 421.639 111.608L391.309 129.257C390.397 129.64 389.258 129.945 388.118 129.945Z"
            fill="#5FA04E" />
        <path
            d="M397.544 105.724C384.24 105.724 381.503 99.6112 381.503 94.4155C381.503 93.9571 381.883 93.4986 382.415 93.4986H386.367C386.825 93.4986 387.205 93.8043 387.205 94.2627C387.812 98.3121 389.56 100.299 397.618 100.299C404.004 100.299 406.741 98.8472 406.741 95.4089C406.741 93.4225 405.978 91.9707 396.021 90.9772C387.736 90.1365 382.567 88.3029 382.567 81.6554C382.567 75.4667 387.736 71.7989 396.401 71.7989C406.133 71.7989 410.921 75.161 411.529 82.496C411.529 82.7254 411.453 82.9544 411.303 83.1838C411.147 83.3365 410.921 83.4895 410.69 83.4895H406.661C406.285 83.4895 405.903 83.1838 405.827 82.8016C404.914 78.5992 402.557 77.2241 396.325 77.2241C389.332 77.2241 388.496 79.6689 388.496 81.5026C388.496 83.7184 389.484 84.4062 398.91 85.6287C408.259 86.851 412.669 88.6085 412.669 95.1794C412.669 101.903 407.119 105.724 397.544 105.724Z"
            fill="#5FA04E" />
        <path
            d="M441.33 68.7425C441.33 71.9517 438.668 74.626 435.473 74.626C432.282 74.626 429.622 72.0279 429.622 68.7425C429.622 65.3808 432.358 62.8594 435.473 62.8594C438.592 62.8594 441.33 65.457 441.33 68.7425ZM430.535 68.7425C430.535 71.4933 432.74 73.7091 435.397 73.7091C438.136 73.7091 440.341 71.4168 440.341 68.7425C440.341 65.9919 438.136 63.8527 435.397 63.8527C432.816 63.8527 430.535 65.9919 430.535 68.7425ZM433.272 65.457H435.553C436.313 65.457 437.834 65.457 437.834 67.2144C437.834 68.4369 437.071 68.6662 436.613 68.819C437.528 68.8953 437.603 69.5069 437.678 70.3471C437.754 70.882 437.834 71.7989 437.984 72.1045H436.613C436.613 71.7989 436.387 70.1181 436.387 70.0415C436.313 69.6597 436.161 69.5069 435.705 69.5069H434.563V72.1807H433.272V65.457ZM434.487 68.3607H435.473C436.312 68.3607 436.463 67.7495 436.463 67.4438C436.463 66.527 435.855 66.527 435.473 66.527H434.413V68.3607H434.487Z"
            fill="#5FA04E" />
        <path fill-rule="evenodd" clip-rule="evenodd"
            d="M72.1352 69.2239C72.1352 67.8487 71.3753 66.5501 70.1591 65.8622L38.0059 47.1425C37.4739 46.8369 36.8658 46.6841 36.2576 46.6079C36.1817 46.6079 35.9537 46.6079 35.9537 46.6079C35.3456 46.6079 34.7374 46.8369 34.2054 47.1425L1.97631 65.7857C0.76012 66.4735 0 67.7726 0 69.2239L0.076012 119.347C0.076012 120.035 0.456073 120.722 1.06417 121.028C1.67227 121.41 2.43239 121.41 2.96448 121.028L22.1195 110.025C23.3357 109.338 24.0958 108.039 24.0958 106.664V83.2065C24.0958 81.8313 24.8559 80.5322 26.0722 79.8448L34.2054 75.1075C34.8136 74.7252 35.4975 74.5724 36.1817 74.5724C36.8658 74.5724 37.5499 74.7252 38.0821 75.1075L46.2151 79.8448C47.4313 80.5322 48.1917 81.8313 48.1917 83.2065V106.664C48.1917 108.039 48.9518 109.338 50.168 110.025L69.1711 121.028C69.7789 121.41 70.539 121.41 71.1472 121.028C71.7555 120.722 72.1352 120.035 72.1352 119.347V69.2239Z"
            fill="#333333" />
        <path fill-rule="evenodd" clip-rule="evenodd"
            d="M227.049 0.229221C226.439 -0.076407 225.68 -0.076407 225.148 0.229221C224.54 0.611252 224.16 1.22251 224.16 1.91017V51.5745C224.16 52.0329 223.932 52.4913 223.475 52.7974C223.019 53.0264 222.563 53.0264 222.107 52.7974L214.05 48.1363C212.835 47.4489 211.389 47.4489 210.174 48.1363L177.944 66.856C176.729 67.5439 175.969 68.8425 175.969 70.2177V107.581C175.969 108.956 176.729 110.255 177.944 110.943L210.174 129.663C211.389 130.35 212.835 130.35 214.05 129.663L246.28 110.943C247.495 110.255 248.255 108.956 248.255 107.581V14.4409C248.255 12.9892 247.495 11.6903 246.28 11.0026L227.049 0.229221ZM224.084 95.2794C224.084 95.6612 223.932 95.9668 223.628 96.1198L212.605 102.538C212.301 102.691 211.921 102.691 211.617 102.538L200.596 96.1198C200.292 95.9668 200.14 95.585 200.14 95.2794V82.4432C200.14 82.0609 200.292 81.7554 200.596 81.6026L211.617 75.1844C211.921 75.0316 212.301 75.0316 212.605 75.1844L223.628 81.6026C223.932 81.7554 224.084 82.1375 224.084 82.4432V95.2794Z"
            fill="#333333" />
        <path fill-rule="evenodd" clip-rule="evenodd"
            d="M334.298 82.1372C335.515 81.4493 336.199 80.1507 336.199 78.7751V69.6826C336.199 68.3075 335.439 67.0085 334.298 66.3211L302.296 47.6779C301.081 46.99 299.637 46.99 298.42 47.6779L266.192 66.3972C264.975 67.085 264.215 68.3841 264.215 69.7594V107.122C264.215 108.498 264.975 109.797 266.192 110.484L298.192 128.822C299.409 129.509 300.853 129.509 301.993 128.822L321.377 117.972C321.985 117.667 322.364 116.979 322.364 116.291C322.364 115.603 321.985 114.916 321.377 114.61L288.995 95.8902C288.388 95.5084 288.008 94.8973 288.008 94.2094V82.5193C288.008 81.8316 288.388 81.1437 288.995 80.8381L299.105 75.0313C299.713 74.6495 300.473 74.6495 301.081 75.0313L311.191 80.8381C311.799 81.2204 312.178 81.8316 312.178 82.5193V91.688C312.178 92.3757 312.558 93.0631 313.168 93.3689C313.776 93.751 314.535 93.751 315.143 93.3689L334.298 82.1372Z"
            fill="#333333" />
        <path fill-rule="evenodd" clip-rule="evenodd"
            d="M299.865 80.3806C300.093 80.2276 300.399 80.2276 300.627 80.3806L306.782 83.9716C307.01 84.1244 307.162 84.3538 307.162 84.6594V91.8415C307.162 92.1472 307.01 92.3766 306.782 92.5294L300.627 96.1204C300.399 96.2732 300.093 96.2732 299.865 96.1204L293.709 92.5294C293.481 92.3766 293.329 92.1472 293.329 91.8415V84.6594C293.329 84.3538 293.481 84.1244 293.709 83.9716L299.865 80.3806Z"
            fill="#5FA04E" />
        <path
            d="M126.026 47.8305C124.809 47.1431 123.365 47.1431 122.149 47.8305L90.1477 66.3977C88.9315 67.0854 88.2474 68.3841 88.2474 69.7597V106.97C88.2474 108.345 89.0075 109.644 90.1477 110.332L122.149 128.898C123.365 129.586 124.809 129.586 126.026 128.898L158.026 110.332C159.243 109.644 159.927 108.345 159.927 106.97V69.7597C159.927 68.3841 159.167 67.0854 158.026 66.3977L126.026 47.8305Z"
            fill="url(#paint0_linear_0_1)" />
        <path
            d="M158.103 66.3977L125.95 47.8305C125.646 47.6777 125.266 47.5249 124.962 47.4487L88.9322 109.415C89.2361 109.796 89.6163 110.102 89.996 110.332L122.149 128.899C123.062 129.433 124.125 129.586 125.114 129.28L158.939 67.0854C158.711 66.7798 158.407 66.5504 158.103 66.3977Z"
            fill="url(#paint1_linear_0_1)" />
        <path
            d="M158.103 110.33C159.016 109.795 159.7 108.879 160.004 107.885L124.81 47.3712C123.898 47.2184 122.91 47.2944 122.074 47.8295L90.1483 66.3199L124.582 129.432C125.038 129.356 125.57 129.203 126.026 128.974L158.103 110.33Z"
            fill="url(#paint2_linear_0_1)" />
    </g>
    <defs>
        <linearGradient id="paint0_linear_0_1" x1="137.12" y1="61.6587" x2="107.944" y2="120.871"
            gradientUnits="userSpaceOnUse">
            <stop stop-color="#3F873F" />
            <stop offset="0.3296" stop-color="#3F8B3D" />
            <stop offset="0.6367" stop-color="#3E9638" />
            <stop offset="0.9341" stop-color="#3DA92E" />
            <stop offset="1" stop-color="#3DAE2B" />
        </linearGradient>
        <linearGradient id="paint1_linear_0_1" x1="119.224" y1="92.7095" x2="200.707" y2="32.8167"
            gradientUnits="userSpaceOnUse">
            <stop offset="0.1376" stop-color="#3F873F" />
            <stop offset="0.4016" stop-color="#52A044" />
            <stop offset="0.7129" stop-color="#64B749" />
            <stop offset="0.9081" stop-color="#6ABF4B" />
        </linearGradient>
        <linearGradient id="paint2_linear_0_1" x1="87.0749" y1="88.3514" x2="161.124" y2="88.3514"
            gradientUnits="userSpaceOnUse">
            <stop offset="0.0919165" stop-color="#6ABF4B" />
            <stop offset="0.2871" stop-color="#64B749" />
            <stop offset="0.5984" stop-color="#52A044" />
            <stop offset="0.8624" stop-color="#3F873F" />
        </linearGradient>
    </defs>
</svg>