<svg width="374" height="165" viewBox="0 0 374 165" fill="none" xmlns="http://www.w3.org/2000/svg">
<path fill-rule="evenodd" clip-rule="evenodd" d="M58.4395 83.458C69.0475 73.3434 65.8091 60.8324 56.1996 45.6716C46.59 30.5107 27.2482 25.1156 23.6403 28.5557C20.0323 31.9959 19.2346 56.5935 28.8442 71.7544C38.4537 86.9152 47.8315 93.5725 58.4395 83.458Z" fill="url(#paint0_linear_7_258)"/>
<path fill-rule="evenodd" clip-rule="evenodd" d="M67.6127 84.8555C75.4626 97.2402 85.9553 92.713 98.9424 80.3301C111.929 67.9472 117.313 44.2253 114.643 40.013C111.973 35.8008 91.6865 36.0102 78.6995 48.3931C65.7124 60.776 59.7628 72.4708 67.6127 84.8555Z" fill="url(#paint1_linear_7_258)"/>
<path fill-rule="evenodd" clip-rule="evenodd" d="M63.3222 78.0427C76.3567 79.6452 81.4815 67.5971 83.8698 48.1214C86.2581 28.6458 76.4042 8.06029 71.9709 7.51526C67.5377 6.97024 52.6455 24.5135 50.2572 43.9891C47.8689 63.4647 50.2878 76.4403 63.3222 78.0427Z" fill="url(#paint2_linear_7_258)"/>
<path fill-rule="evenodd" clip-rule="evenodd" d="M60.0376 164.174C87.362 164.174 109.521 156.23 109.521 120.207C109.521 84.1835 87.362 54.623 60.0376 54.623C32.7133 54.623 10.5712 84.1835 10.5712 120.207C10.5712 156.23 32.7133 164.174 60.0376 164.174Z" fill="url(#paint3_linear_7_258)"/>
<path d="M85.0304 112.853C88.9339 112.853 92.0983 111.38 92.0983 109.563C92.0983 107.746 88.9339 106.273 85.0304 106.273C81.1269 106.273 77.9625 107.746 77.9625 109.563C77.9625 111.38 81.1269 112.853 85.0304 112.853Z" fill="#EAADCC"/>
<path d="M32.6891 110.854C36.5635 111.33 39.8837 110.254 40.105 108.451C40.3262 106.648 37.3648 104.8 33.4904 104.324C29.616 103.848 26.2959 104.924 26.0746 106.727C25.8533 108.53 28.8148 110.378 32.6891 110.854Z" fill="#EAADCC"/>
<path d="M64.5658 108.398C62.4385 110.128 59.9815 110.833 57.1947 110.515C54.408 110.196 52.3424 109.039 50.998 107.043" stroke="black" stroke-width="6" stroke-linecap="round" stroke-linejoin="round"/>
<path fill-rule="evenodd" clip-rule="evenodd" d="M37.1935 91.2775C39.1442 91.2093 40.9378 91.9387 42.2607 93.1731C43.5837 94.4075 44.436 96.147 44.5041 98.0989C44.5721 100.051 43.8431 101.846 42.6094 103.17C41.3757 104.494 39.6372 105.347 37.6864 105.415C35.7358 105.483 33.9424 104.754 32.6196 103.519C31.2968 102.285 30.4446 100.545 30.3766 98.593C30.3085 96.641 31.0374 94.8463 32.271 93.5225C33.5046 92.1986 35.2429 91.3458 37.1935 91.2775Z" fill="black"/>
<path fill-rule="evenodd" clip-rule="evenodd" d="M37.5644 97.1896C37.5201 95.9187 36.4541 94.9242 35.1846 94.9686C33.9143 95.013 32.9205 96.0796 32.9648 97.3504C33.0091 98.6213 34.0748 99.6158 35.3451 99.5714C36.6146 99.5266 37.6088 98.4605 37.5644 97.1896Z" fill="white"/>
<path fill-rule="evenodd" clip-rule="evenodd" d="M80.0185 93.0728C81.9692 93.0046 83.7627 93.7339 85.0855 94.9683C86.4084 96.2027 87.2606 97.9422 87.3287 99.8942C87.3968 101.846 86.6678 103.641 85.4342 104.965C84.2006 106.289 82.4622 107.142 80.5115 107.21C78.5608 107.278 76.7673 106.549 75.4444 105.314C74.1215 104.08 73.2693 102.34 73.2012 100.388C73.1331 98.4363 73.8622 96.6415 75.0958 95.3177C76.3295 93.9939 78.0679 93.141 80.0185 93.0728Z" fill="black"/>
<path d="M43.5186 98.1333C43.6357 101.493 41.0092 104.311 37.652 104.428C34.2951 104.546 31.4792 101.918 31.3621 98.5586C31.2451 95.1995 33.8712 92.3815 37.228 92.264C40.5853 92.1465 43.4015 94.7741 43.5186 98.1333ZM45.4899 98.0643C45.3349 93.6157 41.6052 90.1358 37.1593 90.2914C32.7137 90.447 29.2358 94.1791 29.3908 98.6276C29.5458 103.076 33.275 106.556 37.7207 106.401C42.1667 106.245 45.645 102.513 45.4899 98.0643Z" fill="white" stroke="white" stroke-width="3"/>
<path d="M86.3432 99.9285C86.4603 103.288 83.8341 106.106 80.4769 106.224C77.1201 106.341 74.3038 103.713 74.1867 100.354C74.0696 96.9948 76.6961 94.1767 80.053 94.0592C83.4102 93.9418 86.2261 96.5694 86.3432 99.9285ZM88.3145 99.8595C88.1595 95.4109 84.4302 91.9311 79.9843 92.0866C75.5386 92.2422 72.0604 95.9744 72.2154 100.423C72.3704 104.872 76.1 108.352 80.5457 108.196C84.9916 108.041 88.4696 104.308 88.3145 99.8595Z" fill="white" stroke="white" stroke-width="3"/>
<path fill-rule="evenodd" clip-rule="evenodd" d="M80.3892 98.9847C80.3449 97.7139 79.2792 96.7194 78.0091 96.7639C76.7391 96.8083 75.7452 97.8748 75.7895 99.1457C75.8338 100.417 76.8995 101.411 78.1695 101.367C79.4396 101.322 80.4335 100.256 80.3892 98.9847Z" fill="white"/>
<path d="M22.5702 123.545L46.8968 148.876" stroke="#ECB732" stroke-width="11" stroke-linecap="round"/>
<path d="M43.6095 126.505L28.1588 142.954" stroke="#ECB732" stroke-width="11" stroke-linecap="round"/>
<path d="M97.1938 123.545L72.8672 148.876" stroke="#ECB732" stroke-width="11" stroke-linecap="round"/>
<path d="M76.1545 126.505L91.6052 142.954" stroke="#ECB732" stroke-width="11" stroke-linecap="round"/>
<path d="M69.9086 67.6178L53.8004 83.7378" stroke="#FFC73B" stroke-width="11" stroke-linecap="round"/>
<path d="M66.6212 83.7378L50.513 67.6177" stroke="#FFC73B" stroke-width="11" stroke-linecap="round"/>
<path d="M146.615 128.024V55.087H175.302C180.817 55.087 185.516 56.1435 189.397 58.2566C193.279 60.3459 196.238 63.2544 198.273 66.9819C200.332 70.6857 201.362 74.9593 201.362 79.8028C201.362 84.6462 200.321 88.9199 198.238 92.6237C196.155 96.3275 193.137 99.2122 189.184 101.278C185.255 103.343 180.498 104.376 174.912 104.376H156.627V92.0182H172.426C175.385 92.0182 177.823 91.5078 179.74 90.4869C181.681 89.4422 183.125 88.0058 184.072 86.1776C185.042 84.3257 185.527 82.2008 185.527 79.8028C185.527 77.3811 185.042 75.268 184.072 73.4636C183.125 71.6354 181.681 70.2227 179.74 69.2256C177.799 68.2046 175.338 67.6942 172.355 67.6942H161.988V128.024H146.615Z" fill="black"/>
<path d="M211.064 128.024V73.3211H226.188V128.024H211.064ZM218.661 66.2696C216.413 66.2696 214.484 65.5217 212.874 64.026C211.288 62.5065 210.495 60.6902 210.495 58.5771C210.495 56.4878 211.288 54.6952 212.874 53.1995C214.484 51.6799 216.413 50.9202 218.661 50.9202C220.91 50.9202 222.827 51.6799 224.413 53.1995C226.023 54.6952 226.827 56.4878 226.827 58.5771C226.827 60.6902 226.023 62.5065 224.413 64.026C222.827 65.5217 220.91 66.2696 218.661 66.2696Z" fill="black"/>
<path d="M253.429 96.3987V128.024H238.304V73.3211H252.719V82.9724H253.358C254.565 79.7909 256.588 77.2742 259.429 75.4223C262.269 73.5467 265.713 72.6089 269.76 72.6089C273.548 72.6089 276.849 73.4398 279.666 75.1018C282.483 76.7638 284.672 79.138 286.234 82.2245C287.796 85.2873 288.578 88.9436 288.578 93.1935V128.024H273.453V95.9001C273.477 92.5524 272.624 89.9408 270.897 88.0651C269.169 86.1657 266.79 85.216 263.76 85.216C261.725 85.216 259.926 85.6553 258.364 86.5337C256.825 87.4122 255.618 88.6943 254.742 90.38C253.89 92.042 253.452 94.0482 253.429 96.3987Z" fill="black"/>
<path d="M300.498 128.024V73.3211H315.623V128.024H300.498ZM308.096 66.2696C305.847 66.2696 303.918 65.5217 302.309 64.026C300.723 62.5065 299.93 60.6902 299.93 58.5771C299.93 56.4878 300.723 54.6952 302.309 53.1995C303.918 51.6799 305.847 50.9202 308.096 50.9202C310.344 50.9202 312.262 51.6799 313.847 53.1995C315.457 54.6952 316.262 56.4878 316.262 58.5771C316.262 60.6902 315.457 62.5065 313.847 64.026C312.262 65.5217 310.344 66.2696 308.096 66.2696Z" fill="black"/>
<path d="M343.289 129.056C339.81 129.056 336.709 128.451 333.987 127.24C331.265 126.005 329.111 124.189 327.525 121.791C325.963 119.369 325.182 116.354 325.182 112.745C325.182 109.706 325.738 107.154 326.851 105.088C327.963 103.023 329.478 101.361 331.395 100.103C333.312 98.8442 335.49 97.8945 337.928 97.2534C340.39 96.6124 342.97 96.1613 345.668 95.9001C348.84 95.5677 351.396 95.2591 353.337 94.9742C355.278 94.6655 356.686 94.2144 357.562 93.6208C358.437 93.0273 358.875 92.1488 358.875 90.9854V90.7718C358.875 88.5162 358.165 86.7712 356.745 85.5366C355.349 84.302 353.36 83.6847 350.78 83.6847C348.058 83.6847 345.893 84.2901 344.283 85.501C342.674 86.6881 341.609 88.1838 341.088 89.9883L327.099 88.8486C327.809 85.5247 329.206 82.6519 331.289 80.2302C333.372 77.7847 336.058 75.909 339.348 74.6032C342.662 73.2736 346.496 72.6089 350.851 72.6089C353.881 72.6089 356.781 72.965 359.55 73.6773C362.343 74.3895 364.816 75.4935 366.97 76.9893C369.148 78.4851 370.864 80.4082 372.118 82.7587C373.373 85.0855 374 87.8752 374 91.1279V128.024H359.656V120.438H359.23C358.355 122.147 357.183 123.655 355.715 124.961C354.248 126.243 352.485 127.252 350.425 127.988C348.366 128.7 345.987 129.056 343.289 129.056ZM347.621 118.586C349.845 118.586 351.81 118.147 353.514 117.268C355.218 116.366 356.556 115.155 357.526 113.636C358.497 112.116 358.982 110.395 358.982 108.472V102.667C358.508 102.975 357.858 103.26 357.029 103.521C356.224 103.759 355.313 103.984 354.295 104.198C353.278 104.388 352.26 104.566 351.242 104.732C350.224 104.875 349.301 105.005 348.473 105.124C346.697 105.385 345.147 105.801 343.822 106.371C342.496 106.94 341.467 107.712 340.733 108.685C339.999 109.635 339.632 110.822 339.632 112.247C339.632 114.312 340.378 115.891 341.869 116.983C343.384 118.052 345.301 118.586 347.621 118.586Z" fill="black"/>
<defs>
<linearGradient id="paint0_linear_7_258" x1="5320.78" y1="-4113.01" x2="9719.52" y2="8187.37" gradientUnits="userSpaceOnUse">
<stop stop-color="#52CE63"/>
<stop offset="1" stop-color="#51A256"/>
</linearGradient>
<linearGradient id="paint1_linear_7_258" x1="4261.62" y1="5351.7" x2="-8033.35" y2="9741.14" gradientUnits="userSpaceOnUse">
<stop stop-color="#52CE63"/>
<stop offset="1" stop-color="#51A256"/>
</linearGradient>
<linearGradient id="paint2_linear_7_258" x1="5416.19" y1="664.537" x2="2983.9" y2="20448.8" gradientUnits="userSpaceOnUse">
<stop stop-color="#8AE99C"/>
<stop offset="1" stop-color="#52CE63"/>
</linearGradient>
<linearGradient id="paint3_linear_7_258" x1="16228" y1="9185.03" x2="13601.6" y2="52280.9" gradientUnits="userSpaceOnUse">
<stop stop-color="#FFE56C"/>
<stop offset="1" stop-color="#FFC63A"/>
</linearGradient>
</defs>
</svg>
