<svg width="380" height="136" viewBox="0 0 380 136" fill="none" xmlns="http://www.w3.org/2000/svg">
<path d="M64.1 80.4041C70.9594 80.4041 76.52 74.8274 76.52 67.9482C76.52 61.069 70.9594 55.4924 64.1 55.4924C57.2406 55.4924 51.68 61.069 51.68 67.9482C51.68 74.8274 57.2406 80.4041 64.1 80.4041Z" fill="#087EA4"/>
<path d="M64.1 95.9738C98.3969 95.9738 126.2 83.4263 126.2 67.9482C126.2 52.4701 98.3969 39.9225 64.1 39.9225C29.8031 39.9225 2 52.4701 2 67.9482C2 83.4263 29.8031 95.9738 64.1 95.9738Z" stroke="#087EA4" stroke-width="4"/>
<path d="M39.8989 81.961C57.0473 111.749 81.7841 129.623 95.15 121.884C108.516 114.145 105.45 83.7231 88.3011 53.9354C71.1526 24.1477 46.4159 6.27375 33.05 14.0128C19.6841 21.7519 22.7505 52.1733 39.8989 81.961Z" stroke="#087EA4" stroke-width="4"/>
<path d="M39.8989 53.9354C22.7505 83.7231 19.6841 114.145 33.05 121.884C46.4159 129.623 71.1526 111.749 88.3011 81.961C105.45 52.1734 108.516 21.7519 95.15 14.0128C81.7841 6.27377 57.0474 24.1477 39.8989 53.9354Z" stroke="#087EA4" stroke-width="4"/>
<path d="M134.686 101.466V33.1714H158.983C164.263 33.1714 168.646 34.0829 172.129 35.9059C175.635 37.7288 178.254 40.2521 179.984 43.4757C181.715 46.677 182.58 50.3785 182.58 54.5802C182.58 58.7597 181.704 62.439 179.951 65.6181C178.22 68.775 175.602 71.2315 172.096 72.9878C168.612 74.7441 164.23 75.6222 158.949 75.6222H140.544V66.7519H158.017C161.346 66.7519 164.053 66.2739 166.138 65.318C168.246 64.362 169.788 62.9726 170.765 61.1496C171.741 59.3266 172.229 57.1368 172.229 54.5802C172.229 52.0014 171.73 49.7671 170.732 47.8775C169.755 45.9878 168.213 44.5428 166.105 43.5424C164.019 42.5197 161.279 42.0084 157.884 42.0084H144.97V101.466H134.686ZM168.335 70.6535L185.176 101.466H173.461L156.952 70.6535H168.335Z" fill="black"/>
<path d="M215.689 102.5C210.652 102.5 206.314 101.422 202.675 99.2653C199.058 97.0866 196.263 94.0298 194.288 90.0948C192.335 86.1377 191.359 81.5024 191.359 76.1891C191.359 70.9425 192.335 66.3184 194.288 62.3167C196.263 58.3151 199.014 55.1916 202.542 52.9462C206.092 50.7009 210.242 49.5782 214.99 49.5782C217.874 49.5782 220.67 50.0561 223.377 51.0121C226.084 51.968 228.514 53.4687 230.666 55.5139C232.819 57.5592 234.516 60.2159 235.759 63.4839C237.001 66.7297 237.623 70.6757 237.623 75.3221V78.8569H196.984V71.3871H227.871C227.871 68.7638 227.338 66.4407 226.273 64.4176C225.208 62.3723 223.71 60.7605 221.78 59.5823C219.871 58.404 217.63 57.8149 215.056 57.8149C212.261 57.8149 209.82 58.5041 207.734 59.8824C205.671 61.2385 204.073 63.017 202.941 65.2179C201.832 67.3966 201.277 69.7643 201.277 72.3209V78.1566C201.277 81.5802 201.876 84.4925 203.075 86.8935C204.295 89.2945 205.992 91.1286 208.167 92.3958C210.341 93.6407 212.882 94.2632 215.789 94.2632C217.675 94.2632 219.394 93.9964 220.948 93.4629C222.501 92.9071 223.843 92.0846 224.975 90.9952C226.107 89.9059 226.972 88.5609 227.571 86.9602L236.99 88.6609C236.236 91.4398 234.882 93.8742 232.93 95.9639C230.999 98.0314 228.569 99.6432 225.641 100.799C222.734 101.933 219.417 102.5 215.689 102.5Z" fill="black"/>
<path d="M263.542 102.6C260.302 102.6 257.373 102 254.755 100.799C252.137 99.5765 250.062 97.8091 248.531 95.4971C247.022 93.185 246.268 90.3505 246.268 86.9936C246.268 84.1035 246.823 81.7247 247.932 79.8573C249.041 77.9899 250.539 76.5115 252.425 75.4221C254.311 74.3328 256.419 73.5102 258.749 72.9545C261.079 72.3987 263.453 71.9763 265.872 71.6873C268.934 71.3316 271.419 71.0426 273.327 70.8202C275.235 70.5757 276.622 70.1867 277.488 69.6531C278.353 69.1195 278.786 68.2525 278.786 67.052V66.8186C278.786 63.9063 277.965 61.6498 276.323 60.0491C274.703 58.4485 272.284 57.6482 269.067 57.6482C265.716 57.6482 263.076 58.3929 261.145 59.8824C259.237 61.3497 257.917 62.9837 257.185 64.7844L247.832 62.6502C248.942 59.5378 250.561 57.0257 252.692 55.1138C254.844 53.1796 257.318 51.7791 260.114 50.912C262.909 50.0228 265.85 49.5782 268.934 49.5782C270.975 49.5782 273.139 49.8227 275.424 50.3118C277.732 50.7787 279.884 51.6457 281.881 52.9129C283.9 54.1801 285.553 55.9919 286.84 58.3484C288.127 60.6827 288.771 63.7173 288.771 67.4522V101.466H279.052V94.4633H278.652C278.009 95.7527 277.044 97.0199 275.757 98.2649C274.47 99.5098 272.817 100.544 270.798 101.366C268.778 102.189 266.36 102.6 263.542 102.6ZM265.705 94.5967C268.457 94.5967 270.809 94.052 272.761 92.9627C274.736 91.8733 276.234 90.4505 277.255 88.6943C278.297 86.9158 278.819 85.015 278.819 82.9919V76.3892C278.464 76.7449 277.776 77.0784 276.755 77.3896C275.757 77.6786 274.614 77.9343 273.327 78.1566C272.04 78.3567 270.787 78.5456 269.566 78.7235C268.346 78.8791 267.325 79.0125 266.504 79.1237C264.574 79.3682 262.81 79.7795 261.212 80.3575C259.637 80.9355 258.372 81.7692 257.418 82.8585C256.486 83.9256 256.02 85.3484 256.02 87.127C256.02 89.5946 256.93 91.4621 258.749 92.7293C260.569 93.9742 262.887 94.5967 265.705 94.5967Z" fill="black"/>
<path d="M323.56 102.5C318.612 102.5 314.352 101.377 310.779 99.1319C307.229 96.8643 304.5 93.7408 302.591 89.7614C300.683 85.782 299.729 81.2245 299.729 76.0891C299.729 70.8869 300.705 66.2962 302.658 62.3167C304.611 58.3151 307.362 55.1916 310.912 52.9462C314.462 50.7009 318.645 49.5782 323.46 49.5782C327.343 49.5782 330.805 50.3007 333.844 51.7457C336.884 53.1685 339.336 55.1694 341.2 57.7482C343.086 60.327 344.207 63.3394 344.562 66.7853H334.876C334.344 64.3843 333.123 62.3167 331.215 60.5827C329.329 58.8487 326.799 57.9816 323.626 57.9816C320.853 57.9816 318.423 58.7153 316.337 60.1825C314.274 61.6276 312.665 63.6951 311.511 66.3851C310.358 69.0528 309.781 72.2097 309.781 75.8556C309.781 79.5905 310.346 82.8141 311.478 85.5263C312.61 88.2385 314.207 90.3394 316.271 91.8289C318.357 93.3184 320.809 94.0631 323.626 94.0631C325.513 94.0631 327.221 93.7186 328.752 93.0294C330.305 92.318 331.603 91.3065 332.646 89.9948C333.711 88.6831 334.455 87.1047 334.876 85.2595H344.562C344.207 88.572 343.13 91.5288 341.333 94.1298C339.536 96.7309 337.128 98.7762 334.111 100.266C331.115 101.755 327.598 102.5 323.56 102.5Z" fill="black"/>
<path d="M379.068 50.2451V58.2484H351.143V50.2451H379.068ZM358.632 37.9734H368.584V86.4267C368.584 88.3608 368.872 89.8169 369.449 90.7951C370.026 91.7511 370.769 92.4069 371.679 92.7626C372.611 93.0961 373.621 93.2628 374.708 93.2628C375.507 93.2628 376.206 93.2072 376.805 93.0961C377.404 92.9849 377.87 92.896 378.203 92.8293L380 101.066C379.423 101.288 378.602 101.511 377.537 101.733C376.472 101.978 375.141 102.111 373.543 102.133C370.925 102.178 368.484 101.711 366.221 100.733C363.957 99.7544 362.127 98.2426 360.729 96.1974C359.331 94.1521 358.632 91.5843 358.632 88.4942V37.9734Z" fill="black"/>
</svg>
