<svg width="538" height="139" viewBox="0 0 538 139" fill="none" xmlns="http://www.w3.org/2000/svg">
<path d="M126.024 7.99603C124.035 12.8557 121.464 17.1639 118.619 21.0241C106.071 8.16836 88.5182 0 69.1484 0C31.0945 0 0 31.088 0 69.4828C0 89.5418 8.53642 107.602 22.0781 120.354L24.6493 122.663C36.614 132.831 52.1784 139 69.1141 139C105.454 139 135.383 110.497 137.954 74.5147C140.011 57.0407 134.731 34.6725 126.024 7.99603ZM32.0887 120.94C30.1003 123.525 26.3978 123.801 23.8265 121.802C21.2553 119.803 20.9811 116.08 22.9695 113.495C24.9579 110.91 28.6604 110.635 31.2316 112.634C33.6657 114.633 34.0771 118.355 32.0887 120.94ZM125.612 100.157C108.642 122.939 72.1653 115.219 48.9216 116.356C48.9216 116.356 44.7733 116.632 40.6594 117.218C40.6594 117.218 42.2364 116.494 44.2248 115.77C60.612 110.049 68.3256 108.877 78.3019 103.742C96.986 94.1257 115.636 73.0672 119.373 51.2849C112.242 72.2055 90.5752 90.2656 70.8968 97.5723C57.3551 102.604 32.9801 107.464 32.9801 107.464L31.9859 106.878C15.4615 98.7096 14.8787 62.5896 45.1162 50.9747C58.3836 45.8049 70.9311 48.6655 85.3299 45.2534C100.586 41.669 118.276 30.1919 125.372 15.1649C133.292 39.3942 142.994 76.9273 125.612 100.157Z" fill="#6CB52D"/>
<path d="M177.208 96.7106C175.494 95.849 174.362 93.85 174.362 91.4029C174.362 87.9564 177.071 85.0957 180.636 85.0957C181.905 85.0957 183.07 85.5093 183.927 85.9574C190.338 90.2656 197.195 92.4024 203.16 92.4024C209.708 92.4024 213.582 89.5418 213.582 85.0957V84.82C213.582 79.5123 206.451 77.789 198.6 75.3764C188.761 72.5158 177.653 68.4833 177.653 55.5931V55.3174C177.653 42.5651 188.213 34.8103 201.446 34.8103C208.577 34.8103 215.982 36.8093 222.53 40.2559C224.655 41.3933 226.232 43.3923 226.232 46.1151C226.232 49.6995 223.387 52.4223 219.821 52.4223C218.553 52.4223 217.833 52.1466 216.839 51.6985C211.422 48.8378 205.868 47.1146 201.171 47.1146C195.172 47.1146 191.778 49.9752 191.778 53.6975V53.9732C191.778 59.0052 199.046 61.0042 206.897 63.5892C216.736 66.5877 227.706 71.1716 227.706 83.2346V83.5103C227.706 97.7102 216.736 104.707 202.92 104.707C194.178 104.741 184.887 102.018 177.208 96.7106Z" fill="black"/>
<path d="M233.363 42.703C233.363 38.3948 236.654 34.9482 240.905 34.9482C245.156 34.9482 248.619 38.3948 248.619 42.703V47.2869C253.624 40.2559 260.584 34.6725 271.417 34.6725C287.084 34.6725 302.477 47.149 302.477 69.6551V69.9308C302.477 92.299 287.221 104.913 271.417 104.913C260.309 104.913 253.316 99.33 248.619 93.0228V116.804C248.619 121.112 245.191 124.559 240.905 124.559C236.757 124.559 233.363 121.25 233.363 116.804V42.703ZM287.118 69.9308V69.6551C287.118 56.6271 278.411 48.1485 268.023 48.1485C257.601 48.1485 248.482 56.9028 248.482 69.6551V69.9308C248.482 82.821 257.601 91.4374 268.023 91.4374C278.411 91.5753 287.118 83.2346 287.118 69.9308Z" fill="black"/>
<path d="M308.477 42.703C308.477 38.3948 311.768 34.9482 316.019 34.9482C320.27 34.9482 323.732 38.3948 323.732 42.703V46.4253C324.452 40.704 333.846 34.9482 340.565 34.9482C345.399 34.9482 348.108 38.0846 348.108 42.5306C348.108 46.5286 345.399 49.2514 341.971 49.9752C331 51.8364 323.595 61.4523 323.595 74.756V96.9519C323.595 101.122 320.167 104.534 315.882 104.534C311.734 104.534 308.34 101.226 308.34 96.9519V42.703H308.477Z" fill="black"/>
<path d="M354.244 42.8408C354.244 38.5326 357.535 35.0861 361.786 35.0861C366.037 35.0861 369.5 38.5326 369.5 42.8408V97.1587C369.5 101.467 366.072 104.741 361.786 104.741C357.638 104.741 354.244 101.432 354.244 97.1587V42.8408Z" fill="black"/>
<path d="M377.351 42.8408C377.351 38.5326 380.642 35.0861 384.893 35.0861C389.144 35.0861 392.607 38.5326 392.607 42.8408V45.9772C396.892 39.67 403.166 34.9482 413.553 34.9482C428.672 34.9482 437.346 45.1156 437.346 60.7285V96.9864C437.346 101.295 434.055 104.569 429.803 104.569C425.552 104.569 422.09 101.26 422.09 96.9864V65.4503C422.09 54.9727 416.947 48.9757 407.691 48.9757C398.846 48.9757 392.572 55.2829 392.572 65.726V97.1242C392.572 101.432 389.144 104.707 384.859 104.707C380.711 104.707 377.317 101.398 377.317 97.1242L377.351 42.8408Z" fill="black"/>
<path d="M504.917 34.8103C500.632 34.8103 497.203 38.2569 497.203 42.5651V47.149C492.198 40.118 485.239 34.5346 474.405 34.5346C458.738 34.5346 443.345 47.0112 443.345 69.5172V69.793C443.345 92.1612 458.601 104.776 474.405 104.776C485.513 104.776 492.507 99.1922 497.203 93.0228C496.484 105.189 489.078 111.496 476.12 111.496C468.406 111.496 461.721 109.635 455.584 106.189C454.864 105.775 453.87 105.603 452.876 105.603C449.31 105.603 446.328 108.463 446.328 111.91C446.328 114.909 448.042 117.08 450.613 118.079C458.738 122.077 467.137 124.111 476.565 124.111C488.667 124.111 498.095 121.25 504.094 115.081C509.648 109.497 512.631 101.053 512.631 89.7141V42.703C512.631 38.2569 509.202 34.8103 504.917 34.8103ZM477.971 91.4029C467.412 91.4029 458.875 83.0967 458.875 69.7585V69.4828C458.875 56.4548 467.583 47.9762 477.971 47.9762C488.359 47.9762 497.512 56.7305 497.512 69.4828V69.7585C497.649 82.6831 488.53 91.4029 477.971 91.4029Z" fill="black"/>
<path d="M369.637 16.4746C369.637 20.7828 366.209 24.2294 361.924 24.2294C357.638 24.2294 354.21 20.7828 354.21 16.4746C354.21 12.1664 357.638 8.71983 361.924 8.71983C366.072 8.58196 369.637 12.0285 369.637 16.4746Z" fill="black"/>
<path d="M530.149 51.0092C525.864 51.0092 522.299 47.4247 522.299 43.1165C522.299 38.6704 525.864 35.2239 530.149 35.2239C534.572 35.2239 538 38.8083 538 43.1165C538 47.4247 534.572 51.0092 530.149 51.0092ZM530.149 36.3957C526.447 36.3957 523.464 39.3942 523.464 43.1165C523.464 46.8388 526.447 49.8373 530.149 49.8373C533.852 49.8373 536.834 46.8388 536.834 43.1165C536.834 39.2564 533.852 36.3957 530.149 36.3957ZM532.275 47.5626L529.978 43.9782H528.401V47.5626H527.132V38.5326H530.835C532.412 38.5326 533.818 39.67 533.818 41.2554C533.818 43.2544 531.966 43.9782 531.521 43.9782L533.955 47.5626H532.275ZM530.732 39.67H528.435V42.8063H530.869C531.589 42.8063 532.446 42.2204 532.446 41.2209C532.446 40.2559 531.589 39.67 530.732 39.67Z" fill="black"/>
<path d="M32.0887 120.94C30.1003 123.525 26.3978 123.801 23.8265 121.802C21.2553 119.803 20.9811 116.08 22.9695 113.495C24.9579 110.91 28.6604 110.635 31.2316 112.634C33.6657 114.633 34.0771 118.355 32.0887 120.94Z" fill="white"/>
<path d="M125.612 100.157C108.642 122.939 72.1653 115.219 48.9216 116.356C48.9216 116.356 44.7733 116.632 40.6594 117.218C40.6594 117.218 42.2364 116.494 44.2248 115.77C60.612 110.049 68.3256 108.877 78.3019 103.742C96.986 94.1257 115.636 73.0672 119.373 51.2849C112.242 72.2055 90.5752 90.2656 70.8968 97.5723C57.3551 102.604 32.9801 107.464 32.9801 107.464L31.9859 106.878C15.4615 98.7096 14.8787 62.5896 45.1162 50.9747C58.3836 45.8049 70.9311 48.6655 85.3299 45.2534C100.586 41.669 118.276 30.1919 125.372 15.1649C133.292 39.3942 142.994 76.9273 125.612 100.157Z" fill="white"/>
</svg>
