<svg width="786" height="138" viewBox="0 0 786 138" fill="none" xmlns="http://www.w3.org/2000/svg">
<path d="M151.386 60.6178L121.164 8.27701C118.548 3.73218 112.113 0 106.85 0H46.4675C41.2351 0 34.7698 3.73218 32.1536 8.27701L1.96214 60.6178C-0.654048 65.1627 -0.654048 72.5969 1.96214 77.1418L32.1536 129.513C34.7698 134.058 41.205 137.79 46.4675 137.79H106.88C112.113 137.79 118.548 134.058 121.194 129.513L151.386 77.1418C154.002 72.5969 154.002 65.1627 151.386 60.6178ZM70.1335 28.9545C70.1335 25.5233 72.9301 22.7242 76.3582 22.7242C79.7863 22.7242 82.5829 25.5233 82.5829 28.9545V66.186C82.5829 69.6172 79.7863 72.4163 76.3582 72.4163C72.9301 72.4163 70.1335 69.6172 70.1335 66.186V28.9545ZM76.3582 108.444C53.0831 108.444 34.1383 89.482 34.1383 66.186C34.1684 52.8224 40.4833 40.2714 51.1886 32.2653C53.6545 30.4293 57.1127 30.941 58.947 33.409C60.7814 35.8771 60.2701 39.3384 57.8043 41.1744C44.0016 51.4379 41.1148 70.9716 51.3691 84.7867C61.6233 98.6018 81.1395 101.491 94.9422 91.2277C102.851 85.3586 107.512 76.0582 107.512 66.186C107.482 56.2837 102.791 46.9833 94.8219 41.0841C92.3561 39.2782 91.8449 35.7868 93.6491 33.3187C95.4534 30.8507 98.9417 30.339 101.407 32.1449C112.203 40.1209 118.548 52.7622 118.578 66.186C118.578 89.5121 99.6333 108.444 76.3582 108.444Z" fill="#6DB33F"/>
<path d="M223.783 19.6544C230.535 19.6544 235.527 21.1233 238.759 24.0611C242.063 26.9989 243.715 30.8325 243.715 35.5616C243.715 39.5743 242.602 42.6554 240.375 44.8051C238.149 46.883 234.952 47.922 230.786 47.922C229.494 47.922 228.668 47.8145 228.308 47.5996C227.949 47.313 227.77 46.7756 227.77 45.9874C227.77 45.2708 227.698 44.3393 227.554 43.1928C227.482 42.0464 227.231 40.9357 226.8 39.8609C226.369 38.7861 225.687 37.8904 224.753 37.1739C223.819 36.3857 222.526 35.9916 220.874 35.9916C218.576 35.9916 216.529 36.7081 214.733 38.1412C212.937 39.5026 212.04 41.294 212.04 43.5153C212.04 45.4499 212.758 47.0263 214.194 48.2445C215.703 49.4626 217.57 50.6091 219.797 51.6839C222.024 52.687 224.43 53.726 227.015 54.8008C229.673 55.8757 232.115 57.3087 234.342 59.1001C236.568 60.8198 238.4 63.0053 239.837 65.6565C241.345 68.236 242.099 71.5321 242.099 75.5448C242.099 78.6976 241.56 81.6712 240.483 84.4658C239.477 87.1886 237.933 89.589 235.85 91.667C233.839 93.6733 231.253 95.2497 228.093 96.3962C225.004 97.5427 221.377 98.1159 217.211 98.1159C213.62 98.1159 210.28 97.7218 207.191 96.9336C204.175 96.1454 201.517 95.1781 199.219 94.0316C196.992 92.8135 195.232 91.5237 193.939 90.1623C192.646 88.7292 192 87.4394 192 86.2929C192 81.5638 192.251 78.1602 192.754 76.0822C193.329 74.0042 194.334 72.9652 195.771 72.9652C196.776 72.9652 197.818 73.3952 198.895 74.255C200.045 75.1149 201.337 76.0822 202.774 77.157C204.211 78.2318 205.863 79.1992 207.73 80.059C209.669 80.9189 211.896 81.3488 214.41 81.3488C215.415 81.3488 216.385 81.2771 217.319 81.1338C218.324 80.9189 219.186 80.5964 219.905 80.1665C220.695 79.7366 221.305 79.1633 221.736 78.4468C222.239 77.7302 222.49 76.8704 222.49 75.8672C222.49 74.0759 221.808 72.6428 220.443 71.568C219.079 70.4932 217.355 69.5258 215.272 68.666C213.189 67.7345 210.926 66.803 208.484 65.8714C206.114 64.8683 203.887 63.5427 201.804 61.8946C199.721 60.1749 197.998 57.9895 196.633 55.3383C195.268 52.687 194.586 49.2835 194.586 45.1275C194.586 40.47 195.448 36.529 197.172 33.3045C198.967 30.0801 201.23 27.4647 203.959 25.4584C206.76 23.3804 209.885 21.9115 213.333 21.0516C216.852 20.1201 220.336 19.6544 223.783 19.6544Z" fill="black"/>
<path d="M288.644 36.8514C295.396 36.8514 300.46 38.9294 303.836 43.0854C307.283 47.2413 309.007 53.7977 309.007 62.7545C309.007 68.3435 308.361 73.3235 307.068 77.6944C305.775 82.0653 303.979 85.7914 301.681 88.8725C299.383 91.882 296.689 94.1749 293.6 95.7513C290.512 97.3277 287.172 98.1159 283.581 98.1159C279.774 98.1159 276.793 97.2919 274.638 95.6438C272.483 93.9958 270.796 91.667 269.574 88.6575C269.359 91.2371 269.179 93.2076 269.036 94.569C268.892 95.9305 268.784 97.0053 268.713 97.7935C268.641 98.6533 268.569 99.4057 268.497 100.051C268.497 100.695 268.425 101.555 268.282 102.63C268.21 103.705 268.102 105.174 267.958 107.037C267.815 108.9 267.599 111.479 267.312 114.776C267.24 115.635 267.061 116.209 266.773 116.495C266.486 116.782 265.875 116.925 264.942 116.925H261.063C258.836 116.925 257.005 116.674 255.568 116.173C254.204 115.743 253.09 115.098 252.228 114.238C251.438 113.378 250.864 112.303 250.504 111.014C250.217 109.796 250.074 108.362 250.074 106.714C250.074 105.998 250.181 104.063 250.397 100.91C250.612 97.7576 250.864 93.9958 251.151 89.6249C251.51 85.1823 251.869 80.4173 252.228 75.3298C252.659 70.2424 253.054 65.4057 253.413 60.8198C253.773 56.1623 254.06 52.0422 254.275 48.4594C254.563 44.8767 254.778 42.4046 254.922 41.0432C254.994 39.4668 255.173 38.5353 255.461 38.2487C255.676 38.0337 256.251 37.9262 257.184 37.9262H261.386C265.265 37.9262 268.066 38.7503 269.79 40.3983C271.586 41.9747 272.483 43.8736 272.483 46.0948C274.135 42.7987 276.254 40.4341 278.84 39.0011C281.498 37.568 284.766 36.8514 288.644 36.8514ZM280.779 51.1465C277.116 51.1465 274.423 52.7229 272.699 55.8757C270.975 59.0285 270.113 63.3277 270.113 68.7734C270.113 70.6365 270.221 72.4636 270.436 74.255C270.724 76.0464 271.191 77.6586 271.837 79.0917C272.483 80.5248 273.345 81.6712 274.423 82.5311C275.572 83.3909 277.009 83.8209 278.732 83.8209C281.821 83.8209 284.407 82.3161 286.49 79.3066C288.573 76.2972 289.614 71.568 289.614 65.1191C289.614 63.3277 289.47 61.608 289.183 59.96C288.968 58.2403 288.537 56.7355 287.89 55.4457C287.244 54.156 286.346 53.117 285.197 52.3288C284.048 51.5406 282.575 51.1465 280.779 51.1465Z" fill="black"/>
<path d="M352.136 63.6143C351.705 63.6143 351.202 63.6143 350.628 63.6143C350.125 63.5427 349.622 63.471 349.119 63.3994C348.617 63.2561 348.186 63.1127 347.827 62.9694C347.467 62.7545 347.288 62.5037 347.288 62.2171C347.288 61.2856 347.324 60.4257 347.396 59.6375C347.467 58.8493 347.503 58.0253 347.503 57.1654C347.503 55.589 347.288 54.2993 346.857 53.2961C346.426 52.2929 345.564 51.7914 344.271 51.7914C342.26 51.7914 340.572 53.117 339.207 55.7682C337.914 58.3477 337.088 62.2529 336.729 67.4837C336.586 69.7766 336.37 72.392 336.083 75.3298C335.867 78.196 335.652 80.9905 335.436 83.7134C335.221 86.3646 335.041 88.7292 334.898 90.8072C334.754 92.8851 334.682 94.2466 334.682 94.8915C334.682 95.608 334.431 96.1454 333.928 96.5037C333.425 96.862 332.887 97.0411 332.312 97.0411H328.433C326.207 97.0411 324.375 96.8261 322.939 96.3962C321.574 95.8946 320.461 95.2139 319.599 94.3541C318.809 93.4942 318.234 92.4552 317.875 91.2371C317.588 89.9473 317.444 88.4784 317.444 86.8303C317.444 85.7555 317.48 84.2508 317.552 82.3161C317.695 80.3098 317.911 77.5869 318.198 74.1475C318.485 70.6365 318.809 66.2297 319.168 60.9273C319.599 55.5532 320.101 48.9252 320.676 41.0432C320.82 38.9652 321.574 37.9262 322.939 37.9262H327.14C329.152 37.9262 330.84 38.1412 332.204 38.5711C333.569 39.0011 334.682 39.6101 335.544 40.3983C336.406 41.1149 337.017 41.9747 337.376 42.9779C337.807 43.981 338.094 45.02 338.238 46.0948C339.1 44.4468 340.105 43.0495 341.254 41.9031C342.475 40.6849 343.732 39.7176 345.025 39.0011C346.318 38.2129 347.647 37.6754 349.012 37.3888C350.376 37.0306 351.633 36.8514 352.783 36.8514C354.147 36.8514 355.512 37.1022 356.877 37.6038C358.313 38.1054 359.606 38.8577 360.755 39.8609C361.905 40.8641 362.802 42.1538 363.449 43.7302C364.167 45.3066 364.526 47.1696 364.526 49.3193C364.526 51.2539 364.239 53.0811 363.664 54.8008C363.09 56.5205 362.264 58.0611 361.186 59.4225C360.109 60.7123 358.78 61.7513 357.2 62.5395C355.692 63.2561 354.004 63.6143 352.136 63.6143Z" fill="black"/>
<path d="M379.989 97.0411C377.762 97.0411 375.93 96.8261 374.494 96.3962C373.129 95.8946 372.016 95.2139 371.154 94.3541C370.364 93.4942 369.789 92.4552 369.43 91.2371C369.143 89.9473 368.999 88.4784 368.999 86.8303C368.999 85.7555 369.035 84.2508 369.107 82.3161C369.251 80.3098 369.466 77.5869 369.753 74.1475C370.041 70.6365 370.364 66.2297 370.723 60.9273C371.154 55.5532 371.657 48.9252 372.231 41.0432C372.303 39.4668 372.483 38.5353 372.77 38.2487C372.985 38.0337 373.56 37.9262 374.494 37.9262H378.696C380.922 37.9262 382.718 38.1412 384.083 38.5711C385.519 39.0011 386.633 39.6459 387.423 40.5058C388.285 41.3656 388.859 42.4046 389.146 43.6228C389.506 44.8409 389.685 46.2023 389.685 47.7071C389.685 48.7819 389.613 50.3941 389.47 52.5437C389.326 54.6934 389.111 57.6312 388.823 61.3572C388.608 65.0116 388.285 69.5975 387.854 75.1149C387.423 80.5606 386.884 87.1528 386.238 94.8915C386.166 95.7513 385.986 96.3246 385.699 96.6112C385.412 96.8978 384.801 97.0411 383.867 97.0411H379.989ZM372.339 25.2434C372.339 22.3772 373.381 20.1201 375.464 18.4721C377.546 16.824 380.348 16 383.867 16C386.956 16 389.182 16.6449 390.547 17.9347C391.984 19.1528 392.702 20.8008 392.702 22.8788C392.702 25.53 391.696 27.7513 389.685 29.5427C387.746 31.2624 384.873 32.1222 381.066 32.1222C375.248 32.1222 372.339 29.8293 372.339 25.2434Z" fill="black"/>
<path d="M435.933 87.5827C435.933 86.0063 436.04 83.9642 436.256 81.4563C436.543 78.8767 436.795 76.1897 437.01 73.3952C437.297 70.529 437.549 67.7703 437.764 65.1191C438.051 62.4679 438.195 60.2466 438.195 58.4552C438.195 56.5922 437.728 54.9441 436.795 53.5111C435.933 52.0063 434.209 51.2539 431.623 51.2539C429.109 51.2539 427.026 51.863 425.374 53.0811C423.722 54.2993 422.321 56.5205 421.172 59.745C420.095 62.9694 419.197 67.412 418.479 73.0727C417.76 78.7334 417.078 86.0063 416.432 94.8915C416.36 95.7513 416.18 96.3246 415.893 96.6112C415.606 96.8978 414.995 97.0411 414.061 97.0411H410.183C407.956 97.0411 406.125 96.8261 404.688 96.3962C403.323 95.8946 402.21 95.2139 401.348 94.3541C400.558 93.4942 399.983 92.4552 399.624 91.2371C399.337 89.9473 399.193 88.4784 399.193 86.8303C399.193 85.7555 399.229 84.2508 399.301 82.3161C399.445 80.3098 399.66 77.5869 399.947 74.1475C400.235 70.6365 400.558 66.2297 400.917 60.9273C401.348 55.5532 401.851 48.9252 402.425 41.0432C402.497 39.4668 402.677 38.5353 402.964 38.2487C403.18 38.0337 403.754 37.9262 404.688 37.9262H408.89C411.045 37.9262 412.804 38.177 414.169 38.6786C415.606 39.1802 416.755 39.8609 417.617 40.7208C418.479 41.509 419.089 42.4763 419.448 43.6228C419.808 44.6976 420.023 45.8082 420.095 46.9547C422.321 43.157 424.871 40.5416 427.744 39.1085C430.617 37.6038 434.209 36.8514 438.518 36.8514C441.535 36.8514 444.157 37.1739 446.383 37.8188C448.61 38.4636 450.442 39.5743 451.878 41.1507C453.386 42.6554 454.5 44.6618 455.218 47.1697C455.936 49.6059 456.295 52.6512 456.295 56.3056C456.295 57.4521 456.224 59.1001 456.08 61.2497C455.936 63.3994 455.757 65.764 455.541 68.3435C455.326 70.8514 455.074 73.5026 454.787 76.2972C454.572 79.02 454.356 81.5638 454.141 83.9283C453.925 86.2929 453.746 88.3709 453.602 90.1623C453.458 91.9536 453.386 93.1359 453.386 93.7092C453.386 95.2856 453.207 96.2529 452.848 96.6112C452.489 96.8978 451.699 97.0411 450.477 97.0411H447.03C444.731 97.0411 442.864 96.8261 441.427 96.3962C439.991 95.9663 438.877 95.3572 438.087 94.569C437.297 93.7808 436.723 92.8135 436.364 91.667C436.076 90.4489 435.933 89.0875 435.933 87.5827Z" fill="black"/>
<path d="M501.13 84.3583C499.335 87.5827 497.144 89.9831 494.558 91.5595C491.973 93.0643 488.74 93.8167 484.862 93.8167C481.917 93.8167 479.223 93.3509 476.781 92.4194C474.339 91.4879 472.256 90.019 470.532 88.0126C468.808 86.0063 467.444 83.4984 466.438 80.4889C465.504 77.4078 465.038 73.7534 465.038 69.5258C465.038 66.0864 465.397 62.4679 466.115 58.6702C466.833 54.8008 468.126 51.254 469.994 48.0295C471.933 44.8051 474.555 42.1538 477.859 40.0759C481.163 37.9262 485.4 36.8514 490.572 36.8514C492.727 36.8514 494.558 37.1022 496.067 37.6038C497.647 38.0337 498.976 38.6428 500.053 39.431C501.202 40.2192 502.1 41.1507 502.747 42.2255C503.465 43.3003 504.003 44.4468 504.363 45.6649C504.363 45.7366 504.363 45.4858 504.363 44.9125C504.434 44.2677 504.506 43.5511 504.578 42.7629C504.65 41.9747 504.686 41.2223 504.686 40.5058C504.758 39.7176 504.794 39.216 504.794 39.0011C504.865 38.2845 505.332 37.9262 506.194 37.9262H511.15C514.885 37.9262 517.579 38.7144 519.231 40.2908C520.955 41.7956 521.817 44.6976 521.817 48.9968C521.817 49.5701 521.781 50.8957 521.709 52.9737C521.637 54.98 521.493 57.4162 521.278 60.2824C521.134 63.1486 520.919 66.3372 520.631 69.8483C520.344 73.2877 520.021 76.7629 519.662 80.274C519.303 83.785 518.908 87.1528 518.477 90.3772C518.046 93.6017 517.579 96.432 517.076 98.8683C516.573 101.305 515.711 103.669 514.49 105.962C513.269 108.255 511.545 110.297 509.319 112.089C507.092 113.88 504.219 115.313 500.699 116.388C497.252 117.463 493.014 118 487.986 118C484.179 118 480.839 117.642 477.966 116.925C475.165 116.209 472.831 115.241 470.963 114.023C469.096 112.877 467.659 111.551 466.654 110.046C465.72 108.542 465.253 107.037 465.253 105.532C465.253 104.171 465.54 102.988 466.115 101.985C466.69 100.982 467.444 100.158 468.377 99.5132C469.311 98.8683 470.317 98.3667 471.394 98.0084C472.543 97.7218 473.621 97.5785 474.626 97.5785C475.847 97.5785 476.745 97.9368 477.32 98.6533C477.895 99.3699 478.541 100.158 479.259 101.018C479.977 101.949 480.983 102.773 482.276 103.49C483.569 104.207 485.58 104.565 488.309 104.565C493.05 104.565 496.354 102.809 498.221 99.2982C500.161 95.8588 501.13 90.8788 501.13 84.3583ZM492.08 79.5216C494.666 79.5216 496.677 78.9125 498.114 77.6944C499.622 76.4763 500.771 75.0074 501.561 73.2877C502.351 71.568 502.854 69.7766 503.07 67.9136C503.285 66.0506 503.393 64.4384 503.393 63.0769C503.393 58.7777 502.711 55.7324 501.346 53.941C500.053 52.078 498.078 51.1465 495.42 51.1465C492.763 51.1465 490.68 51.863 489.171 53.2961C487.663 54.7292 486.514 56.4489 485.724 58.4552C485.005 60.3899 484.538 62.3604 484.323 64.3667C484.108 66.3014 484 67.8061 484 68.8809C484 72.4636 484.61 75.1507 485.831 76.942C487.052 78.6618 489.135 79.5216 492.08 79.5216Z" fill="black"/>
<path d="M576.793 98.1159C572.555 98.1159 569.071 97.8293 566.342 97.2561C563.612 96.7545 561.422 96.0021 559.77 94.9989C558.189 93.9241 557.076 92.5985 556.43 91.0221C555.855 89.4457 555.568 87.5827 555.568 85.4331C555.568 84.7882 555.604 83.8925 555.675 82.746C555.747 81.5279 555.855 79.844 555.999 77.6944C556.142 75.5448 556.322 72.7861 556.537 69.4183C556.825 65.9789 557.184 61.6797 557.615 56.5205C558.118 50.1433 558.513 45.0917 558.8 41.3656C559.087 37.6396 559.303 34.7734 559.446 32.7671C559.59 30.6891 559.662 29.2561 559.662 28.4679C559.734 27.608 559.77 26.8915 559.77 26.3182C559.77 25.1718 559.77 24.2403 559.77 23.5237C559.841 22.8072 559.913 22.2698 559.985 21.9115C560.129 21.4816 560.308 21.1949 560.524 21.0516C560.811 20.8367 561.206 20.7292 561.709 20.7292C565.947 20.4426 569.538 20.2276 572.483 20.0843C575.5 19.941 578.121 19.8693 580.348 19.8693C585.807 19.8693 590.475 20.3351 594.354 21.2666C598.305 22.1264 601.501 23.3804 603.943 25.0285C606.385 26.6765 608.181 28.7186 609.33 31.1549C610.479 33.5911 611.054 36.3498 611.054 39.431C611.054 41.1507 610.874 42.942 610.515 44.8051C610.156 46.5964 609.545 48.3161 608.684 49.9642C607.822 51.6122 606.636 53.0811 605.128 54.3709C603.692 55.589 601.86 56.4847 599.633 57.058C603.799 58.3477 606.744 60.4974 608.468 63.5069C610.192 66.4447 611.054 69.9557 611.054 74.04C611.054 77.3361 610.515 80.4531 609.438 83.3909C608.36 86.2571 606.493 88.8008 603.835 91.0221C601.178 93.1718 597.658 94.8915 593.277 96.1812C588.895 97.471 583.401 98.1159 576.793 98.1159ZM582.934 64.7966C582.144 64.7966 581.174 64.8683 580.025 65.0116C578.875 65.0832 577.69 65.2266 576.469 65.4415L575.284 82.961C577.87 83.7492 580.204 84.1433 582.287 84.1433C584.514 84.1433 586.31 83.8209 587.674 83.176C589.039 82.5311 590.08 81.7429 590.799 80.8114C591.589 79.8082 592.092 78.7334 592.307 77.5869C592.594 76.3688 592.738 75.2582 592.738 74.255C592.738 71.6038 591.984 69.3825 590.475 67.5911C589.039 65.7281 586.525 64.7966 582.934 64.7966ZM578.409 35.2392C578.265 37.1022 578.121 39.2877 577.978 41.7956C577.906 44.3035 577.762 47.0263 577.547 49.9642C579.845 50.5374 581.892 50.824 583.688 50.824C585.843 50.824 587.567 50.5732 588.859 50.0717C590.152 49.5701 591.158 48.9252 591.876 48.137C592.666 47.3488 593.169 46.4889 593.384 45.5574C593.672 44.6259 593.815 43.7302 593.815 42.8704C593.815 40.6491 593.061 38.7503 591.553 37.1739C590.116 35.5258 587.602 34.7018 584.011 34.7018C583.221 34.7018 582.323 34.7734 581.318 34.9168C580.384 34.9884 579.414 35.0959 578.409 35.2392Z" fill="black"/>
<path d="M643.857 98.1159C638.901 98.1159 634.771 97.4352 631.467 96.0738C628.235 94.6407 625.649 92.706 623.71 90.2698C621.771 87.8335 620.406 85.0032 619.616 81.7787C618.826 78.4826 618.431 74.9716 618.431 71.2455C618.431 66.9463 618.933 62.7545 619.939 58.6702C621.016 54.5142 622.812 50.824 625.326 47.5996C627.84 44.3751 631.144 41.7956 635.238 39.8609C639.404 37.8546 644.576 36.8514 650.753 36.8514C659.803 36.8514 666.267 39.0727 670.146 43.5153C674.096 47.8862 676.072 54.0485 676.072 62.0021C676.072 64.2234 675.892 66.6955 675.533 69.4183C675.246 72.0695 674.635 74.7208 673.701 77.372C672.839 80.0232 671.618 82.6027 670.038 85.1106C668.53 87.6185 666.59 89.8398 664.22 91.7745C661.85 93.7092 658.977 95.2497 655.601 96.3962C652.297 97.5427 648.382 98.1159 643.857 98.1159ZM648.921 51.1465C646.192 51.1465 644.001 51.863 642.349 53.2961C640.769 54.6575 639.548 56.3414 638.686 58.3477C637.896 60.2824 637.357 62.3604 637.07 64.5817C636.854 66.7313 636.746 68.5585 636.746 70.0632C636.746 74.7924 637.501 78.2677 639.009 80.4889C640.517 82.7102 642.672 83.8209 645.473 83.8209C647.987 83.8209 650.034 83.0327 651.615 81.4563C653.267 79.8799 654.524 77.981 655.385 75.7597C656.319 73.5385 656.93 71.2097 657.217 68.7734C657.576 66.3372 657.756 64.295 657.756 62.647C657.756 59.0643 657.073 56.2698 655.709 54.2634C654.416 52.1855 652.153 51.1465 648.921 51.1465Z" fill="black"/>
<path d="M708.249 98.1159C703.293 98.1159 699.163 97.4352 695.859 96.0738C692.626 94.6407 690.041 92.706 688.101 90.2698C686.162 87.8335 684.797 85.0032 684.007 81.7787C683.217 78.4826 682.822 74.9716 682.822 71.2455C682.822 66.9463 683.325 62.7545 684.33 58.6702C685.408 54.5142 687.204 50.824 689.717 47.5996C692.231 44.3751 695.535 41.7956 699.63 39.8609C703.796 37.8546 708.967 36.8514 715.144 36.8514C724.194 36.8514 730.659 39.0727 734.537 43.5153C738.488 47.8862 740.463 54.0485 740.463 62.0021C740.463 64.2234 740.283 66.6955 739.924 69.4183C739.637 72.0695 739.026 74.7208 738.093 77.372C737.231 80.0232 736.01 82.6027 734.43 85.1106C732.921 87.6185 730.982 89.8398 728.612 91.7745C726.241 93.7092 723.368 95.2497 719.992 96.3962C716.688 97.5427 712.774 98.1159 708.249 98.1159ZM713.313 51.1465C710.583 51.1465 708.392 51.863 706.74 53.2961C705.16 54.6575 703.939 56.3414 703.077 58.3477C702.287 60.2824 701.748 62.3604 701.461 64.5817C701.246 66.7313 701.138 68.5585 701.138 70.0632C701.138 74.7924 701.892 78.2677 703.4 80.4889C704.909 82.7102 707.064 83.8209 709.865 83.8209C712.379 83.8209 714.426 83.0327 716.006 81.4563C717.658 79.8799 718.915 77.981 719.777 75.7597C720.711 73.5385 721.321 71.2097 721.609 68.7734C721.968 66.3372 722.147 64.295 722.147 62.647C722.147 59.0643 721.465 56.2698 720.1 54.2634C718.807 52.1855 716.545 51.1465 713.313 51.1465Z" fill="black"/>
<path d="M771.671 52.4362C771.455 55.1591 771.204 57.8462 770.916 60.4974C770.701 63.1486 770.485 65.6565 770.27 68.0211C770.054 70.3857 769.875 72.4995 769.731 74.3625C769.659 76.2255 769.624 77.6586 769.624 78.6618C769.624 80.5248 769.839 81.7787 770.27 82.4236C770.701 82.9968 771.419 83.2835 772.425 83.2835C773.215 83.2835 773.897 83.1401 774.472 82.8535C775.046 82.5669 775.585 82.2445 776.088 81.8862C776.591 81.5279 777.022 81.2055 777.381 80.9189C777.812 80.6322 778.279 80.4889 778.781 80.4889C779.284 80.4889 779.751 80.7756 780.182 81.3488C780.613 81.922 780.828 83.2476 780.828 85.3256C780.828 89.2666 779.751 92.3836 777.596 94.6765C775.441 96.9694 771.742 98.1159 766.499 98.1159C761.328 98.1159 757.485 96.9336 754.971 94.569C752.529 92.1328 751.308 88.4426 751.308 83.4984C751.308 82.4236 751.344 81.1697 751.415 79.7366C751.559 78.2318 751.739 76.2972 751.954 73.9326C752.17 71.568 752.421 68.666 752.708 65.2266C753.067 61.7871 753.427 57.5237 753.786 52.4362H748.076C747.501 52.4362 747.142 52.3288 746.998 52.1138C746.926 51.8272 746.89 51.4331 746.89 50.9315L747.214 45.4499C747.285 44.5184 747.393 43.6228 747.537 42.7629C747.752 41.8314 748.111 41.0074 748.614 40.2908C749.189 39.5743 749.979 39.0011 750.985 38.5711C751.99 38.1412 753.319 37.9262 754.971 37.9262C755.474 36.6365 756.048 35.0959 756.695 33.3045C757.341 31.5132 757.988 29.7935 758.634 28.1454C759.28 26.4257 759.891 24.9926 760.466 23.8461C761.112 22.6997 761.687 22.1264 762.189 22.1264H765.314C768.331 22.1264 770.414 23.058 771.563 24.921C772.712 26.784 773.287 29.0053 773.287 31.5848C773.287 33.0179 773.179 35.1317 772.963 37.9262H784.276C785.425 37.9262 786 38.4278 786 39.431L785.569 45.235C785.425 47.3846 784.815 49.1401 783.737 50.5016C782.732 51.7914 780.613 52.4362 777.381 52.4362H771.671Z" fill="black"/>
</svg>
