<svg viewBox="0 0 515 87" fill="none" xmlns="http://www.w3.org/2000/svg">
    <path
        d="M72.4914 0C53.1567 0 41.0783 9.66714 36.2394 29.0014C43.4915 19.3385 51.9459 15.7096 61.6111 18.1275C67.1251 19.5031 71.0697 23.5032 75.4277 27.9338C82.5363 35.1494 90.763 43.5 108.731 43.5C128.061 43.5 140.14 33.8329 144.974 14.5028C137.726 24.1657 129.268 27.7946 119.607 25.3725C114.089 23.9969 110.144 19.9968 105.786 15.5662C98.6774 8.35484 90.4508 0 72.4914 0ZM36.2394 43.5C16.9173 43.5 4.83051 53.1671 0 72.5014C7.24787 62.8343 15.7065 59.2096 25.3676 61.6275C30.8857 63.0031 34.8303 67.0033 39.1883 71.4338C46.2969 78.6494 54.5236 87 72.4914 87C91.8219 87 103.9 77.3371 108.731 58.0028C101.483 67.6657 93.0284 71.2946 83.3632 68.8768C77.8492 67.4969 73.9047 63.4925 69.5425 59.0662C62.438 51.8506 54.2072 43.5 36.2394 43.5Z"
        fill="#00BCFF" />
    <path
        d="M180.76 40.4676H172.048V57.3239C172.048 61.8205 174.998 61.7508 180.76 61.469V68.2836C169.1 69.6866 164.465 66.4565 164.465 57.3239V40.4676H158V33.1592H164.462V23.7274L172.048 21.4791V33.1592H180.754V40.4676H180.76ZM213.955 33.1592H221.535V68.2836H213.955V63.2264C211.283 66.9445 207.142 69.1957 201.662 69.1957C192.113 69.1957 184.175 61.1204 184.175 50.7214C184.175 40.2555 192.113 32.2471 201.662 32.2471C207.139 32.2471 211.283 34.4954 213.955 38.1496V33.1592ZM202.858 61.9599C209.178 61.9599 213.952 57.2542 213.952 50.7185C213.952 44.1886 209.178 39.4829 202.858 39.4829C196.536 39.4829 191.761 44.1886 191.761 50.7214C191.761 57.2542 196.536 61.9628 202.855 61.9628L202.858 61.9599ZM234.177 27.8958C232.896 27.8814 231.672 27.3659 230.766 26.4598C229.861 25.5536 229.346 24.3288 229.333 23.0477C229.339 21.7609 229.853 20.5264 230.759 19.6201C231.207 19.1702 231.74 18.8133 232.326 18.5698C232.913 18.3262 233.542 18.2009 234.177 18.2009C234.812 18.2009 235.441 18.3262 236.027 18.5698C236.614 18.8133 237.147 19.1702 237.595 19.6201C238.501 20.5264 239.018 21.7609 239.021 23.0477C239.021 25.6475 236.843 27.8958 234.177 27.8958ZM230.384 68.2865V33.1592H237.97V68.2836L230.384 68.2865ZM246.749 68.2865V17H254.332V68.2807H246.752L246.749 68.2865ZM303.57 33.1592H311.577L300.549 68.2836H293.106L285.799 44.6098L278.425 68.2836H270.982L259.955 33.1592H267.961L274.775 57.3936L282.151 33.1592H289.383L296.684 57.3936L303.57 33.1592ZM320.983 27.8958C318.311 27.8958 316.136 25.6475 316.136 23.0477C316.142 21.7609 316.659 20.5264 317.565 19.6201C318.013 19.1699 318.546 18.8127 319.132 18.5689C319.719 18.3252 320.348 18.1997 320.983 18.1997C321.618 18.1997 322.247 18.3252 322.834 18.5689C323.421 18.8127 323.953 19.1699 324.401 19.6201C325.31 20.5264 325.825 21.7609 325.83 23.0477C325.83 25.6475 323.652 27.8958 320.983 27.8958ZM317.19 68.2865V33.1592H324.776V68.2836L317.19 68.2865ZM352.029 32.2471C359.894 32.2471 365.513 37.586 365.513 46.7186V68.2807H357.927V47.4884C357.927 42.1494 354.837 39.3434 350.063 39.3434C345.076 39.3434 341.144 42.2918 341.144 49.4578V68.2807H333.558V33.165H341.144V37.6558C343.462 34.0045 347.252 32.2471 352.029 32.2471ZM401.47 19.1118H409.056V68.2807H401.47V63.2235C398.804 66.9474 394.66 69.1928 389.182 69.1928C379.63 69.1928 371.693 61.1175 371.693 50.7185C371.693 40.2526 379.63 32.2442 389.182 32.2442C394.66 32.2442 398.804 34.4925 401.47 38.1467V19.1118ZM390.373 61.9599C396.696 61.9599 401.47 57.2542 401.47 50.7185C401.47 44.1886 396.696 39.4829 390.373 39.4829C384.054 39.4829 379.279 44.1886 379.279 50.7214C379.279 57.2542 384.054 61.9599 390.373 61.9599ZM434.479 69.1928C423.876 69.1928 415.939 61.1175 415.939 50.7185C415.939 40.2555 423.876 32.2471 434.479 32.2471C441.362 32.2471 447.333 35.8287 450.141 41.3099L443.61 45.1036C442.065 41.8009 438.623 39.692 434.409 39.692C428.229 39.692 423.524 44.3977 423.524 50.7214C423.524 57.0421 428.229 61.7508 434.409 61.7508C438.623 61.7508 442.065 59.5722 443.749 56.3392L450.281 60.0631C447.333 65.6112 441.362 69.1928 434.479 69.1928ZM462.783 42.8524C462.783 49.2458 481.675 45.3795 481.675 58.3783C481.675 65.4049 475.565 69.1957 467.979 69.1957C460.957 69.1957 455.9 66.0324 453.652 60.9752L460.184 57.1845C461.308 60.3449 464.119 62.2388 467.979 62.2388C471.351 62.2388 473.95 61.1175 473.95 58.3057C473.95 52.0576 455.058 55.5694 455.058 42.9976C455.058 36.3922 460.747 32.2471 467.909 32.2471C473.668 32.2471 478.446 34.9195 480.903 39.5526L474.513 43.1341C473.247 40.395 470.787 39.1314 467.909 39.1314C465.171 39.1314 462.783 40.3223 462.783 42.8524ZM495.159 42.8524C495.159 49.2458 514.051 45.3795 514.051 58.3783C514.051 65.4049 507.941 69.1957 500.355 69.1957C493.332 69.1957 488.279 66.0324 486.028 60.9752L492.56 57.1845C493.684 60.3449 496.492 62.2388 500.355 62.2388C503.727 62.2388 506.326 61.1175 506.326 58.3057C506.326 52.0576 487.434 55.5694 487.434 42.9976C487.434 36.3922 493.123 32.2471 500.288 32.2471C506.044 32.2471 510.822 34.9195 513.278 39.5526L506.889 43.1341C505.626 40.395 503.166 39.1314 500.288 39.1314C497.546 39.1314 495.159 40.3223 495.159 42.8524Z"
        fill="black" />
</svg>