<svg width="468" height="123" viewBox="0 0 468 123" fill="none" xmlns="http://www.w3.org/2000/svg">
<path d="M87.4188 0L71 28.1781L54.5813 0H0L71 122.031L142 0H87.4188Z" fill="#42B883"/>
<path d="M87.4188 0L71 28.1781L54.5813 0H28.4L71 73.2188L113.6 0H87.4188Z" fill="#35495E"/>
<path d="M177.479 13.0606L198.775 75.3178H199.634L220.93 13.0606H233.409L205.873 89.5011H192.535L165 13.0606H177.479Z" fill="black"/>
<path d="M279.914 65.7254V32.1707H291.122V89.5011H280.138V79.5728H279.54C278.22 82.6334 276.103 85.1839 273.189 87.2243C270.3 89.2398 266.701 90.2476 262.392 90.2476C258.705 90.2476 255.442 89.4389 252.603 87.8215C249.788 86.1792 247.572 83.7531 245.953 80.5432C244.358 77.3333 243.561 73.3645 243.561 68.6367V32.1707H254.732V67.2931C254.732 71.1997 255.816 74.3101 257.983 76.6242C260.15 78.9383 262.964 80.0953 266.427 80.0953C268.519 80.0953 270.599 79.5728 272.666 78.5277C274.758 77.4826 276.489 75.9026 277.859 73.7875C279.254 71.6725 279.939 68.9851 279.914 65.7254Z" fill="black"/>
<path d="M330.865 90.6582C325.211 90.6582 320.342 89.4513 316.257 87.0377C312.197 84.5992 309.059 81.1778 306.842 76.7735C304.65 72.3443 303.554 67.1562 303.554 61.2092C303.554 55.3368 304.65 50.1611 306.842 45.6822C309.059 41.2033 312.147 37.7072 316.108 35.194C320.093 32.6808 324.751 31.4242 330.081 31.4242C333.319 31.4242 336.457 31.9592 339.496 33.0292C342.535 34.0992 345.262 35.7788 347.678 38.068C350.094 40.3572 351.999 43.3307 353.394 46.9885C354.789 50.6215 355.486 55.0382 355.486 60.2387V64.1951H309.868V55.8344H344.54C344.54 52.8983 343.942 50.298 342.746 48.0336C341.551 45.7444 339.869 43.9404 337.703 42.6216C335.56 41.3028 333.045 40.6434 330.156 40.6434C327.017 40.6434 324.277 41.4148 321.936 42.9575C319.62 44.4754 317.826 46.466 316.556 48.9294C315.311 51.3679 314.688 54.018 314.688 56.8795V63.4113C314.688 67.2433 315.36 70.503 316.705 73.1903C318.075 75.8777 319.981 77.9305 322.422 79.3489C324.863 80.7423 327.715 81.439 330.977 81.439C333.095 81.439 335.025 81.1404 336.768 80.5432C338.512 79.9212 340.019 79.0005 341.289 77.7812C342.559 76.562 343.531 75.0565 344.203 73.265L354.777 75.1685C353.93 78.2789 352.41 81.0036 350.219 83.3426C348.052 85.6567 345.324 87.4607 342.036 88.7546C338.774 90.0237 335.05 90.6582 330.865 90.6582Z" fill="black"/>
<path d="M375.241 90.2103C373.199 90.2103 371.443 89.4887 369.973 88.0455C368.504 86.5774 367.769 84.8107 367.769 82.7454C367.769 80.705 368.504 78.9632 369.973 77.52C371.443 76.0519 373.199 75.3178 375.241 75.3178C377.284 75.3178 379.04 76.0519 380.509 77.52C381.979 78.9632 382.714 80.705 382.714 82.7454C382.714 84.1139 382.365 85.3705 381.667 86.5152C380.995 87.6349 380.098 88.5307 378.977 89.2025C377.857 89.8744 376.611 90.2103 375.241 90.2103Z" fill="black"/>
<path d="M397.677 32.1707H408.848V93.2336C408.848 97.0655 408.15 100.3 406.756 102.938C405.386 105.576 403.343 107.579 400.628 108.947C397.938 110.316 394.613 111 390.653 111C390.254 111 389.881 111 389.532 111C389.158 111 388.772 110.988 388.374 110.963V101.37C388.722 101.37 389.034 101.37 389.308 101.37C389.557 101.37 389.843 101.37 390.167 101.37C392.807 101.37 394.713 100.661 395.883 99.2428C397.079 97.8494 397.677 95.8214 397.677 93.1589V32.1707ZM403.206 23.3248C401.263 23.3248 399.595 22.6779 398.2 21.384C396.83 20.0652 396.145 18.4975 396.145 16.6811C396.145 14.8397 396.83 13.2721 398.2 11.9782C399.595 10.6594 401.263 10 403.206 10C405.149 10 406.805 10.6594 408.175 11.9782C409.57 13.2721 410.267 14.8397 410.267 16.6811C410.267 18.4975 409.57 20.0652 408.175 21.384C406.805 22.6779 405.149 23.3248 403.206 23.3248Z" fill="black"/>
<path d="M466.879 46.1674L456.754 47.959C456.331 46.6651 455.658 45.4334 454.737 44.2639C453.84 43.0944 452.62 42.1364 451.075 41.3899C449.531 40.6434 447.601 40.2701 445.284 40.2701C442.121 40.2701 439.481 40.9793 437.364 42.3976C435.247 43.7911 434.188 45.5951 434.188 47.8097C434.188 49.7257 434.898 51.2684 436.318 52.4379C437.737 53.6074 440.029 54.5654 443.192 55.3119L452.308 57.4021C457.589 58.6213 461.524 60.5 464.114 63.0381C466.705 65.5761 468 68.8731 468 72.9291C468 76.3629 467.004 79.4235 465.011 82.1109C463.043 84.7733 460.291 86.8635 456.754 88.3814C453.242 89.8992 449.17 90.6582 444.537 90.6582C438.111 90.6582 432.868 89.2896 428.808 86.5525C424.748 83.7905 422.257 79.8714 421.336 74.7953L432.133 73.153C432.806 75.9648 434.188 78.0923 436.28 79.5355C438.373 80.9538 441.1 81.663 444.462 81.663C448.124 81.663 451.05 80.904 453.242 79.3862C455.434 77.8434 456.53 75.9648 456.53 73.7502C456.53 71.9586 455.858 70.4532 454.513 69.2339C453.192 68.0147 451.162 67.094 448.423 66.4719L438.709 64.3444C433.354 63.1252 429.393 61.1843 426.828 58.5218C424.287 55.8593 423.017 52.4877 423.017 48.4069C423.017 45.0228 423.963 42.0617 425.856 39.5236C427.749 36.9856 430.365 35.0074 433.702 33.5891C437.04 32.1458 440.863 31.4242 445.172 31.4242C451.374 31.4242 456.256 32.7679 459.818 35.4553C463.38 38.1178 465.733 41.6885 466.879 46.1674Z" fill="black"/>
</svg>
