<svg width="560" height="129" viewBox="0 0 560 129" fill="none" xmlns="http://www.w3.org/2000/svg">
<path d="M94.4479 0V68.9375C94.4479 88.2046 78.83 103.822 59.5629 103.822C40.2957 103.822 24.6779 88.2046 24.6779 68.9375V0H49.3572V68.9375C49.3572 70.2777 49.6212 71.6048 50.1341 72.843C50.6469 74.0812 51.3987 75.2063 52.3464 76.1539C53.2941 77.1016 54.4191 77.8534 55.6573 78.3662C56.8955 78.8791 58.2226 79.1431 59.5629 79.1431C60.9031 79.1431 62.2302 78.8791 63.4684 78.3662C64.7066 77.8534 65.8317 77.1016 66.7793 76.1539C67.727 75.2063 68.4788 74.0812 68.9916 72.843C69.5045 71.6048 69.7685 70.2777 69.7685 68.9375V0H94.4479Z" fill="#35495E"/>
<path d="M119.126 0V68.9375C119.126 101.834 92.4593 128.509 59.5629 128.509C26.6665 128.509 0 101.834 0 68.9375V0H24.6779V68.9375C24.6779 88.2046 40.2972 103.822 59.5629 103.822C78.8285 103.822 94.4479 88.2046 94.4479 68.9375V0H119.126Z" fill="#41B883"/>
<path d="M165.934 12.7065L185.051 72.7987H185.785L204.94 12.7065H223.478L196.212 91.7996H174.662L147.358 12.7065H165.934Z" fill="black"/>
<path d="M270.729 66.5423V32.4798H287.181V91.7996H271.385V81.0247H270.768C269.429 84.5005 267.202 87.294 264.086 89.4052C260.997 91.5164 257.225 92.572 252.771 92.572C248.806 92.572 245.317 91.6709 242.305 89.8686C239.292 88.0664 236.937 85.5046 235.237 82.1833C233.564 78.862 232.714 74.8842 232.688 70.2498V32.4798H249.14V67.3147C249.166 70.8162 250.106 73.584 251.96 75.6179C253.813 77.6519 256.298 78.6689 259.413 78.6689C261.396 78.6689 263.25 78.2183 264.975 77.3172C266.7 76.3903 268.09 75.0258 269.145 73.2235C270.227 71.4213 270.755 69.1942 270.729 66.5423Z" fill="black"/>
<path d="M327.374 92.9582C321.272 92.9582 316.02 91.7224 311.617 89.2507C307.241 86.7533 303.868 83.226 301.499 78.6689C299.13 74.086 297.946 68.6664 297.946 62.41C297.946 56.3081 299.13 50.9528 301.499 46.3442C303.868 41.7356 307.202 38.144 311.502 35.5693C315.827 32.9947 320.899 31.7074 326.718 31.7074C330.631 31.7074 334.274 32.3381 337.647 33.5997C341.046 34.8356 344.007 36.7022 346.53 39.1996C349.079 41.697 351.061 44.8381 352.477 48.6228C353.893 52.3818 354.601 56.7844 354.601 61.8307V66.3492H304.511V56.1536H339.115C339.115 53.7849 338.6 51.6866 337.57 49.8586C336.54 48.0306 335.111 46.6017 333.283 45.5718C331.481 44.5162 329.383 43.9884 326.988 43.9884C324.491 43.9884 322.277 44.5677 320.346 45.7263C318.44 46.8591 316.947 48.3911 315.866 50.322C314.784 52.2273 314.231 54.3514 314.205 56.6943V66.3878C314.205 69.3229 314.746 71.859 315.827 73.9959C316.934 76.1329 318.492 77.7807 320.5 78.9392C322.508 80.0978 324.89 80.6771 327.645 80.6771C329.473 80.6771 331.146 80.4197 332.665 79.9047C334.184 79.3898 335.484 78.6174 336.566 77.5876C337.647 76.5577 338.471 75.2961 339.037 73.8028L354.254 74.8069C353.481 78.4629 351.898 81.6555 349.503 84.3846C347.135 87.088 344.071 89.1992 340.312 90.7183C336.579 92.2115 332.266 92.9582 327.374 92.9582Z" fill="black"/>
<path d="M414.5 12.7065H431.223V64.0707C431.223 69.8379 429.845 74.8842 427.09 79.2096C424.361 83.535 420.538 86.9078 415.62 89.3279C410.703 91.7224 404.974 92.9196 398.435 92.9196C391.869 92.9196 386.128 91.7224 381.21 89.3279C376.293 86.9078 372.469 83.535 369.74 79.2096C367.011 74.8842 365.646 69.8379 365.646 64.0707V12.7065H382.369V62.6417C382.369 65.6541 383.025 68.3317 384.338 70.6746C385.677 73.0176 387.557 74.8584 389.977 76.1972C392.397 77.5361 395.216 78.2055 398.435 78.2055C401.679 78.2055 404.498 77.5361 406.892 76.1972C409.312 74.8584 411.179 73.0176 412.492 70.6746C413.831 68.3317 414.5 65.6541 414.5 62.6417V12.7065Z" fill="black"/>
<path d="M494.028 49.3952L478.966 50.322C478.709 49.0347 478.155 47.8761 477.306 46.8463C476.456 45.7907 475.336 44.9539 473.946 44.336C472.581 43.6923 470.946 43.3705 469.041 43.3705C466.492 43.3705 464.342 43.9112 462.592 44.9925C460.841 46.0481 459.965 47.4642 459.965 49.2407C459.965 50.6568 460.532 51.854 461.665 52.8323C462.797 53.8107 464.741 54.596 467.496 55.1881L478.232 57.3508C484 58.5352 488.299 60.4404 491.131 63.0665C493.964 65.6927 495.38 69.1427 495.38 73.4166C495.38 77.3043 494.234 80.7157 491.942 83.6508C489.677 86.5859 486.561 88.8774 482.597 90.5252C478.657 92.1472 474.113 92.9582 468.964 92.9582C461.111 92.9582 454.855 91.3233 450.195 88.0535C445.56 84.7579 442.844 80.2781 442.046 74.6138L458.227 73.7642C458.717 76.1586 459.901 77.9866 461.781 79.2482C463.66 80.484 466.067 81.1019 469.002 81.1019C471.886 81.1019 474.203 80.5484 475.954 79.4413C477.73 78.3085 478.632 76.8538 478.657 75.0773C478.632 73.584 478.001 72.361 476.765 71.4084C475.529 70.43 473.624 69.6834 471.049 69.1685L460.776 67.1216C454.983 65.963 450.671 63.9548 447.839 61.0969C445.032 58.2391 443.629 54.596 443.629 50.1676C443.629 46.3571 444.659 43.0744 446.719 40.3195C448.804 37.5647 451.727 35.4406 455.486 33.9473C459.27 32.454 463.699 31.7074 468.771 31.7074C476.263 31.7074 482.159 33.2908 486.459 36.4576C490.784 39.6244 493.307 43.9369 494.028 49.3952Z" fill="black"/>
<path d="M532.773 92.9582C526.671 92.9582 521.419 91.7224 517.016 89.2507C512.639 86.7533 509.267 83.226 506.898 78.6689C504.529 74.086 503.345 68.6664 503.345 62.41C503.345 56.3081 504.529 50.9528 506.898 46.3442C509.267 41.7356 512.601 38.144 516.9 35.5693C521.226 32.9947 526.298 31.7074 532.117 31.7074C536.03 31.7074 539.673 32.3381 543.046 33.5997C546.445 34.8356 549.405 36.7022 551.929 39.1996C554.477 41.697 556.46 44.8381 557.876 48.6228C559.292 52.3818 560 56.7844 560 61.8307V66.3492H509.91V56.1536H544.514C544.514 53.7849 543.999 51.6866 542.969 49.8586C541.939 48.0306 540.51 46.6017 538.682 45.5718C536.88 44.5162 534.781 43.9884 532.387 43.9884C529.89 43.9884 527.675 44.5677 525.744 45.7263C523.839 46.8591 522.346 48.3911 521.264 50.322C520.183 52.2273 519.63 54.3514 519.604 56.6943V66.3878C519.604 69.3229 520.145 71.859 521.226 73.9959C522.333 76.1329 523.891 77.7807 525.899 78.9392C527.907 80.0978 530.289 80.6771 533.044 80.6771C534.872 80.6771 536.545 80.4197 538.064 79.9047C539.583 79.3898 540.883 78.6174 541.965 77.5876C543.046 76.5577 543.87 75.2961 544.436 73.8028L559.652 74.8069C558.88 78.4629 557.297 81.6555 554.902 84.3846C552.534 87.088 549.47 89.1992 545.711 90.7183C541.978 92.2115 537.665 92.9582 532.773 92.9582Z" fill="black"/>
</svg>
