<?xml version="1.0" encoding="utf-8"?>
<!-- Generator: Adobe Illustrator 22.1.0, SVG Export Plug-In . SVG Version: 6.00 Build 0)  -->
<svg version="1.1" id="图层_1" xmlns="http://www.w3.org/2000/svg" xmlns:xlink="http://www.w3.org/1999/xlink" x="0px" y="0px"
	 viewBox="0 0 1088 688" style="enable-background:new 0 0 1088 688;" xml:space="preserve">
<style type="text/css">
	.st0{fill:none;stroke:#0C296E;stroke-width:0.5;stroke-linecap:round;stroke-linejoin:round;}
	.st1{fill:none;stroke:#0C296E;stroke-width:0.5;stroke-linecap:round;stroke-linejoin:round;stroke-dasharray:3.07,3.07;}
	.st2{fill:none;stroke:#0C296E;stroke-width:0.5;stroke-linecap:round;stroke-linejoin:round;stroke-dasharray:2.96,2.96;}
	.st3{fill:none;stroke:#0C296E;stroke-width:0.5;stroke-linecap:round;stroke-linejoin:round;stroke-dasharray:2.69,2.69;}
	
		.st4{fill:none;stroke:#0C296E;stroke-width:0.5;stroke-linecap:round;stroke-linejoin:round;stroke-miterlimit:10;stroke-dasharray:3.03,3.03;}
	.st5{fill:none;stroke:#0C296E;stroke-linecap:round;stroke-linejoin:round;stroke-miterlimit:10;}
	.st6{fill:#FFFFFF;stroke:#0C296E;stroke-width:0.5;stroke-linecap:round;stroke-linejoin:round;stroke-miterlimit:10;}
	.st7{fill:#00D6B9;}
	.st8{fill:none;stroke:#0C296E;stroke-width:0.5;stroke-linecap:round;stroke-linejoin:round;stroke-miterlimit:10;}
	.st9{fill:#0C296E;}
	.st10{fill:#FFFFFF;stroke:#0C296E;stroke-width:0.5;stroke-miterlimit:10;}
	.st11{fill:#FFC60A;}
	.st12{fill:#FF950A;}
	.st13{fill:#FFFFFF;}
</style>
<title>Easy to Use</title>
<path class="st0" d="M803.9,334.1h5.7"/>
<path class="st1" d="M821.3,334.1h110.3"/>
<path class="st0" d="M937.3,334.1h6v5.7"/>
<path class="st2" d="M943.4,351.1v173.1"/>
<path class="st0" d="M943.4,529.8v5.7h-6"/>
<path class="st3" d="M927.5,535.5H892"/>
<path class="st0" d="M886.7,535.5H881"/>
<path class="st4" d="M560.2,539.6c28.3,31.7,86.2,37,94.9,11c8.7-26.1-44.6-23.1-23.1,12.1c21.9,34.8,142.8,7.6,142.8,7.6"/>
<path class="st5" d="M171.3,352.2c-14.7,10.6-123.6,86.9,59.7,146.6S207.6,558,331.2,623.4"/>
<path class="st6" d="M201.2,303.8l36.7-24.2c1.5-1.1,3.8-0.8,4.5,1.1l3.8,5.7c1.1,1.5,0.8,3.8-1.1,4.5l-36.7,24.2
	C208.4,315.2,201.2,303.8,201.2,303.8z M220.8,334.1l36.7-24.2c1.5-1.1,3.8-0.8,4.5,1.1l3.8,5.7c1.1,1.5,0.8,3.8-1.1,4.5L228,345.4
	C228,345.4,220.8,334.1,220.8,334.1z"/>
<path class="st7" d="M166.4,356.4c-12.8-19.7-7.6-46.5,12.5-59.3l21.9-14.4c1.9-1.1,4.2-0.8,5.7,1.1l42.7,65
	c1.1,1.9,0.8,4.2-1.1,5.3l-21.9,14.4C205.7,381.3,179.3,376,166.4,356.4z"/>
<path class="st6" d="M244.6,356l-46.9-71.8l9.1-6c1.5-0.8,3.4-0.4,4.2,0.8l43.8,66.9c0.8,1.5,0.4,3.4-0.8,4.2L244.6,356L244.6,356z"
	/>
<path class="st5" d="M251.4,218.8l4.2,26.5 M287,221.8l-9.1,23.1 M212.5,237.3l25.7,15.9 M255.2,440.3l-6.8-25.7 M219.7,441
	l6.4-23.8 M291.9,417.6l-27.2-12.8"/>
<path class="st8" d="M862.1,252.1v6.8 M862.1,266.1v6.8 M851.9,262.7h6.8 M865.9,262.7h6.8 M212.1,48v6.8 M212.1,62v6.8 M201.6,58.6
	h6.8 M215.5,58.6h7.2"/>
<path class="st6" d="M230.3,161.8c2.9,0,5.3-2.4,5.3-5.3c0-2.9-2.4-5.3-5.3-5.3s-5.3,2.4-5.3,5.3C225,159.4,227.4,161.8,230.3,161.8
	z M471,541.5c2.5,0,4.5-2,4.5-4.5c0-2.5-2-4.5-4.5-4.5c0,0,0,0,0,0c-2.5,0-4.5,2-4.5,4.5C466.5,539.5,468.5,541.5,471,541.5z"/>
<path class="st9" d="M766.5,67.3H339.1v388.1h427.4V67.3z"/>
<path class="st10" d="M805,422.9H300.6v88.4H805V422.9z"/>
<path class="st7" d="M342.9,477.7c6.5,0,11.7-5.2,11.7-11.7c0-6.5-5.2-11.7-11.7-11.7c0,0,0,0,0,0c-6.5,0-11.7,5.3-11.7,11.7
	C331.2,472.4,336.4,477.7,342.9,477.7z"/>
<path class="st11" d="M389,477.7c6.5,0,11.7-5.2,11.7-11.7c0-6.5-5.2-11.7-11.7-11.7c0,0,0,0,0,0c-6.5,0-11.7,5.3-11.7,11.7
	C377.3,472.4,382.5,477.7,389,477.7z"/>
<path class="st7" d="M435.5,477.7c6.5,0,11.7-5.2,11.7-11.7c0-6.5-5.2-11.7-11.7-11.7c0,0,0,0,0,0c-6.5,0-11.7,5.3-11.7,11.7
	C423.8,472.4,429,477.7,435.5,477.7z"/>
<path class="st10" d="M724.6,456.5H512.2v21.9h212.4V456.5z"/>
<path class="st10" d="M678.8,480.3c7.3,0,13.2-5.9,13.2-13.2s-5.9-13.2-13.2-13.2l0,0c-7.3,0-13.2,5.9-13.2,13.2
	S671.5,480.3,678.8,480.3z"/>
<path class="st9" d="M788.4,438h-35.1v4.5h35.1V438z M788.4,447.8h-35.1v4.5h35.1V447.8z M788.4,457.6h-35.1v4.5h35.1V457.6z"/>
<path class="st10" d="M805,297.4H300.6v88.4H805C805,385.8,805,297.4,805,297.4z"/>
<path class="st7" d="M342.9,352.2c6.5,0,11.7-5.2,11.7-11.7c0-6.5-5.2-11.7-11.7-11.7c0,0,0,0,0,0c-6.5,0-11.7,5.3-11.7,11.7
	C331.2,347,336.4,352.2,342.9,352.2z"/>
<path class="st11" d="M389,352.2c6.5,0,11.7-5.2,11.7-11.7c0-6.5-5.2-11.7-11.7-11.7c0,0,0,0,0,0c-6.5,0-11.7,5.3-11.7,11.7
	C377.3,347,382.5,352.2,389,352.2z"/>
<path class="st7" d="M435.5,352.2c6.5,0,11.7-5.2,11.7-11.7c0-6.5-5.2-11.7-11.7-11.7c0,0,0,0,0,0c-6.5,0-11.7,5.3-11.7,11.7
	C423.8,347,429,352.2,435.5,352.2z"/>
<path class="st10" d="M724.6,330.7H512.2v21.9h212.4V330.7z"/>
<path class="st10" d="M678.8,354.9c7.3,0,13.2-5.9,13.2-13.2s-5.9-13.2-13.2-13.2l0,0c-7.3,0-13.2,5.9-13.2,13.2
	S671.5,354.9,678.8,354.9z"/>
<path class="st9" d="M788.4,312.5h-35.1v4.5h35.1V312.5z M788.4,322.4h-35.1v4.5h35.1V322.4z M788.4,332.2h-35.1v4.5h35.1V332.2z"/>
<path class="st10" d="M805,172H300.6v88.4H805V172z"/>
<path class="st7" d="M342.9,226.4c6.5,0,11.7-5.2,11.7-11.7c0-6.5-5.2-11.7-11.7-11.7c0,0,0,0,0,0c-6.5,0-11.7,5.3-11.7,11.7
	C331.2,221.1,336.4,226.4,342.9,226.4z"/>
<path class="st11" d="M389,226.4c6.5,0,11.7-5.2,11.7-11.7c0-6.5-5.2-11.7-11.7-11.7c0,0,0,0,0,0c-6.5,0-11.7,5.3-11.7,11.7
	C377.3,221.1,382.5,226.4,389,226.4z"/>
<path class="st7" d="M435.5,226.4c6.5,0,11.7-5.2,11.7-11.7c0-6.5-5.2-11.7-11.7-11.7c0,0,0,0,0,0c-6.5,0-11.7,5.3-11.7,11.7
	C423.8,221.1,429,226.4,435.5,226.4z"/>
<path class="st10" d="M724.6,205.2H512.2v21.9h212.4V205.2z"/>
<path class="st10" d="M678.8,229.4c7.3,0,13.2-5.9,13.2-13.2c0-7.3-5.9-13.2-13.2-13.2l0,0c-7.3,0-13.2,5.9-13.2,13.2
	C665.6,223.5,671.5,229.4,678.8,229.4z"/>
<path class="st9" d="M788.4,186.7h-35.1v4.5h35.1V186.7z M788.4,196.5h-35.1v4.5h35.1V196.5z M788.4,206.4h-35.1v4.5h35.1V206.4z"/>
<path class="st10" d="M805,46.5H300.6v88.4H805V46.5z"/>
<path class="st7" d="M342.9,100.9c6.5,0,11.7-5.2,11.7-11.7c0-6.5-5.2-11.7-11.7-11.7c0,0,0,0,0,0c-6.5,0-11.7,5.3-11.7,11.7
	C331.2,95.7,336.4,100.9,342.9,100.9z"/>
<path class="st11" d="M389,100.9c6.5,0,11.7-5.2,11.7-11.7c0-6.5-5.2-11.7-11.7-11.7c0,0,0,0,0,0c-6.5,0-11.7,5.3-11.7,11.7
	C377.3,95.7,382.5,100.9,389,100.9z"/>
<path class="st7" d="M435.5,100.9c6.5,0,11.7-5.2,11.7-11.7c0-6.5-5.2-11.7-11.7-11.7c0,0,0,0,0,0c-6.5,0-11.7,5.3-11.7,11.7
	C423.8,95.7,429,100.9,435.5,100.9z"/>
<path class="st10" d="M724.6,79.8H512.2v21.9h212.4V79.8z"/>
<path class="st10" d="M678.8,103.9c7.3,0,13.2-5.9,13.2-13.2c0-7.3-5.9-13.2-13.2-13.2l0,0c-7.3,0-13.2,5.9-13.2,13.2
	C665.6,98,671.5,103.9,678.8,103.9z"/>
<path class="st9" d="M788.4,61.2h-35.1v4.5h35.1V61.2z M788.4,71.1h-35.1v4.5h35.1V71.1z M788.4,80.9h-35.1v4.5h35.1V80.9z"/>
<path class="st12" d="M839.8,450.1l-61.6,106.6c-1.5,2.3,0.4,5.3,3,5.3h122.8c2.6,0,4.2-3,3-5.3l-61.6-106.6
	C844.3,447.8,840.9,447.8,839.8,450.1z"/>
<path class="st11" d="M786.9,553.2l54-93.7c0.8-1.1,2.3-1.1,3,0l54,93.7c0.8,1.1,0,2.6-1.5,2.6H788
	C787.3,555.9,786.5,554.4,786.9,553.2L786.9,553.2z"/>
<path class="st13" d="M847,529.4h-8.3l-1.5-40.8c0-3,2.3-5.7,5.7-5.7c3,0,5.7,2.6,5.7,5.7L847,529.4z M842.8,547.2
	c2.9,0,5.3-2.4,5.3-5.3c0-2.9-2.4-5.3-5.3-5.3s-5.3,2.4-5.3,5.3C837.5,544.8,839.9,547.2,842.8,547.2z"/>
<g>
	<path class="st7" d="M135.1,614.2c0-5,0.7-8.4,2-10.3c1.3-1.8,3.9-2.8,7.7-2.8h28.9c3.8,0,6.4,0.9,7.7,2.8c1.3,1.8,2,5.3,2,10.3v29
		c0,5-0.7,8.5-2,10.3c-1.3,1.8-3.9,2.7-7.7,2.7h-28.9c-3.8,0-6.4-0.9-7.7-2.7c-1.3-1.8-2-5.3-2-10.3V614.2z M144.2,645.9h30.1V611
		h-30.1V645.9z"/>
	<path class="st7" d="M199.7,656.2v-45.1h28.9c2.7,0,4.6,0.7,5.8,2.1c1.2,1.4,1.8,3.6,1.8,6.7v10c0,3.1-0.6,5.3-1.8,6.7
		c-1.2,1.4-3.1,2.1-5.7,2.1h-21.2v17.6H199.7z M225.3,618.9h-17.9v12h17.9c1.4,0,2.3-0.3,2.8-0.8c0.5-0.6,0.8-1.5,0.8-2.8v-4.7
		c0-1.3-0.3-2.3-0.8-2.8C227.6,619.2,226.6,618.9,225.3,618.9z"/>
	<path class="st7" d="M247.4,656.2v-45.1h34.5v8h-26.6v9.8h15.5v7.8h-15.5v11.1h27v8.4H247.4z"/>
	<path class="st7" d="M293.6,656.2v-45.1h28.9c2.6,0,4.6,0.7,5.7,2.1c1.2,1.4,1.8,3.6,1.8,6.7v10.6c0,3.1-0.6,5.3-1.8,6.6
		c-1.2,1.4-3.1,2-5.7,2h-4.4l15.3,17.1h-11.2l-13.5-17.1h-7.4v17.1H293.6z M319.1,618.9h-17.9v12.5h17.9c1.4,0,2.3-0.3,2.8-0.8
		c0.5-0.6,0.8-1.5,0.8-2.8v-5.2c0-1.3-0.3-2.3-0.8-2.8C321.4,619.2,320.5,618.9,319.1,618.9z"/>
	<path class="st11" d="M335.3,656.2l19.1-45.1h7.5l19.4,45.1h-8.8l-4-9.9h-21.2l-4,9.9H335.3z M350.5,638.1h14.7l-7.5-18.8
		L350.5,638.1z"/>
	<path class="st11" d="M404.3,619.2v37h-7.8v-37h-15.5v-8.1h38.9v8.1H404.3z"/>
	<path class="st11" d="M429.9,656.2v-45.1h7.8v45.1H429.9z"/>
	<path class="st11" d="M451.2,621.8c0-4.1,0.6-6.9,1.7-8.4c1.1-1.5,3.3-2.2,6.6-2.2h24.8c3.3,0,5.5,0.7,6.7,2.2
		c1.1,1.5,1.7,4.3,1.7,8.4v23.8c0,4.1-0.6,6.9-1.7,8.4c-1.1,1.5-3.4,2.2-6.6,2.2h-24.8c-3.3,0-5.5-0.7-6.6-2.2
		c-1.1-1.5-1.7-4.3-1.7-8.4V621.8z M459.1,647.6H485v-28.2h-25.9V647.6z"/>
	<path class="st11" d="M506.3,656.2v-45.1h5.4l27.3,29.9v-29.9h7.1v45.1h-5.4l-27.2-30.4v30.4H506.3z"/>
	<path class="st11" d="M590,619.2h-22.1v9.5h20.9c3.3,0,5.5,0.7,6.6,2.2c1.1,1.5,1.7,4.3,1.7,8.4v6.2c0,4.1-0.6,6.9-1.7,8.4
		c-1.2,1.5-3.4,2.2-6.6,2.2H568c-3.3,0-5.6-0.7-6.7-2.2c-1.2-1.5-1.8-4.3-1.8-8.4v-1.3l7-1.8v5.3h23.6v-10.3h-20.8
		c-3.3,0-5.5-0.8-6.7-2.3c-1.2-1.5-1.7-4.3-1.7-8.4v-5.1c0-4.1,0.6-6.8,1.7-8.4c1.2-1.5,3.4-2.3,6.7-2.3h19.1c3.2,0,5.5,0.7,6.7,2.2
		c1.2,1.4,1.8,4,1.8,7.6v1.1l-6.8,2V619.2z"/>
	<path class="st11" d="M643,656.2v-55h40.1v9.4h-31v12.3h18.1v9.4h-18.1v13.6h31.4v10.4H643z"/>
	<path class="st11" d="M697.5,656.2v-45.1h5.4l27.3,29.9v-29.9h7.1v45.1h-5.4l-27.2-30.4v30.4H697.5z"/>
	<path class="st11" d="M783,619.4h-24.4v28.2H783V638h-12.8v-8h20.4v15.6c0,4.1-0.6,6.9-1.7,8.4c-1.1,1.5-3.4,2.2-6.6,2.2h-23.3
		c-3.3,0-5.5-0.7-6.6-2.2c-1.1-1.5-1.7-4.3-1.7-8.4v-23.8c0-4.1,0.6-6.9,1.7-8.4c1.2-1.5,3.4-2.2,6.6-2.2h23.3
		c3.2,0,5.4,0.7,6.6,2.2c1.2,1.5,1.7,4.1,1.7,7.9v1.2l-7.7,1.8V619.4z"/>
	<path class="st11" d="M804.1,656.2v-45.1h7.8v45.1H804.1z"/>
	<path class="st7" d="M826.2,656.2v-45.1h5.4l27.3,29.9v-29.9h7.1v45.1h-5.4l-27.2-30.4v30.4H826.2z"/>
	<path class="st7" d="M880.3,656.2v-45.1h34.5v8h-26.6v9.8h15.5v7.8h-15.5v11.1h27v8.4H880.3z"/>
	<path class="st7" d="M926.4,656.2v-45.1h34.5v8h-26.6v9.8h15.5v7.8h-15.5v11.1h27v8.4H926.4z"/>
	<path class="st7" d="M972.6,656.2v-45.1h28.9c2.6,0,4.6,0.7,5.7,2.1c1.2,1.4,1.8,3.6,1.8,6.7v10.6c0,3.1-0.6,5.3-1.8,6.6
		c-1.2,1.4-3.1,2-5.7,2h-4.4l15.3,17.1h-11.2l-13.5-17.1h-7.4v17.1H972.6z M998.2,618.9h-17.9v12.5h17.9c1.4,0,2.3-0.3,2.8-0.8
		s0.8-1.5,0.8-2.8v-5.2c0-1.3-0.3-2.3-0.8-2.8C1000.5,619.2,999.6,618.9,998.2,618.9z"/>
</g>
</svg>
