<svg width="455" height="125" viewBox="0 0 455 125" fill="none" xmlns="http://www.w3.org/2000/svg">
<path d="M78.6364 35H68.0682C67.4432 31.9602 66.3494 29.2898 64.7869 26.9886C63.2528 24.6875 61.3778 22.7557 59.1619 21.1932C56.9744 19.6023 54.5455 18.4091 51.875 17.6136C49.2045 16.8182 46.4205 16.4205 43.5227 16.4205C38.2386 16.4205 33.4517 17.7557 29.1619 20.4261C24.9006 23.0966 21.5057 27.0312 18.9773 32.2301C16.4773 37.429 15.2273 43.8068 15.2273 51.3636C15.2273 58.9204 16.4773 65.2983 18.9773 70.4972C21.5057 75.696 24.9006 79.6307 29.1619 82.3011C33.4517 84.9716 38.2386 86.3068 43.5227 86.3068C46.4205 86.3068 49.2045 85.9091 51.875 85.1136C54.5455 84.3182 56.9744 83.1392 59.1619 81.5767C61.3778 79.9858 63.2528 78.0398 64.7869 75.7386C66.3494 73.4091 67.4432 70.7386 68.0682 67.7273H78.6364C77.8409 72.1875 76.3921 76.179 74.2898 79.7017C72.1875 83.2244 69.5739 86.2216 66.4489 88.6932C63.3239 91.1364 59.8153 92.9972 55.9233 94.2756C52.0597 95.554 47.9261 96.1932 43.5227 96.1932C36.0795 96.1932 29.4602 94.375 23.6648 90.7386C17.8693 87.1023 13.3097 81.9318 9.98579 75.2273C6.66193 68.5227 5 60.5682 5 51.3636C5 42.1591 6.66193 34.2045 9.98579 27.5C13.3097 20.7955 17.8693 15.625 23.6648 11.9886C29.4602 8.35227 36.0795 6.53409 43.5227 6.53409C47.9261 6.53409 52.0597 7.17329 55.9233 8.4517C59.8153 9.73011 63.3239 11.6051 66.4489 14.0767C69.5739 16.5199 72.1875 19.5028 74.2898 23.0256C76.3921 26.5199 77.8409 30.5114 78.6364 35Z" stroke="white" stroke-width="10" mask="url(#path-1-outside-1_1_4)"/>
<path d="M113.612 96.5341C109.464 96.5341 105.7 95.7528 102.319 94.1903C98.9382 92.5994 96.2535 90.3125 94.2649 87.3295C92.2763 84.3182 91.282 80.6818 91.282 76.4205C91.282 72.6705 92.0206 69.6307 93.4979 67.3011C94.9751 64.9432 96.9496 63.0966 99.4212 61.7614C101.893 60.4261 104.62 59.4318 107.603 58.7784C110.614 58.0966 113.64 57.5568 116.68 57.1591C120.657 56.6477 123.881 56.2642 126.353 56.0085C128.853 55.7244 130.671 55.2557 131.808 54.6023C132.972 53.9489 133.555 52.8125 133.555 51.1932V50.8523C133.555 46.6477 132.404 43.3807 130.103 41.0511C127.83 38.7216 124.379 37.5568 119.748 37.5568C114.947 37.5568 111.183 38.608 108.455 40.7102C105.728 42.8125 103.81 45.0568 102.702 47.4432L93.157 44.0341C94.8615 40.0568 97.1342 36.9602 99.9751 34.7443C102.844 32.5 105.969 30.9375 109.35 30.0568C112.759 29.1477 116.112 28.6932 119.407 28.6932C121.509 28.6932 123.924 28.9489 126.651 29.4602C129.407 29.9432 132.063 30.9517 134.62 32.4858C137.205 34.0199 139.35 36.3352 141.055 39.4318C142.759 42.5284 143.612 46.6761 143.612 51.875V95H133.555V86.1364H133.043C132.362 87.5568 131.225 89.0767 129.634 90.696C128.043 92.3153 125.927 93.6932 123.285 94.8295C120.643 95.9659 117.418 96.5341 113.612 96.5341ZM115.146 87.5C119.123 87.5 122.475 86.7188 125.202 85.1562C127.958 83.5938 130.032 81.5767 131.424 79.1051C132.844 76.6335 133.555 74.0341 133.555 71.3068V62.1023C133.129 62.6136 132.191 63.0824 130.742 63.5085C129.322 63.9062 127.674 64.2614 125.799 64.5739C123.952 64.858 122.148 65.1136 120.387 65.3409C118.654 65.5398 117.248 65.7102 116.168 65.8523C113.555 66.1932 111.112 66.7472 108.839 67.5142C106.594 68.2528 104.776 69.375 103.384 70.8807C102.021 72.358 101.339 74.375 101.339 76.9318C101.339 80.4261 102.631 83.0682 105.217 84.858C107.83 86.6193 111.14 87.5 115.146 87.5Z" stroke="white" stroke-width="10" mask="url(#path-1-outside-1_1_4)"/>
<path d="M161.967 119.545V29.5455H171.683V39.9432H172.876C173.615 38.8068 174.638 37.358 175.945 35.5966C177.28 33.8068 179.183 32.2159 181.655 30.8239C184.155 29.4034 187.536 28.6932 191.797 28.6932C197.308 28.6932 202.166 30.071 206.371 32.8267C210.575 35.5824 213.857 39.4886 216.214 44.5455C218.572 49.6023 219.751 55.5682 219.751 62.4432C219.751 69.375 218.572 75.3835 216.214 80.4688C213.857 85.5256 210.589 89.446 206.413 92.2301C202.237 94.9858 197.422 96.3636 191.967 96.3636C187.763 96.3636 184.396 95.6676 181.868 94.2756C179.339 92.8551 177.393 91.25 176.03 89.4602C174.666 87.642 173.615 86.1364 172.876 84.9432H172.024V119.545H161.967ZM171.854 62.2727C171.854 67.2159 172.578 71.5767 174.027 75.3551C175.476 79.1051 177.592 82.0455 180.376 84.1761C183.161 86.2784 186.57 87.3295 190.604 87.3295C194.808 87.3295 198.317 86.2216 201.129 84.0057C203.97 81.7614 206.101 78.75 207.521 74.9716C208.97 71.1648 209.695 66.9318 209.695 62.2727C209.695 57.6705 208.984 53.5227 207.564 49.8295C206.172 46.108 204.055 43.1676 201.214 41.0085C198.402 38.821 194.865 37.7273 190.604 37.7273C186.513 37.7273 183.075 38.7642 180.291 40.8381C177.507 42.8835 175.405 45.7528 173.984 49.446C172.564 53.1108 171.854 57.3864 171.854 62.2727Z" stroke="white" stroke-width="10" mask="url(#path-1-outside-1_1_4)"/>
<path d="M281.456 44.2045L272.422 46.7614C271.854 45.2557 271.016 43.7926 269.908 42.3722C268.828 40.9233 267.351 39.7301 265.476 38.7926C263.601 37.8551 261.2 37.3864 258.274 37.3864C254.268 37.3864 250.93 38.3097 248.26 40.1562C245.618 41.9744 244.297 44.2898 244.297 47.1023C244.297 49.6023 245.206 51.5767 247.024 53.0256C248.842 54.4744 251.683 55.6818 255.547 56.6477L265.263 59.0341C271.115 60.4545 275.476 62.6278 278.345 65.554C281.215 68.4517 282.649 72.1875 282.649 76.7614C282.649 80.5114 281.57 83.8636 279.411 86.8182C277.28 89.7727 274.297 92.1023 270.462 93.8068C266.626 95.5114 262.166 96.3636 257.081 96.3636C250.405 96.3636 244.879 94.9148 240.504 92.017C236.129 89.1193 233.359 84.8864 232.195 79.3182L241.74 76.9318C242.649 80.4545 244.368 83.0966 246.896 84.858C249.453 86.6193 252.791 87.5 256.911 87.5C261.598 87.5 265.32 86.5057 268.075 84.517C270.859 82.5 272.251 80.0852 272.251 77.2727C272.251 75 271.456 73.0966 269.865 71.5625C268.274 70 265.831 68.8352 262.536 68.0682L251.626 65.5114C245.632 64.0909 241.229 61.8892 238.416 58.9062C235.632 55.8949 234.24 52.1307 234.24 47.6136C234.24 43.9204 235.277 40.6534 237.351 37.8125C239.453 34.9716 242.308 32.7415 245.916 31.1222C249.553 29.5028 253.672 28.6932 258.274 28.6932C264.751 28.6932 269.837 30.1136 273.53 32.9545C277.251 35.7955 279.893 39.5455 281.456 44.2045Z" stroke="white" stroke-width="10" mask="url(#path-1-outside-1_1_4)"/>
<path d="M297.788 95V29.5455H307.844V95H297.788ZM302.901 18.6364C300.941 18.6364 299.251 17.9688 297.83 16.6335C296.438 15.2983 295.742 13.6932 295.742 11.8182C295.742 9.94318 296.438 8.33807 297.83 7.00284C299.251 5.66761 300.941 5 302.901 5C304.862 5 306.538 5.66761 307.93 7.00284C309.35 8.33807 310.06 9.94318 310.06 11.8182C310.06 13.6932 309.35 15.2983 307.93 16.6335C306.538 17.9688 304.862 18.6364 302.901 18.6364Z" stroke="white" stroke-width="10" mask="url(#path-1-outside-1_1_4)"/>
<path d="M352.855 96.3636C346.946 96.3636 341.761 94.9574 337.301 92.1449C332.869 89.3324 329.403 85.3977 326.903 80.3409C324.432 75.2841 323.196 69.375 323.196 62.6136C323.196 55.7954 324.432 49.8437 326.903 44.7585C329.403 39.6733 332.869 35.7244 337.301 32.9119C341.761 30.0994 346.946 28.6932 352.855 28.6932C358.764 28.6932 363.935 30.0994 368.366 32.9119C372.827 35.7244 376.293 39.6733 378.764 44.7585C381.264 49.8437 382.514 55.7954 382.514 62.6136C382.514 69.375 381.264 75.2841 378.764 80.3409C376.293 85.3977 372.827 89.3324 368.366 92.1449C363.935 94.9574 358.764 96.3636 352.855 96.3636ZM352.855 87.3295C357.344 87.3295 361.037 86.179 363.935 83.8778C366.832 81.5767 368.977 78.5511 370.369 74.8011C371.761 71.0511 372.457 66.9886 372.457 62.6136C372.457 58.2386 371.761 54.1619 370.369 50.3835C368.977 46.6051 366.832 43.5511 363.935 41.2216C361.037 38.892 357.344 37.7273 352.855 37.7273C348.366 37.7273 344.673 38.892 341.776 41.2216C338.878 43.5511 336.733 46.6051 335.341 50.3835C333.949 54.1619 333.253 58.2386 333.253 62.6136C333.253 66.9886 333.949 71.0511 335.341 74.8011C336.733 78.5511 338.878 81.5767 341.776 83.8778C344.673 86.179 348.366 87.3295 352.855 87.3295Z" stroke="white" stroke-width="10" mask="url(#path-1-outside-1_1_4)"/>
<path d="M407.923 55.625V95H397.866V29.5455H407.582V39.7727H408.434C409.968 36.4489 412.298 33.7784 415.423 31.7614C418.548 29.7159 422.582 28.6932 427.525 28.6932C431.957 28.6932 435.835 29.6023 439.158 31.4205C442.482 33.2102 445.067 35.9375 446.914 39.6023C448.761 43.2386 449.684 47.8409 449.684 53.4091V95H439.627V54.0909C439.627 48.9489 438.292 44.9432 435.621 42.0739C432.951 39.1761 429.286 37.7273 424.627 37.7273C421.417 37.7273 418.548 38.4233 416.019 39.8153C413.519 41.2074 411.545 43.2386 410.096 45.9091C408.647 48.5795 407.923 51.8182 407.923 55.625Z" stroke="white" stroke-width="10" mask="url(#path-1-outside-1_1_4)"/>
</svg>
