<?xml version="1.0" encoding="utf-8"?>
<!-- Generator: Adobe Illustrator 24.2.3, SVG Export Plug-In . SVG Version: 6.00 Build 0)  -->
<svg version="1.1" id="图层_1" xmlns="http://www.w3.org/2000/svg" xmlns:xlink="http://www.w3.org/1999/xlink" x="0px" y="0px"
	 viewBox="0 0 893.8 195.2" style="enable-background:new 0 0 893.8 195.2;" xml:space="preserve">
<style type="text/css">
	.st0{fill-rule:evenodd;clip-rule:evenodd;fill:#082F40;}
	.st1{fill:#E43C61;}
</style>
<g>
	<g>
		<path class="st0" d="M680.8,84.2c0-14.5-15.5-23.5-20.8-23.5s-65.1,0-65.1,0v15.2c0,0,55.1,0,62.3,0s8.3,4.8,8.3,11.1
			s-3.5,8.3-6.9,8.3h-40.1c-15.7,0-23.5,17.8-23.5,24.9c0,7.2,0,26.3,0,26.3h16.6c0,0,0-10.6,0-19.4s2.3-15.2,5.5-15.2
			s19.4,0,19.4,0l16.6,34.6h19.4l-18-36c0,0,5.4,0,9.7,0S680.8,98.7,680.8,84.2z M691.9,75.9h34.6v70.6h16.6V75.9h29.1l5.5-16.6
			h-85.8V75.9z M848.3,95.3h-40.1c-5.1,0-8.3-5.9-8.3-9.7c0-3.8,3.5-9.7,6.9-9.7c3.4,0,56.8,0,56.8,0l5.5-16.6c0,0-46.2,0-59.5,0
			c-13.3,0-26.3,12.9-26.3,27.7c0,14.7,14.8,23.5,18,23.5H840c8.5,0,12.5,5.2,12.5,9.7c0,4.5-2.4,9.7-5.5,9.7s-63.7,0-63.7,0v16.6
			c0,0,53.8,0,62.3,0s23.5-10.4,23.5-26.3C869.1,104.4,853.8,95.3,848.3,95.3z M534.1,59.3l-30.5,87.2h18l5.5-18h24.9l5.5-16.6
			h-23.5l12.5-36l24.9,70.6h19.4L559,59.3H534.1z M480.1,95.3v51.2h18V59.3h-18V95.3z M424.8,59.3h-18v87.2h18v-34.6h48.4l6.9-16.6
			h-55.4V59.3z M337.6,77.3h58.1l5.5-18c0,0-51.8,0-60.9,0c-9.1,0-24.9,12.2-24.9,24.9V123c0,14.9,19.4,23.5,19.4,23.5h60.9
			l5.5-16.6c0,0-51.8,0-58.1,0c-6.3,0-11.1-5.1-11.1-9.7v-36C332,78,337.6,77.3,337.6,77.3z M218.5,77.3h80.3l6.9-18h-87.2V77.3z
			 M300.2,113.3l5.5-16.6h-87.2c0,0,1.4,18.2,1.4,29.1s15,20.8,18,20.8c3,0,60.9,0,60.9,0l6.9-16.6c0,0-55.9,0-62.3,0
			s-6.9-5.1-6.9-8.3s0-8.3,0-8.3H300.2z"/>
	</g>
</g>
<path class="st1" d="M102.7,16.5c-44.2,0-80.1,35.9-80.1,80.1c0,44.2,35.9,80.1,80.1,80.1c44.2,0,80.1-35.9,80.1-80.1
	C182.8,52.4,147,16.5,102.7,16.5z M158.8,137.5c-1.3-12.4-9.2-12.5-12.4-10.2c-3.3,2.3-18.8,14.6-29.4,16.9
	c-10.6,2.3-30.9-0.4-42.9-9c-12-8.7-22.6-26.5-22.6-42.9c0-16.4,11.8-44,41.8-44c20.8,0,41.8,19.9,41.8,40.7
	c0,20.7-7.9,22.4-7.9,30.5c0,8.1,7,9,10.2,9c3.2,0,9-4.3,9-9c0-4.7-5.3-10-9-9c1.7-4.4,6.3-3.4,9-3.4c2.7,0,7.9,5.2,6.8,12.4
	c7.5-0.6,7.6,2.2,9,4.5C163.7,126.2,163.9,135.3,158.8,137.5z"/>
</svg>
