<svg xmlns="http://www.w3.org/2000/svg" viewBox="0 0 280 280" width="280" height="280"
    preserveAspectRatio="xMidYMid meet"
    style="width: 100%; height: 100%; transform: translate3d(0px, 0px, 0px);">
    <defs>
        <clipPath id="__lottie_element_106">
            <rect width="280" height="280" x="0" y="0"></rect>
        </clipPath>
        <clipPath id="__lottie_element_142">
            <path d="M0,0 L132,0 L132,74 L0,74z"></path>
        </clipPath>
        <clipPath id="__lottie_element_146">
            <path d="M0,0 L100,0 L100,74 L0,74z"></path>
        </clipPath>
        <clipPath id="__lottie_element_208">
            <path d="M0,0 L100,0 L100,74 L0,74z"></path>
        </clipPath>
    </defs>
    <g clip-path="url(#__lottie_element_106)">
        <g transform="matrix(1,0,0,1,156,167)" opacity="1" style="display: block;">
            <g opacity="1" transform="matrix(1,0,0,1,0,0)">
                <path stroke-linecap="butt" stroke-linejoin="miter" fill-opacity="0"
                    stroke-miterlimit="4" stroke="rgb(40,43,52)" stroke-opacity="1" stroke-width="2"
                    d=" M80,-42 C80,-42 80,42 80,42 C80,46.415199279785156 76.41519927978516,50 72,50 C72,50 -72,50 -72,50 C-76.41519927978516,50 -80,46.415199279785156 -80,42 C-80,42 -80,-42 -80,-42 C-80,-46.415199279785156 -76.41519927978516,-50 -72,-50 C-72,-50 72,-50 72,-50 C76.41519927978516,-50 80,-46.415199279785156 80,-42z"></path>
            </g>
        </g>
        <g transform="matrix(1,0,0,1,148,131)" opacity="1" style="display: block;">
            <g opacity="1" transform="matrix(1,0,0,1,0,0)">
                <path fill="rgb(161,218,205)" fill-opacity="1"
                    d=" M75,-47 C75,-47 75,47 75,47 C75,51.415199279785156 71.41519927978516,55 67,55 C67,55 -67,55 -67,55 C-71.41519927978516,55 -75,51.415199279785156 -75,47 C-75,47 -75,-47 -75,-47 C-75,-51.415199279785156 -71.41519927978516,-55 -67,-55 C-67,-55 67,-55 67,-55 C71.41519927978516,-55 75,-51.415199279785156 75,-47z"></path>
            </g>
        </g>
        <g transform="matrix(1,0,0,1,136,143)" opacity="1" style="display: block;">
            <g opacity="1" transform="matrix(1,0,0,1,0,0)">
                <path fill="rgb(255,255,255)" fill-opacity="1"
                    d=" M75,-47 C75,-47 75,47 75,47 C75,51.415199279785156 71.41519927978516,55 67,55 C67,55 -67,55 -67,55 C-71.41519927978516,55 -75,51.415199279785156 -75,47 C-75,47 -75,-47 -75,-47 C-75,-51.415199279785156 -71.41519927978516,-55 -67,-55 C-67,-55 67,-55 67,-55 C71.41519927978516,-55 75,-51.415199279785156 75,-47z"></path>
                <path stroke-linecap="butt" stroke-linejoin="miter" fill-opacity="0"
                    stroke-miterlimit="4" stroke="rgb(5,161,126)" stroke-opacity="1"
                    stroke-width="2"
                    d=" M75,-47 C75,-47 75,47 75,47 C75,51.415199279785156 71.41519927978516,55 67,55 C67,55 -67,55 -67,55 C-71.41519927978516,55 -75,51.415199279785156 -75,47 C-75,47 -75,-47 -75,-47 C-75,-51.415199279785156 -71.41519927978516,-55 -67,-55 C-67,-55 67,-55 67,-55 C71.41519927978516,-55 75,-51.415199279785156 75,-47z"></path>
            </g>
        </g>
        <g transform="matrix(1,0,0,1,136,107)" opacity="1" style="display: block;">
            <g opacity="1" transform="matrix(1,0,0,1,0,0)">
                <path fill="rgb(5,161,126)" fill-opacity="1"
                    d=" M75,-1 C75,-1 75,1 75,1 C75,1 -75,1 -75,1 C-75,1 -75,-1 -75,-1 C-75,-1 75,-1 75,-1z"></path>
            </g>
        </g>
        <g clip-path="url(#__lottie_element_142)" transform="matrix(1,0,0,1,69,114)" opacity="1"
            style="display: block;">
            <g clip-path="url(#__lottie_element_208)" style="display: block;"
                transform="matrix(1,0,0,1,0,0)" opacity="1">
                <g transform="matrix(0,0,0,1,8.062000274658203,9)" opacity="1"
                    style="display: block;">
                    <g opacity="1" transform="matrix(1,0,0,1,0,0)">
                        <path fill="rgb(66,110,239)" fill-opacity="1"
                            d=" M10,0 C10,0 10,0 10,0 C10,0.5519000291824341 9.551899909973145,1 9,1 C9,1 -9,1 -9,1 C-9.551899909973145,1 -10,0.5519000291824341 -10,0 C-10,0 -10,0 -10,0 C-10,-0.5519000291824341 -9.551899909973145,-1 -9,-1 C-9,-1 9,-1 9,-1 C9.551899909973145,-1 10,-0.5519000291824341 10,0z"></path>
                    </g>
                </g>
                <g transform="matrix(0,0,0,1,12.812000274658203,13)" opacity="1"
                    style="display: block;">
                    <g opacity="1" transform="matrix(1,0,0,1,0,0)">
                        <path fill="rgb(66,110,239)" fill-opacity="1"
                            d=" M10,0 C10,0 10,0 10,0 C10,0.5519000291824341 9.551899909973145,1 9,1 C9,1 -9,1 -9,1 C-9.551899909973145,1 -10,0.5519000291824341 -10,0 C-10,0 -10,0 -10,0 C-10,-0.5519000291824341 -9.551899909973145,-1 -9,-1 C-9,-1 9,-1 9,-1 C9.551899909973145,-1 10,-0.5519000291824341 10,0z"></path>
                    </g>
                </g>
                <g transform="matrix(0,0,0,1,4.061999797821045,5)" opacity="1"
                    style="display: block;">
                    <g opacity="1" transform="matrix(1,0,0,1,0,0)">
                        <path fill="rgb(167,188,255)" fill-opacity="1"
                            d=" M16,0 C16,0 16,0 16,0 C16,0.5519000291824341 15.551899909973145,1 15,1 C15,1 -15,1 -15,1 C-15.551899909973145,1 -16,0.5519000291824341 -16,0 C-16,0 -16,0 -16,0 C-16,-0.5519000291824341 -15.551899909973145,-1 -15,-1 C-15,-1 15,-1 15,-1 C15.551899909973145,-1 16,-0.5519000291824341 16,0z"></path>
                    </g>
                </g>
                <g transform="matrix(1,0,0,1,10,1)" opacity="1" style="display: block;">
                    <g opacity="1" transform="matrix(0,0,0,1,-9.975000381469727,0)">
                        <path fill="rgb(66,110,239)" fill-opacity="1"
                            d=" M10,0 C10,0 10,0 10,0 C10,0.5519000291824341 9.551899909973145,1 9,1 C9,1 -9,1 -9,1 C-9.551899909973145,1 -10,0.5519000291824341 -10,0 C-10,0 -10,0 -10,0 C-10,-0.5519000291824341 -9.551899909973145,-1 -9,-1 C-9,-1 9,-1 9,-1 C9.551899909973145,-1 10,-0.5519000291824341 10,0z"></path>
                    </g>
                </g>
                <g transform="matrix(0,0,0,1,16,57)" opacity="1" style="display: block;">
                    <g opacity="1" transform="matrix(1,0,0,1,0,0)">
                        <path fill="rgb(255,168,66)" fill-opacity="1"
                            d=" M20,0 C20,0 20,0 20,0 C20,0.5519000291824341 19.55190086364746,1 19,1 C19,1 -19,1 -19,1 C-19.55190086364746,1 -20,0.5519000291824341 -20,0 C-20,0 -20,0 -20,0 C-20,-0.5519000291824341 -19.55190086364746,-1 -19,-1 C-19,-1 19,-1 19,-1 C19.55190086364746,-1 20,-0.5519000291824341 20,0z"></path>
                    </g>
                </g>
                <g transform="matrix(0,0,0,1,32.125,37)" opacity="1" style="display: block;">
                    <g opacity="1" transform="matrix(1,0,0,1,0,0)">
                        <path fill="rgb(255,168,66)" fill-opacity="1"
                            d=" M28,0 C28,0 28,0 28,0 C28,0.5519000291824341 27.55190086364746,1 27,1 C27,1 -27,1 -27,1 C-27.55190086364746,1 -28,0.5519000291824341 -28,0 C-28,0 -28,0 -28,0 C-28,-0.5519000291824341 -27.55190086364746,-1 -27,-1 C-27,-1 27,-1 27,-1 C27.55190086364746,-1 28,-0.5519000291824341 28,0z"></path>
                    </g>
                </g>
                <g transform="matrix(0,0,0,1,28.062000274658203,33)" opacity="1"
                    style="display: block;">
                    <g opacity="1" transform="matrix(1,0,0,1,0,0)">
                        <path fill="rgb(66,110,239)" fill-opacity="1"
                            d=" M10,0 C10,0 10,0 10,0 C10,0.5519000291824341 9.551899909973145,1 9,1 C9,1 -9,1 -9,1 C-9.551899909973145,1 -10,0.5519000291824341 -10,0 C-10,0 -10,0 -10,0 C-10,-0.5519000291824341 -9.551899909973145,-1 -9,-1 C-9,-1 9,-1 9,-1 C9.551899909973145,-1 10,-0.5519000291824341 10,0z"></path>
                    </g>
                </g>
                <g transform="matrix(0,0,0,1,24.062000274658203,25)" opacity="1"
                    style="display: block;">
                    <g opacity="1" transform="matrix(1,0,0,1,0,0)">
                        <path fill="rgb(66,110,239)" fill-opacity="1"
                            d=" M20,0 C20,0 20,0 20,0 C20,0.5519000291824341 19.55190086364746,1 19,1 C19,1 -19,1 -19,1 C-19.55190086364746,1 -20,0.5519000291824341 -20,0 C-20,0 -20,0 -20,0 C-20,-0.5519000291824341 -19.55190086364746,-1 -19,-1 C-19,-1 19,-1 19,-1 C19.55190086364746,-1 20,-0.5519000291824341 20,0z"></path>
                    </g>
                </g>
                <g transform="matrix(0,0,0,1,36,45)" opacity="1" style="display: block;">
                    <g opacity="1" transform="matrix(1,0,0,1,0,0)">
                        <path fill="rgb(66,110,239)" fill-opacity="1"
                            d=" M10,0 C10,0 10,0 10,0 C10,0.5519000291824341 9.551899909973145,1 9,1 C9,1 -9,1 -9,1 C-9.551899909973145,1 -10,0.5519000291824341 -10,0 C-10,0 -10,0 -10,0 C-10,-0.5519000291824341 -9.551899909973145,-1 -9,-1 C-9,-1 9,-1 9,-1 C9.551899909973145,-1 10,-0.5519000291824341 10,0z"></path>
                    </g>
                </g>
                <g transform="matrix(0,0,0,1,28.062000274658203,49)" opacity="1"
                    style="display: block;">
                    <g opacity="1" transform="matrix(1,0,0,1,0,0)">
                        <path fill="rgb(10,204,168)" fill-opacity="1"
                            d=" M36,0 C36,0 36,0 36,0 C36,0.5519000291824341 35.55189895629883,1 35,1 C35,1 -35,1 -35,1 C-35.55189895629883,1 -36,0.5519000291824341 -36,0 C-36,0 -36,0 -36,0 C-36,-0.5519000291824341 -35.55189895629883,-1 -35,-1 C-35,-1 35,-1 35,-1 C35.55189895629883,-1 36,-0.5519000291824341 36,0z"></path>
                    </g>
                </g>
                <g transform="matrix(0,0,0,1,12.062000274658203,61)" opacity="1"
                    style="display: block;">
                    <g opacity="1" transform="matrix(1,0,0,1,0,0)">
                        <path fill="rgb(167,188,255)" fill-opacity="1"
                            d=" M10,0 C10,0 10,0 10,0 C10,0.5519000291824341 9.551899909973145,1 9,1 C9,1 -9,1 -9,1 C-9.551899909973145,1 -10,0.5519000291824341 -10,0 C-10,0 -10,0 -10,0 C-10,-0.5519000291824341 -9.551899909973145,-1 -9,-1 C-9,-1 9,-1 9,-1 C9.551899909973145,-1 10,-0.5519000291824341 10,0z"></path>
                    </g>
                </g>
                <g transform="matrix(0,0,0,1,20.062000274658203,21)" opacity="1"
                    style="display: block;">
                    <g opacity="1" transform="matrix(1,0,0,1,0,0)">
                        <path fill="rgb(246,84,84)" fill-opacity="1"
                            d=" M10,0 C10,0 10,0 10,0 C10,0.5519000291824341 9.551899909973145,1 9,1 C9,1 -9,1 -9,1 C-9.551899909973145,1 -10,0.5519000291824341 -10,0 C-10,0 -10,0 -10,0 C-10,-0.5519000291824341 -9.551899909973145,-1 -9,-1 C-9,-1 9,-1 9,-1 C9.551899909973145,-1 10,-0.5519000291824341 10,0z"></path>
                    </g>
                </g>
                <g transform="matrix(0,0,0,1,16,17)" opacity="1" style="display: block;">
                    <g opacity="1" transform="matrix(1,0,0,1,0,0)">
                        <path fill="rgb(167,188,255)" fill-opacity="1"
                            d=" M30,0 C30,0 30,0 30,0 C30,0.5519000291824341 29.55190086364746,1 29,1 C29,1 -29,1 -29,1 C-29.55190086364746,1 -30,0.5519000291824341 -30,0 C-30,0 -30,0 -30,0 C-30,-0.5519000291824341 -29.55190086364746,-1 -29,-1 C-29,-1 29,-1 29,-1 C29.55190086364746,-1 30,-0.5519000291824341 30,0z"></path>
                    </g>
                </g>
                <g transform="matrix(0,0,0,1,24.062000274658203,29)" opacity="1"
                    style="display: block;">
                    <g opacity="1" transform="matrix(1,0,0,1,0,0)">
                        <path fill="rgb(167,188,255)" fill-opacity="1"
                            d=" M10,0 C10,0 10,0 10,0 C10,0.5519000291824341 9.551899909973145,1 9,1 C9,1 -9,1 -9,1 C-9.551899909973145,1 -10,0.5519000291824341 -10,0 C-10,0 -10,0 -10,0 C-10,-0.5519000291824341 -9.551899909973145,-1 -9,-1 C-9,-1 9,-1 9,-1 C9.551899909973145,-1 10,-0.5519000291824341 10,0z"></path>
                    </g>
                </g>
                <g transform="matrix(0,0,0,1,32.0620002746582,41)" opacity="1"
                    style="display: block;">
                    <g opacity="1" transform="matrix(1,0,0,1,0,0)">
                        <path fill="rgb(167,188,255)" fill-opacity="1"
                            d=" M20,0 C20,0 20,0 20,0 C20,0.5519000291824341 19.55190086364746,1 19,1 C19,1 -19,1 -19,1 C-19.55190086364746,1 -20,0.5519000291824341 -20,0 C-20,0 -20,0 -20,0 C-20,-0.5519000291824341 -19.55190086364746,-1 -19,-1 C-19,-1 19,-1 19,-1 C19.55190086364746,-1 20,-0.5519000291824341 20,0z"></path>
                    </g>
                </g>
                <g transform="matrix(0,0,0,1,20.062000274658203,53)" opacity="1"
                    style="display: block;">
                    <g opacity="1" transform="matrix(1,0,0,1,0,0)">
                        <path fill="rgb(167,188,255)" fill-opacity="1"
                            d=" M20,0 C20,0 20,0 20,0 C20,0.5519000291824341 19.55190086364746,1 19,1 C19,1 -19,1 -19,1 C-19.55190086364746,1 -20,0.5519000291824341 -20,0 C-20,0 -20,0 -20,0 C-20,-0.5519000291824341 -19.55190086364746,-1 -19,-1 C-19,-1 19,-1 19,-1 C19.55190086364746,-1 20,-0.5519000291824341 20,0z"></path>
                    </g>
                </g>
                <g transform="matrix(0,0,0,1,8.062000274658203,65)" opacity="1"
                    style="display: block;">
                    <g opacity="1" transform="matrix(1,0,0,1,0,0)">
                        <path fill="rgb(66,110,239)" fill-opacity="1"
                            d=" M16,0 C16,0 16,0 16,0 C16,0.5519000291824341 15.551899909973145,1 15,1 C15,1 -15,1 -15,1 C-15.551899909973145,1 -16,0.5519000291824341 -16,0 C-16,0 -16,0 -16,0 C-16,-0.5519000291824341 -15.551899909973145,-1 -15,-1 C-15,-1 15,-1 15,-1 C15.551899909973145,-1 16,-0.5519000291824341 16,0z"></path>
                    </g>
                </g>
                <g transform="matrix(0,0,0,1,4.061999797821045,69)" opacity="1"
                    style="display: block;">
                    <g opacity="1" transform="matrix(1,0,0,1,0,0)">
                        <path fill="rgb(167,188,255)" fill-opacity="1"
                            d=" M10,0 C10,0 10,0 10,0 C10,0.5519000291824341 9.551899909973145,1 9,1 C9,1 -9,1 -9,1 C-9.551899909973145,1 -10,0.5519000291824341 -10,0 C-10,0 -10,0 -10,0 C-10,-0.5519000291824341 -9.551899909973145,-1 -9,-1 C-9,-1 9,-1 9,-1 C9.551899909973145,-1 10,-0.5519000291824341 10,0z"></path>
                    </g>
                </g>
                <g transform="matrix(0,0,0,1,0.06199999898672104,73)" opacity="1"
                    style="display: block;">
                    <g opacity="1" transform="matrix(1,0,0,1,0,0)">
                        <path fill="rgb(66,110,239)" fill-opacity="1"
                            d=" M10,0 C10,0 10,0 10,0 C10,0.5519000291824341 9.551899909973145,1 9,1 C9,1 -9,1 -9,1 C-9.551899909973145,1 -10,0.5519000291824341 -10,0 C-10,0 -10,0 -10,0 C-10,-0.5519000291824341 -9.551899909973145,-1 -9,-1 C-9,-1 9,-1 9,-1 C9.551899909973145,-1 10,-0.5519000291824341 10,0z"></path>
                    </g>
                </g>
            </g>
            <g clip-path="url(#__lottie_element_146)" style="display: none;"
                transform="matrix(1,0,0,1,0,16)" opacity="1">
                <g transform="matrix(1,0,0,1,18,9)" opacity="1" style="display: block;">
                    <g opacity="1" transform="matrix(1,0,0,1,0,0)">
                        <path fill="rgb(66,110,239)" fill-opacity="1"
                            d=" M10,0 C10,0 10,0 10,0 C10,0.5519000291824341 9.551899909973145,1 9,1 C9,1 -9,1 -9,1 C-9.551899909973145,1 -10,0.5519000291824341 -10,0 C-10,0 -10,0 -10,0 C-10,-0.5519000291824341 -9.551899909973145,-1 -9,-1 C-9,-1 9,-1 9,-1 C9.551899909973145,-1 10,-0.5519000291824341 10,0z"></path>
                    </g>
                </g>
                <g transform="matrix(1,0,0,1,22.75,13)" opacity="1" style="display: block;">
                    <g opacity="1" transform="matrix(1,0,0,1,0,0)">
                        <path fill="rgb(66,110,239)" fill-opacity="1"
                            d=" M10,0 C10,0 10,0 10,0 C10,0.5519000291824341 9.551899909973145,1 9,1 C9,1 -9,1 -9,1 C-9.551899909973145,1 -10,0.5519000291824341 -10,0 C-10,0 -10,0 -10,0 C-10,-0.5519000291824341 -9.551899909973145,-1 -9,-1 C-9,-1 9,-1 9,-1 C9.551899909973145,-1 10,-0.5519000291824341 10,0z"></path>
                    </g>
                </g>
                <g transform="matrix(1,0,0,1,20,5)" opacity="1" style="display: block;">
                    <g opacity="1" transform="matrix(1,0,0,1,0,0)">
                        <path fill="rgb(167,188,255)" fill-opacity="1"
                            d=" M16,0 C16,0 16,0 16,0 C16,0.5519000291824341 15.551899909973145,1 15,1 C15,1 -15,1 -15,1 C-15.551899909973145,1 -16,0.5519000291824341 -16,0 C-16,0 -16,0 -16,0 C-16,-0.5519000291824341 -15.551899909973145,-1 -15,-1 C-15,-1 15,-1 15,-1 C15.551899909973145,-1 16,-0.5519000291824341 16,0z"></path>
                    </g>
                </g>
                <g transform="matrix(1,0,0,1,10,1)" opacity="1" style="display: block;">
                    <g opacity="1" transform="matrix(1,0,0,1,0,0)">
                        <path fill="rgb(66,110,239)" fill-opacity="1"
                            d=" M10,0 C10,0 10,0 10,0 C10,0.5519000291824341 9.551899909973145,1 9,1 C9,1 -9,1 -9,1 C-9.551899909973145,1 -10,0.5519000291824341 -10,0 C-10,0 -10,0 -10,0 C-10,-0.5519000291824341 -9.551899909973145,-1 -9,-1 C-9,-1 9,-1 9,-1 C9.551899909973145,-1 10,-0.5519000291824341 10,0z"></path>
                    </g>
                </g>
                <g transform="matrix(1,0,0,1,36,57)" opacity="1" style="display: block;">
                    <g opacity="1" transform="matrix(1,0,0,1,0,0)">
                        <path fill="rgb(255,168,66)" fill-opacity="1"
                            d=" M20,0 C20,0 20,0 20,0 C20,0.5519000291824341 19.55190086364746,1 19,1 C19,1 -19,1 -19,1 C-19.55190086364746,1 -20,0.5519000291824341 -20,0 C-20,0 -20,0 -20,0 C-20,-0.5519000291824341 -19.55190086364746,-1 -19,-1 C-19,-1 19,-1 19,-1 C19.55190086364746,-1 20,-0.5519000291824341 20,0z"></path>
                    </g>
                </g>
                <g transform="matrix(1,0,0,1,60,37)" opacity="1" style="display: block;">
                    <g opacity="1" transform="matrix(1,0,0,1,0,0)">
                        <path fill="rgb(255,168,66)" fill-opacity="1"
                            d=" M28,0 C28,0 28,0 28,0 C28,0.5519000291824341 27.55190086364746,1 27,1 C27,1 -27,1 -27,1 C-27.55190086364746,1 -28,0.5519000291824341 -28,0 C-28,0 -28,0 -28,0 C-28,-0.5519000291824341 -27.55190086364746,-1 -27,-1 C-27,-1 27,-1 27,-1 C27.55190086364746,-1 28,-0.5519000291824341 28,0z"></path>
                    </g>
                </g>
                <g transform="matrix(1,0,0,1,38,33)" opacity="1" style="display: block;">
                    <g opacity="1" transform="matrix(1,0,0,1,0,0)">
                        <path fill="rgb(66,110,239)" fill-opacity="1"
                            d=" M10,0 C10,0 10,0 10,0 C10,0.5519000291824341 9.551899909973145,1 9,1 C9,1 -9,1 -9,1 C-9.551899909973145,1 -10,0.5519000291824341 -10,0 C-10,0 -10,0 -10,0 C-10,-0.5519000291824341 -9.551899909973145,-1 -9,-1 C-9,-1 9,-1 9,-1 C9.551899909973145,-1 10,-0.5519000291824341 10,0z"></path>
                    </g>
                </g>
                <g transform="matrix(1,0,0,1,44,25)" opacity="1" style="display: block;">
                    <g opacity="1" transform="matrix(1,0,0,1,0,0)">
                        <path fill="rgb(66,110,239)" fill-opacity="1"
                            d=" M20,0 C20,0 20,0 20,0 C20,0.5519000291824341 19.55190086364746,1 19,1 C19,1 -19,1 -19,1 C-19.55190086364746,1 -20,0.5519000291824341 -20,0 C-20,0 -20,0 -20,0 C-20,-0.5519000291824341 -19.55190086364746,-1 -19,-1 C-19,-1 19,-1 19,-1 C19.55190086364746,-1 20,-0.5519000291824341 20,0z"></path>
                    </g>
                </g>
                <g transform="matrix(1,0,0,1,46,45)" opacity="1" style="display: block;">
                    <g opacity="1" transform="matrix(1,0,0,1,0,0)">
                        <path fill="rgb(66,110,239)" fill-opacity="1"
                            d=" M10,0 C10,0 10,0 10,0 C10,0.5519000291824341 9.551899909973145,1 9,1 C9,1 -9,1 -9,1 C-9.551899909973145,1 -10,0.5519000291824341 -10,0 C-10,0 -10,0 -10,0 C-10,-0.5519000291824341 -9.551899909973145,-1 -9,-1 C-9,-1 9,-1 9,-1 C9.551899909973145,-1 10,-0.5519000291824341 10,0z"></path>
                    </g>
                </g>
                <g transform="matrix(1,0,0,1,64,49)" opacity="1" style="display: block;">
                    <g opacity="1" transform="matrix(1,0,0,1,0,0)">
                        <path fill="rgb(10,204,168)" fill-opacity="1"
                            d=" M36,0 C36,0 36,0 36,0 C36,0.5519000291824341 35.55189895629883,1 35,1 C35,1 -35,1 -35,1 C-35.55189895629883,1 -36,0.5519000291824341 -36,0 C-36,0 -36,0 -36,0 C-36,-0.5519000291824341 -35.55189895629883,-1 -35,-1 C-35,-1 35,-1 35,-1 C35.55189895629883,-1 36,-0.5519000291824341 36,0z"></path>
                    </g>
                </g>
                <g transform="matrix(1,0,0,1,22,61)" opacity="1" style="display: block;">
                    <g opacity="1" transform="matrix(1,0,0,1,0,0)">
                        <path fill="rgb(167,188,255)" fill-opacity="1"
                            d=" M10,0 C10,0 10,0 10,0 C10,0.5519000291824341 9.551899909973145,1 9,1 C9,1 -9,1 -9,1 C-9.551899909973145,1 -10,0.5519000291824341 -10,0 C-10,0 -10,0 -10,0 C-10,-0.5519000291824341 -9.551899909973145,-1 -9,-1 C-9,-1 9,-1 9,-1 C9.551899909973145,-1 10,-0.5519000291824341 10,0z"></path>
                    </g>
                </g>
                <g transform="matrix(1,0,0,1,30,21)" opacity="1" style="display: block;">
                    <g opacity="1" transform="matrix(1,0,0,1,0,0)">
                        <path fill="rgb(246,84,84)" fill-opacity="1"
                            d=" M10,0 C10,0 10,0 10,0 C10,0.5519000291824341 9.551899909973145,1 9,1 C9,1 -9,1 -9,1 C-9.551899909973145,1 -10,0.5519000291824341 -10,0 C-10,0 -10,0 -10,0 C-10,-0.5519000291824341 -9.551899909973145,-1 -9,-1 C-9,-1 9,-1 9,-1 C9.551899909973145,-1 10,-0.5519000291824341 10,0z"></path>
                    </g>
                </g>
                <g transform="matrix(1,0,0,1,46,17)" opacity="1" style="display: block;">
                    <g opacity="1" transform="matrix(1,0,0,1,0,0)">
                        <path fill="rgb(167,188,255)" fill-opacity="1"
                            d=" M30,0 C30,0 30,0 30,0 C30,0.5519000291824341 29.55190086364746,1 29,1 C29,1 -29,1 -29,1 C-29.55190086364746,1 -30,0.5519000291824341 -30,0 C-30,0 -30,0 -30,0 C-30,-0.5519000291824341 -29.55190086364746,-1 -29,-1 C-29,-1 29,-1 29,-1 C29.55190086364746,-1 30,-0.5519000291824341 30,0z"></path>
                    </g>
                </g>
                <g transform="matrix(1,0,0,1,34,29)" opacity="1" style="display: block;">
                    <g opacity="1" transform="matrix(1,0,0,1,0,0)">
                        <path fill="rgb(167,188,255)" fill-opacity="1"
                            d=" M10,0 C10,0 10,0 10,0 C10,0.5519000291824341 9.551899909973145,1 9,1 C9,1 -9,1 -9,1 C-9.551899909973145,1 -10,0.5519000291824341 -10,0 C-10,0 -10,0 -10,0 C-10,-0.5519000291824341 -9.551899909973145,-1 -9,-1 C-9,-1 9,-1 9,-1 C9.551899909973145,-1 10,-0.5519000291824341 10,0z"></path>
                    </g>
                </g>
                <g transform="matrix(1,0,0,1,52,41)" opacity="1" style="display: block;">
                    <g opacity="1" transform="matrix(1,0,0,1,0,0)">
                        <path fill="rgb(167,188,255)" fill-opacity="1"
                            d=" M20,0 C20,0 20,0 20,0 C20,0.5519000291824341 19.55190086364746,1 19,1 C19,1 -19,1 -19,1 C-19.55190086364746,1 -20,0.5519000291824341 -20,0 C-20,0 -20,0 -20,0 C-20,-0.5519000291824341 -19.55190086364746,-1 -19,-1 C-19,-1 19,-1 19,-1 C19.55190086364746,-1 20,-0.5519000291824341 20,0z"></path>
                    </g>
                </g>
                <g transform="matrix(1,0,0,1,40,53)" opacity="1" style="display: block;">
                    <g opacity="1" transform="matrix(1,0,0,1,0,0)">
                        <path fill="rgb(167,188,255)" fill-opacity="1"
                            d=" M20,0 C20,0 20,0 20,0 C20,0.5519000291824341 19.55190086364746,1 19,1 C19,1 -19,1 -19,1 C-19.55190086364746,1 -20,0.5519000291824341 -20,0 C-20,0 -20,0 -20,0 C-20,-0.5519000291824341 -19.55190086364746,-1 -19,-1 C-19,-1 19,-1 19,-1 C19.55190086364746,-1 20,-0.5519000291824341 20,0z"></path>
                    </g>
                </g>
                <g transform="matrix(1,0,0,1,24,65)" opacity="1" style="display: block;">
                    <g opacity="1" transform="matrix(1,0,0,1,0,0)">
                        <path fill="rgb(66,110,239)" fill-opacity="1"
                            d=" M16,0 C16,0 16,0 16,0 C16,0.5519000291824341 15.551899909973145,1 15,1 C15,1 -15,1 -15,1 C-15.551899909973145,1 -16,0.5519000291824341 -16,0 C-16,0 -16,0 -16,0 C-16,-0.5519000291824341 -15.551899909973145,-1 -15,-1 C-15,-1 15,-1 15,-1 C15.551899909973145,-1 16,-0.5519000291824341 16,0z"></path>
                    </g>
                </g>
                <g transform="matrix(1,0,0,1,14,69)" opacity="1" style="display: block;">
                    <g opacity="1" transform="matrix(1,0,0,1,0,0)">
                        <path fill="rgb(167,188,255)" fill-opacity="1"
                            d=" M10,0 C10,0 10,0 10,0 C10,0.5519000291824341 9.551899909973145,1 9,1 C9,1 -9,1 -9,1 C-9.551899909973145,1 -10,0.5519000291824341 -10,0 C-10,0 -10,0 -10,0 C-10,-0.5519000291824341 -9.551899909973145,-1 -9,-1 C-9,-1 9,-1 9,-1 C9.551899909973145,-1 10,-0.5519000291824341 10,0z"></path>
                    </g>
                </g>
                <g transform="matrix(1,0,0,1,10,73)" opacity="1" style="display: block;">
                    <g opacity="1" transform="matrix(1,0,0,1,0,0)">
                        <path fill="rgb(66,110,239)" fill-opacity="1"
                            d=" M10,0 C10,0 10,0 10,0 C10,0.5519000291824341 9.551899909973145,1 9,1 C9,1 -9,1 -9,1 C-9.551899909973145,1 -10,0.5519000291824341 -10,0 C-10,0 -10,0 -10,0 C-10,-0.5519000291824341 -9.551899909973145,-1 -9,-1 C-9,-1 9,-1 9,-1 C9.551899909973145,-1 10,-0.5519000291824341 10,0z"></path>
                    </g>
                </g>
            </g>
        </g>
        <g transform="matrix(1,0,0,1,74.5,97.5)" opacity="1" style="display: block;">
            <g opacity="1" transform="matrix(1,0,0,1,0,0)">
                <path stroke-linecap="butt" stroke-linejoin="miter" fill-opacity="0"
                    stroke-miterlimit="4" stroke="rgb(10,204,168)" stroke-opacity="1"
                    stroke-width="2"
                    d=" M0,-3.5 C1.9316500425338745,-3.5 3.5,-1.9316500425338745 3.5,0 C3.5,1.9316500425338745 1.9316500425338745,3.5 0,3.5 C-1.9316500425338745,3.5 -3.5,1.9316500425338745 -3.5,0 C-3.5,-1.9316500425338745 -1.9316500425338745,-3.5 0,-3.5z"></path>
            </g>
        </g>
        <g transform="matrix(1,0,0,1,87.5,97.5)" opacity="1" style="display: block;">
            <g opacity="1" transform="matrix(1,0,0,1,0,0)">
                <path stroke-linecap="butt" stroke-linejoin="miter" fill-opacity="0"
                    stroke-miterlimit="4" stroke="rgb(246,84,84)" stroke-opacity="1"
                    stroke-width="2"
                    d=" M0,-3.5 C1.9316500425338745,-3.5 3.5,-1.9316500425338745 3.5,0 C3.5,1.9316500425338745 1.9316500425338745,3.5 0,3.5 C-1.9316500425338745,3.5 -3.5,1.9316500425338745 -3.5,0 C-3.5,-1.9316500425338745 -1.9316500425338745,-3.5 0,-3.5z"></path>
            </g>
        </g>
        <g transform="matrix(1,0,0,1,100.5,97.5)" opacity="1" style="display: block;">
            <g opacity="1" transform="matrix(1,0,0,1,0,0)">
                <path stroke-linecap="butt" stroke-linejoin="miter" fill-opacity="0"
                    stroke-miterlimit="4" stroke="rgb(255,168,66)" stroke-opacity="1"
                    stroke-width="2"
                    d=" M0,-3.5 C1.9316500425338745,-3.5 3.5,-1.9316500425338745 3.5,0 C3.5,1.9316500425338745 1.9316500425338745,3.5 0,3.5 C-1.9316500425338745,3.5 -3.5,1.9316500425338745 -3.5,0 C-3.5,-1.9316500425338745 -1.9316500425338745,-3.5 0,-3.5z"></path>
            </g>
        </g>
        <g transform="matrix(1,0,0,1,200,43)" opacity="1" style="display: block;">
            <g opacity="1" transform="matrix(1,0,0,1,0,0)">
                <path stroke-linecap="butt" stroke-linejoin="miter" fill-opacity="0"
                    stroke-miterlimit="4" stroke="rgb(40,43,52)" stroke-opacity="1" stroke-width="2"
                    d=" M29,-12 C29,-12 29,12 29,12 C29,13.655699729919434 27.65570068359375,15 26,15 C26,15 -26,15 -26,15 C-27.65570068359375,15 -29,13.655699729919434 -29,12 C-29,12 -29,-12 -29,-12 C-29,-13.655699729919434 -27.65570068359375,-15 -26,-15 C-26,-15 26,-15 26,-15 C27.65570068359375,-15 29,-13.655699729919434 29,-12z"></path>
            </g>
        </g>
        <g transform="matrix(1,0,0,1,200.01499938964844,42.43199920654297)" opacity="1"
            style="display: block;">
            <g opacity="1" transform="matrix(1,0,0,1,0,0)">
                <path fill="rgb(40,43,52)" fill-opacity="1"
                    d=" M4.15500020980835,-3.8399999141693115 C4.15500020980835,-3.8399999141693115 8.734999656677246,8.569999694824219 8.734999656677246,8.569999694824219 C8.734999656677246,8.569999694824219 11.475000381469727,8.569999694824219 11.475000381469727,8.569999694824219 C11.475000381469727,8.569999694824219 16.05500030517578,-3.8399999141693115 16.05500030517578,-3.8399999141693115 C16.05500030517578,-3.8399999141693115 13.074999809265137,-3.8399999141693115 13.074999809265137,-3.8399999141693115 C13.074999809265137,-3.8399999141693115 10.104999542236328,5.159999847412109 10.104999542236328,5.159999847412109 C10.104999542236328,5.159999847412109 7.125,-3.8399999141693115 7.125,-3.8399999141693115 C7.125,-3.8399999141693115 4.15500020980835,-3.8399999141693115 4.15500020980835,-3.8399999141693115z M-0.6549999713897705,-3.8399999141693115 C-0.6549999713897705,-3.8399999141693115 -0.6549999713897705,8.569999694824219 -0.6549999713897705,8.569999694824219 C-0.6549999713897705,8.569999694824219 2.075000047683716,8.569999694824219 2.075000047683716,8.569999694824219 C2.075000047683716,8.569999694824219 2.075000047683716,-3.8399999141693115 2.075000047683716,-3.8399999141693115 C2.075000047683716,-3.8399999141693115 -0.6549999713897705,-3.8399999141693115 -0.6549999713897705,-3.8399999141693115z M0.7149999737739563,-8.904000282287598 C0.1850000023841858,-8.904000282287598 -0.24500000476837158,-8.734000205993652 -0.6050000190734863,-8.404000282287598 C-0.9649999737739563,-8.064000129699707 -1.1349999904632568,-7.633999824523926 -1.1349999904632568,-7.104000091552734 C-1.1349999904632568,-6.573999881744385 -0.9649999737739563,-6.144000053405762 -0.6050000190734863,-5.783999919891357 C-0.24500000476837158,-5.443999767303467 0.1850000023841858,-5.283999919891357 0.7149999737739563,-5.283999919891357 C1.2350000143051147,-5.283999919891357 1.6749999523162842,-5.443999767303467 2.0350000858306885,-5.783999919891357 C2.3949999809265137,-6.124000072479248 2.5850000381469727,-6.573999881744385 2.5850000381469727,-7.104000091552734 C2.5850000381469727,-7.633999824523926 2.3949999809265137,-8.064000129699707 2.055000066757202,-8.404000282287598 C1.6950000524520874,-8.734000205993652 1.2350000143051147,-8.904000282287598 0.7149999737739563,-8.904000282287598z M-9.795000076293945,-1.968000054359436 C-8.925000190734863,-1.968000054359436 -8.1850004196167,-1.6080000400543213 -7.605000019073486,-0.8880000114440918 C-6.985000133514404,-0.11800000071525574 -6.644999980926514,0.9319999814033508 -6.644999980926514,2.252000093460083 C-6.644999980926514,2.252000093460083 -6.644999980926514,2.4519999027252197 -6.644999980926514,2.4519999027252197 C-6.644999980926514,3.6519999504089355 -6.914999961853027,4.6519999504089355 -7.414999961853027,5.421999931335449 C-7.994999885559082,6.26200008392334 -8.835000038146973,6.691999912261963 -9.885000228881836,6.691999912261963 C-11.114999771118164,6.691999912261963 -11.994999885559082,6.26200008392334 -12.555000305175781,5.4019999504089355 C-13.03499984741211,4.682000160217285 -13.244999885559082,3.6519999504089355 -13.244999885559082,2.302000045776367 C-13.244999885559082,0.9620000123977661 -13.005000114440918,-0.04800000041723251 -12.505000114440918,-0.7480000257492065 C-11.925000190734863,-1.5579999685287476 -11.03499984741211,-1.968000054359436 -9.795000076293945,-1.968000054359436z M-6.744999885559082,-8.904000282287598 C-6.744999885559082,-8.904000282287598 -6.744999885559082,-2.134000062942505 -6.744999885559082,-2.134000062942505 C-7.775000095367432,-3.503999948501587 -8.994999885559082,-4.173999786376953 -10.4350004196167,-4.173999786376953 C-12.21500015258789,-4.173999786376953 -13.635000228881836,-3.5239999294281006 -14.635000228881836,-2.2339999675750732 C-15.595000267028809,-1.034000039100647 -16.05500030517578,0.47600001096725464 -16.05500030517578,2.305999994277954 C-16.05500030517578,4.196000099182129 -15.574999809265137,5.75600004196167 -14.614999771118164,6.955999851226807 C-13.585000038146973,8.255999565124512 -12.145000457763672,8.906000137329102 -10.295000076293945,8.906000137329102 C-8.664999961853027,8.906000137329102 -7.414999961853027,8.355999946594238 -6.554999828338623,7.245999813079834 C-6.554999828338623,7.245999813079834 -6.554999828338623,8.565999984741211 -6.554999828338623,8.565999984741211 C-6.554999828338623,8.565999984741211 -4.005000114440918,8.565999984741211 -4.005000114440918,8.565999984741211 C-4.005000114440918,8.565999984741211 -4.005000114440918,-8.904000282287598 -4.005000114440918,-8.904000282287598 C-4.005000114440918,-8.904000282287598 -6.744999885559082,-8.904000282287598 -6.744999885559082,-8.904000282287598z"></path>
            </g>
        </g>
        <g transform="matrix(1,0,0,1,54,149)" opacity="1" style="display: block;">
            <g opacity="1" transform="matrix(1,0,0,1,0,0)">
                <path fill="rgb(5,161,126)" fill-opacity="1"
                    d=" M0,-14 C7.726600170135498,-14 14,-7.726600170135498 14,0 C14,7.726600170135498 7.726600170135498,14 0,14 C-7.726600170135498,14 -14,7.726600170135498 -14,0 C-14,-7.726600170135498 -7.726600170135498,-14 0,-14z"></path>
            </g>
        </g>
        <g transform="matrix(1,0,0,1,54.0369987487793,148.39999389648438)" opacity="1"
            style="display: block;">
            <g opacity="1" transform="matrix(1,0,0,1,0,0)">
                <path fill="rgb(255,255,255)" fill-opacity="1"
                    d=" M4.151000022888184,-2.8959999084472656 C3.2209999561309814,-2.8959999084472656 2.4509999752044678,-2.686000108718872 1.88100004196167,-2.2760000228881836 C1.2510000467300415,-1.8559999465942383 0.9509999752044678,-1.315999984741211 0.9509999752044678,-0.6060000061988831 C0.9509999752044678,0.09399999678134918 1.2510000467300415,0.6240000128746033 1.8910000324249268,1.003999948501587 C2.2809998989105225,1.2640000581741333 2.9609999656677246,1.503999948501587 3.940999984741211,1.74399995803833 C4.841000080108643,1.9639999866485596 5.431000232696533,2.1440000534057617 5.701000213623047,2.2739999294281006 C6.210999965667725,2.5239999294281006 6.480999946594238,2.884000062942505 6.480999946594238,3.3440001010894775 C6.480999946594238,4.27400016784668 5.730999946594238,4.754000186920166 4.261000156402588,4.754000186920166 C3.561000108718872,4.754000186920166 3.0309998989105225,4.624000072479248 2.680999994277954,4.363999843597412 C2.321000099182129,4.084000110626221 2.0810000896453857,3.614000082015991 1.9910000562667847,2.9639999866485596 C1.9910000562667847,2.9639999866485596 0.7409999966621399,2.9639999866485596 0.7409999966621399,2.9639999866485596 C0.9309999942779541,4.863999843597412 2.121000051498413,5.823999881744385 4.290999889373779,5.823999881744385 C6.63100004196167,5.823999881744385 7.801000118255615,4.964000225067139 7.801000118255615,3.2639999389648438 C7.801000118255615,2.5439999103546143 7.460999965667725,1.9839999675750732 6.801000118255615,1.5640000104904175 C6.370999813079834,1.2940000295639038 5.671000003814697,1.0440000295639038 4.681000232696533,0.8040000200271606 C3.8410000801086426,0.5740000009536743 3.2709999084472656,0.40400001406669617 2.9609999656677246,0.2540000081062317 C2.4809999465942383,0.014000000432133675 2.260999917984009,-0.28600001335144043 2.260999917984009,-0.6359999775886536 C2.260999917984009,-1.00600004196167 2.440999984741211,-1.2960000038146973 2.7909998893737793,-1.50600004196167 C3.1110000610351562,-1.7259999513626099 3.561000108718872,-1.8259999752044678 4.13100004196167,-1.8259999752044678 C4.790999889373779,-1.8259999752044678 5.301000118255615,-1.6959999799728394 5.651000022888184,-1.4359999895095825 C5.9710001945495605,-1.215999960899353 6.181000232696533,-0.8360000252723694 6.290999889373779,-0.3160000145435333 C6.290999889373779,-0.3160000145435333 7.540999889373779,-0.3160000145435333 7.540999889373779,-0.3160000145435333 C7.321000099182129,-2.0460000038146973 6.201000213623047,-2.8959999084472656 4.151000022888184,-2.8959999084472656z M-2.2170000076293945,-5.823999881744385 C-2.2170000076293945,-5.823999881744385 -2.2170000076293945,1.906000018119812 -2.2170000076293945,1.906000018119812 C-2.2170000076293945,2.8459999561309814 -2.38700008392334,3.5360000133514404 -2.7269999980926514,3.9660000801086426 C-3.0769999027252197,4.415999889373779 -3.63700008392334,4.656000137329102 -4.4070000648498535,4.656000137329102 C-5.796999931335449,4.656000137329102 -6.486999988555908,3.875999927520752 -6.486999988555908,2.3359999656677246 C-6.486999988555908,2.3359999656677246 -6.486999988555908,1.9559999704360962 -6.486999988555908,1.9559999704360962 C-6.486999988555908,1.9559999704360962 -7.796999931335449,1.9559999704360962 -7.796999931335449,1.9559999704360962 C-7.796999931335449,1.9559999704360962 -7.796999931335449,2.3559999465942383 -7.796999931335449,2.3559999465942383 C-7.796999931335449,3.4760000705718994 -7.506999969482422,4.335999965667725 -6.896999835968018,4.946000099182129 C-6.327000141143799,5.515999794006348 -5.506999969482422,5.826000213623047 -4.436999797821045,5.826000213623047 C-3.177000045776367,5.826000213623047 -2.246999979019165,5.47599983215332 -1.6670000553131104,4.765999794006348 C-1.156999945640564,4.125999927520752 -0.8970000147819519,3.196000099182129 -0.8970000147819519,1.9559999704360962 C-0.8970000147819519,1.9559999704360962 -0.8970000147819519,-5.823999881744385 -0.8970000147819519,-5.823999881744385 C-0.8970000147819519,-5.823999881744385 -2.2170000076293945,-5.823999881744385 -2.2170000076293945,-5.823999881744385z"></path>
            </g>
        </g>
        <g transform="matrix(1,0,0,1,175,224)" opacity="1" style="display: block;">
            <g opacity="1" transform="matrix(1,0,0,1,0,0)">
                <path fill="rgb(5,161,126)" fill-opacity="1"
                    d=" M0,-32 C17.66080093383789,-32 32,-17.66080093383789 32,0 C32,17.66080093383789 17.66080093383789,32 0,32 C-17.66080093383789,32 -32,17.66080093383789 -32,0 C-32,-17.66080093383789 -17.66080093383789,-32 0,-32z"></path>
            </g>
        </g>
        <g transform="matrix(1,0,0,1,162,224)" opacity="1" style="display: block;">
            <g opacity="1" transform="matrix(1,0,0,1,0,0)">
                <path stroke-linecap="round" stroke-linejoin="round" fill-opacity="0"
                    stroke="rgb(255,255,255)" stroke-opacity="1" stroke-width="2"
                    d=" M4,-8 C4,-8 -4,0 -4,0 C-4,0 4,8 4,8"></path>
            </g>
        </g>
        <g transform="matrix(1,0,0,1,189,224)" opacity="1" style="display: none;">
            <g opacity="1" transform="matrix(1,0,0,1,0,0)">
                <path stroke-linecap="round" stroke-linejoin="round" fill-opacity="0"
                    stroke="rgb(255,255,255)" stroke-opacity="1" stroke-width="2"
                    d=" M-4,-8 C-4,-8 4,0 4,0 C4,0 -4,8 -4,8"></path>
            </g>
        </g>
        <g transform="matrix(1,0,0,1,140,140)" opacity="1" style="display: none;">
            <g opacity="1" transform="matrix(1,0,0,1,0,0)">
                <path fill="rgb(255,0,0)" fill-opacity="1"
                    d=" M39.8120002746582,74.375 C39.8120002746582,74.375 30,94.875 30,94.875"></path>
                <path stroke-linecap="butt" stroke-linejoin="miter" fill-opacity="0"
                    stroke-miterlimit="4" stroke="rgb(255,255,255)" stroke-opacity="1"
                    stroke-width="2"
                    d=" M39.8120002746582,74.375 C39.8120002746582,74.375 30,94.875 30,94.875"></path>
            </g>
        </g>
    </g>
</svg>